{
.appVersion = "1075";
customParameters = (
{
name = panose;
value = (
2,
0,
5,
0,
0,
0,
0,
2,
0,
4
);
},
{
name = openTypeOS2VendorID;
value = ITFO;
},
{
name = openTypeOS2Type;
value = (
2
);
},
{
name = glyphOrder;
value = (
A,
Aacute,
acute,
Abreve,
breve,
Acircumflex,
circumflex,
Adieresis,
dieresis,
Agrave,
grave,
Amacron,
macron,
Aogonek,
ogonek,
Aring,
ring,
Atilde,
tilde,
AE,
B,
C,
Cacute,
Ccaron,
caron,
Ccedilla,
cedilla,
D,
Eth,
Dcaron,
Dcroat,
E,
Eacute,
Ecaron,
Ecircumflex,
Edieresis,
Edotaccent,
dotaccent,
Egrave,
Emacron,
Eogonek,
F,
G,
Gbreve,
H,
I,
Iacute,
Icircumflex,
Idieresis,
Idotaccent,
Igrave,
Imacron,
Iogonek,
J,
K,
L,
Lacute,
Lcaron,
Lslash,
M,
N,
Nacute,
Ncaron,
Ntilde,
O,
Oacute,
Ocircumflex,
Odieresis,
Ograve,
Ohungarumlaut,
hungarumlaut,
Omacron,
Oslash,
Otilde,
OE,
P,
Thorn,
Q,
R,
Racute,
Rcaron,
S,
Sacute,
Scaron,
T,
Tcaron,
U,
Uacute,
Ucircumflex,
Udieresis,
Ugrave,
Uhungarumlaut,
Umacron,
Uogonek,
Uring,
V,
W,
X,
Y,
Yacute,
Ydieresis,
Z,
Zacute,
Zcaron,
Zdotaccent,
Gcommaaccent,
Kcommaaccent,
Lcommaaccent,
Ncommaaccent,
Rcommaaccent,
Scedilla,
Tcedilla,
Scommaaccent,
Tcommaaccent,
a,
aacute,
abreve,
acircumflex,
adieresis,
agrave,
amacron,
aogonek,
aring,
atilde,
ae,
b,
c,
cacute,
ccaron,
ccedilla,
d,
eth,
dcaron,
dcroat,
e,
eacute,
ecaron,
ecircumflex,
edieresis,
edotaccent,
egrave,
emacron,
eogonek,
f,
g,
gbreve,
h,
i,
dotlessi,
iacute,
icircumflex,
idieresis,
igrave,
imacron,
iogonek,
j,
k,
l,
lacute,
lcaron,
lslash,
m,
n,
nacute,
ncaron,
ntilde,
o,
oacute,
ocircumflex,
odieresis,
ograve,
ohungarumlaut,
omacron,
oslash,
otilde,
oe,
p,
thorn,
q,
r,
racute,
rcaron,
s,
sacute,
scaron,
germandbls,
t,
tcaron,
comma,
u,
uacute,
ucircumflex,
udieresis,
ugrave,
uhungarumlaut,
umacron,
gcommaaccent,
kcommaaccent,
lcommaaccent,
ncommaaccent,
rcommaaccent,
scedilla,
tcedilla,
scommaaccent,
tcommaaccent,
uogonek,
uring,
v,
w,
x,
y,
yacute,
ydieresis,
z,
zacute,
zcaron,
zdotaccent,
fi,
fl,
ordfeminine,
ordmasculine,
pi,
dvA,
dvAA,
dvmAA,

glyphs = (
{
glyphname = A;
lastChange = "2018-02-07 10:31:24 +0000";
layers = (
{
layerId = UUID0;
paths = (
{
closed = 1;
nodes = (
"199 666 LINE",
"352 0 LINE",
"404 0 LINE",
"248 666 LINE"
);
},
{
closed = 1;
nodes = (
"79 240 LINE",
"79 195 LINE",
"335 195 LINE",
"335 240 LINE"
);
},
{
closed = 1;
nodes = (
"176 666 LINE",
"20 0 LINE",
"72 0 LINE",
"225 666 LINE"
);
}
);
width = 424;
},
{
layerId = "13BA1341-7400-426C-964F-62F99446C2B7";
paths = (
{
closed = 1;
nodes = (
"217 693 LINE",
"341 0 LINE",
"484 0 LINE",
"350 693 LINE"
);
},
{
closed = 1;
nodes = (
"158 287 LINE",
"158 160 LINE",
"334 160 LINE",
"334 287 LINE"
);
},
{
closed = 1;
nodes = (
"141 693 LINE",
"5 0 LINE",
"148 0 LINE",
"265 693 LINE"
);
}
);
width = 489;
}
);
unicode = 0041;
},
{
glyphname = acute;
lastChange = "2018-02-07 10:31:24 +0000";
layers = (
{
layerId = UUID0;
paths = (
{
closed = 1;
nodes = (
"166 713 LINE",
"129 608 LINE",
"166 608 LINE",
"221 713 LINE"
);
}
);
width = 350;
},
{
layerId = "13BA1341-7400-426C-964F-62F99446C2B7";
paths = (
{
closed = 1;
nodes = (
"142 747 LINE",
"98 632 LINE",
"177 632 LINE",
"252 747 LINE"
);
}
);
width = 350;
}
);
unicode = 00B4;
},
{
glyphname = breve;
lastChange = "2018-02-07 10:31:24 +0000";
layers = (
{
layerId = UUID0;
paths = (
{
closed = 1;
nodes = (
"239 713 LINE",
"238 674 OFFCURVE",
"215 648 OFFCURVE",
"175 648 CURVE SMOOTH",
"135 648 OFFCURVE",
"112 674 OFFCURVE",
"111 713 CURVE",
"68 713 LINE",
"70 655 OFFCURVE",
"106 608 OFFCURVE",
"175 608 CURVE SMOOTH",
"244 608 OFFCURVE",
"280 655 OFFCURVE",
"282 713 CURVE"
);
}
);
width = 350;
},
{
layerId = "13BA1341-7400-426C-964F-62F99446C2B7";
paths = (
{
closed = 1;
nodes = (
"218 747 LINE",
"218 719 OFFCURVE",
"203 700 OFFCURVE",
"175 700 CURVE SMOOTH",
"147 700 OFFCURVE",
"132 719 OFFCURVE",
"132 747 CURVE",
"55 747 LINE",
"55 678 OFFCURVE",
"106 632 OFFCURVE",
"175 632 CURVE SMOOTH",
"243 632 OFFCURVE",
"295 677 OFFCURVE",
"295 747 CURVE"
);
}
);
width = 350;
}
);
unicode = 02D8;
},
{
glyphname = circumflex;
lastChange = "2018-02-07 10:31:24 +0000";
layers = (
{
layerId = UUID0;
paths = (
{
closed = 1;
nodes = (
"156 713 LINE",
"210 608 LINE",
"246 608 LINE",
"198 713 LINE"
);
},
{
closed = 1;
nodes = (
"152 713 LINE",
"104 608 LINE",
"140 608 LINE",
"194 713 LINE"
);
}
);
width = 350;
},
{
layerId = "13BA1341-7400-426C-964F-62F99446C2B7";
paths = (
{
closed = 1;
nodes = (
"128 747 LINE",
"215 632 LINE",
"288 632 LINE",
"228 747 LINE"
);
},
{
closed = 1;
nodes = (
"121 747 LINE",
"61 632 LINE",
"134 632 LINE",
"221 747 LINE"
);
}
);
width = 350;
}
);
unicode = 02C6;
},
{
glyphname = dieresis;
lastChange = "2018-02-07 10:31:24 +0000";
layers = (
{
layerId = UUID0;
paths = (
{
closed = 1;
nodes = (
"79 640 OFFCURVE",
"88 626 OFFCURVE",
"112 626 CURVE SMOOTH",
"136 626 OFFCURVE",
"145 640 OFFCURVE",
"145 659 CURVE SMOOTH",
"145 678 OFFCURVE",
"136 692 OFFCURVE",
"112 692 CURVE SMOOTH",
"88 692 OFFCURVE",
"79 678 OFFCURVE",
"79 659 CURVE SMOOTH"
);
},
{
closed = 1;
nodes = (
"204 640 OFFCURVE",
"213 626 OFFCURVE",
"237 626 CURVE SMOOTH",
"261 626 OFFCURVE",
"270 640 OFFCURVE",
"270 659 CURVE SMOOTH",
"270 678 OFFCURVE",
"261 692 OFFCURVE",
"237 692 CURVE SMOOTH",
"213 692 OFFCURVE",
"204 678 OFFCURVE",
"204 659 CURVE SMOOTH"
);
}
);
width = 350;
},
{
layerId = "13BA1341-7400-426C-964F-62F99446C2B7";
paths = (
{
closed = 1;
nodes = (
"32 657 OFFCURVE",
"45 635 OFFCURVE",
"90 635 CURVE SMOOTH",
"134 635 OFFCURVE",
"148 657 OFFCURVE",
"148 689 CURVE SMOOTH",
"148 722 OFFCURVE",
"134 744 OFFCURVE",
"90 744 CURVE SMOOTH",
"45 744 OFFCURVE",
"32 722 OFFCURVE",
"32 689 CURVE SMOOTH"
);
},
{
closed = 1;
nodes = (
"203 657 OFFCURVE",
"216 635 OFFCURVE",
"261 635 CURVE SMOOTH",
"305 635 OFFCURVE",
"319 657 OFFCURVE",
"319 689 CURVE SMOOTH",
"319 722 OFFCURVE",
"305 744 OFFCURVE",
"261 744 CURVE SMOOTH",
"216 744 OFFCURVE",
"203 722 OFFCURVE",
"203 689 CURVE SMOOTH"
);
}
);
width = 350;
}
);
unicode = 00A8;
},
{
glyphname = grave;
lastChange = "2018-02-07 10:31:24 +0000";
layers = (
{
layerId = UUID0;
paths = (
{
closed = 1;
nodes = (
"129 713 LINE",
"184 608 LINE",
"221 608 LINE",
"184 713 LINE"
);
}
);
width = 350;
},
{
layerId = "13BA1341-7400-426C-964F-62F99446C2B7";
paths = (
{
closed = 1;
nodes = (
"98 747 LINE",
"173 632 LINE",
"252 632 LINE",
"208 747 LINE"
);
}
);
width = 350;
}
);
unicode = 0060;
},
{
glyphname = macron;
lastChange = "2018-02-07 10:31:24 +0000";
layers = (
{
layerId = UUID0;
paths = (
{
closed = 1;
nodes = (
"70 680 LINE",
"70 641 LINE",
"280 641 LINE",
"280 680 LINE"
);
}
);
width = 350;
},
{
layerId = "13BA1341-7400-426C-964F-62F99446C2B7";
paths = (
{
closed = 1;
nodes = (
"41 728 LINE",
"41 651 LINE",
"308 651 LINE",
"308 728 LINE"
);
}
);
width = 350;
}
);
unicode = 00AF;
},
{
glyphname = ogonek;
lastChange = "2018-02-07 10:31:24 +0000";
layers = (
{
layerId = UUID0;
paths = (
{
closed = 1;
nodes = (
"188 0 LINE",
"154 -26 OFFCURVE",
"130 -66 OFFCURVE",
"130 -105 CURVE SMOOTH",
"130 -148 OFFCURVE",
"156 -170 OFFCURVE",
"208 -170 CURVE SMOOTH",
"220 -170 LINE",
"220 -128 LINE",
"208 -128 LINE SMOOTH",
"182 -128 OFFCURVE",
"169 -119 OFFCURVE",
"169 -92 CURVE SMOOTH",
"169 -60 OFFCURVE",
"188 -24 OFFCURVE",
"220 0 CURVE"
);
}
);
width = 350;
},
{
layerId = "13BA1341-7400-426C-964F-62F99446C2B7";
paths = (
{
closed = 1;
nodes = (
"183 0 LINE",
"146 -31 OFFCURVE",
"117 -74 OFFCURVE",
"117 -120 CURVE SMOOTH",
"117 -170 OFFCURVE",
"151 -200 OFFCURVE",
"212 -200 CURVE SMOOTH",
"236 -200 LINE",
"236 -131 LINE",
"225 -131 LINE SMOOTH",
"206 -131 OFFCURVE",
"196 -120 OFFCURVE",
"196 -95 CURVE SMOOTH",
"196 -58 OFFCURVE",
"214 -23 OFFCURVE",
"236 0 CURVE"
);
}
);
width = 350;
}
);
unicode = 02DB;
},
{
glyphname = ring;
lastChange = "2018-02-07 10:31:24 +0000";
layers = (
{
layerId = UUID0;
paths = (
{
closed = 1;
nodes = (
"103 622 OFFCURVE",
"129 590 OFFCURVE",
"175 590 CURVE SMOOTH",
"222 590 OFFCURVE",
"247 622 OFFCURVE",
"247 661 CURVE SMOOTH",
"247 700 OFFCURVE",
"222 731 OFFCURVE",
"175 731 CURVE SMOOTH",
"129 731 OFFCURVE",
"103 700 OFFCURVE",
"103 661 CURVE SMOOTH"
);
},
{
closed = 1;
nodes = (
"212 638 OFFCURVE",
"198 623 OFFCURVE",
"175 623 CURVE SMOOTH",
"152 623 OFFCURVE",
"138 638 OFFCURVE",
"138 661 CURVE SMOOTH",
"138 683 OFFCURVE",
"152 698 OFFCURVE",
"175 698 CURVE SMOOTH",
"198 698 OFFCURVE",
"212 683 OFFCURVE",
"212 661 CURVE SMOOTH"
);
}
);
width = 350;
},
{
layerId = "13BA1341-7400-426C-964F-62F99446C2B7";
paths = (
{
closed = 1;
nodes = (
"94 645 OFFCURVE",
"123 609 OFFCURVE",
"175 609 CURVE SMOOTH",
"228 609 OFFCURVE",
"256 645 OFFCURVE",
"256 689 CURVE SMOOTH",
"256 733 OFFCURVE",
"228 768 OFFCURVE",
"175 768 CURVE SMOOTH",
"123 768 OFFCURVE",
"94 733 OFFCURVE",
"94 689 CURVE SMOOTH"
);
},
{
closed = 1;
nodes = (
"203 671 OFFCURVE",
"192 660 OFFCURVE",
"175 660 CURVE SMOOTH",
"158 660 OFFCURVE",
"147 671 OFFCURVE",
"147 689 CURVE SMOOTH",
"147 705 OFFCURVE",
"158 717 OFFCURVE",
"175 717 CURVE SMOOTH",
"192 717 OFFCURVE",
"203 705 OFFCURVE",
"203 689 CURVE SMOOTH"
);
}
);
width = 350;
}
);
unicode = 02DA;
},
{
glyphname = tilde;
lastChange = "2018-02-07 10:31:24 +0000";
layers = (
{
layerId = UUID0;
paths = (
{
closed = 1;
nodes = (
"249 703 LINE",
"249 690 LINE SMOOTH",
"249 671 OFFCURVE",
"244 660 OFFCURVE",
"227 660 CURVE SMOOTH",
"198 661 OFFCURVE",
"165 701 OFFCURVE",
"119 701 CURVE SMOOTH",
"75 701 OFFCURVE",
"57 671 OFFCURVE",
"57 635 CURVE SMOOTH",
"57 619 LINE",
"100 619 LINE",
"100 632 LINE SMOOTH",
"100 651 OFFCURVE",
"107 662 OFFCURVE",
"123 662 CURVE SMOOTH",
"158 662 OFFCURVE",
"186 621 OFFCURVE",
"232 621 CURVE SMOOTH",
"270 621 OFFCURVE",
"292 645 OFFCURVE",
"292 687 CURVE SMOOTH",
"292 703 LINE"
);
}
);
width = 350;
},
{
layerId = "13BA1341-7400-426C-964F-62F99446C2B7";
paths = (
{
closed = 1;
nodes = (
"242 744 LINE",
"242 740 LINE",
"242 715 OFFCURVE",
"237 704 OFFCURVE",
"221 704 CURVE SMOOTH",
"197 704 OFFCURVE",
"169 743 OFFCURVE",
"117 743 CURVE SMOOTH",
"57 743 OFFCURVE",
"29 700 OFFCURVE",
"28 635 CURVE",
"28 633 LINE",
"107 633 LINE",
"107 636 LINE",
"107 662 OFFCURVE",
"112 673 OFFCURVE",
"128 673 CURVE SMOOTH",
"152 673 OFFCURVE",
"184 634 OFFCURVE",
"232 634 CURVE SMOOTH",
"292 634 OFFCURVE",
"320 676 OFFCURVE",
"321 739 CURVE",
"321 744 LINE"
);
}
);
width = 350;
}
);
unicode = 02DC;
},
{
glyphname = AE;
lastChange = "2018-02-07 10:31:24 +0000";
layers = (
{
layerId = UUID0;
paths = (
{
closed = 1;
nodes = (
"323 666 LINE",
"10 0 LINE",
"65 0 LINE",
"373 666 LINE"
);
},
{
closed = 1;
nodes = (
"139 240 LINE",
"139 195 LINE",
"395 195 LINE",
"395 240 LINE"
);
},
{
closed = 1;
nodes = (
"354 666 LINE",
"354 0 LINE",
"630 0 LINE",
"630 45 LINE",
"404 45 LINE",
"404 313 LINE",
"601 313 LINE",
"601 358 LINE",
"404 358 LINE",
"404 621 LINE",
"630 621 LINE",
"630 666 LINE"
);
}
);
width = 642;
},
{
layerId = "13BA1341-7400-426C-964F-62F99446C2B7";
paths = (
{
closed = 1;
nodes = (
"266 693 LINE",
"0 0 LINE",
"145 0 LINE",
"392 693 LINE"
);
},
{
closed = 1;
nodes = (
"153 287 LINE",
"153 160 LINE",
"391 160 LINE",
"391 287 LINE"
);
},
{
closed = 1;
nodes = (
"355 693 LINE",
"355 0 LINE",
"696 0 LINE",
"696 130 LINE",
"495 130 LINE",
"495 286 LINE",
"669 286 LINE",
"669 416 LINE",
"495 416 LINE",
"495 563 LINE",
"696 563 LINE",
"696 693 LINE"
);
}
);
width = 725;
}
);
unicode = 00C6;
},
{
glyphname = B;
lastChange = "2018-02-07 10:31:24 +0000";
layers = (
{
layerId = UUID0;
paths = (
{
closed = 1;
nodes = (
"103 347 LINE",
"103 312 LINE",
"237 312 LINE SMOOTH",
"316 312 OFFCURVE",
"346 271 OFFCURVE",
"346 207 CURVE SMOOTH",
"346 150 LINE SMOOTH",
"346 86 OFFCURVE",
"316 45 OFFCURVE",
"237 45 CURVE SMOOTH",
"100 45 LINE",
"100 0 LINE",
"237 0 LINE SMOOTH",
"347 0 OFFCURVE",
"396 64 OFFCURVE",
"396 150 CURVE SMOOTH",
"396 207 LINE SMOOTH",
"396 293 OFFCURVE",
"348 347 OFFCURVE",
"241 347 CURVE SMOOTH"
);
},
{
closed = 1;
nodes = (
"75 666 LINE",
"75 0 LINE",
"125 0 LINE",
"125 666 LINE"
);
},
{
closed = 1;
nodes = (
"100 666 LINE",
"100 621 LINE",
"231 621 LINE SMOOTH",
"310 621 OFFCURVE",
"340 580 OFFCURVE",
"340 516 CURVE SMOOTH",
"340 462 LINE SMOOTH",
"340 398 OFFCURVE",
"310 357 OFFCURVE",
"231 357 CURVE SMOOTH",
"103 357 LINE",
"103 322 LINE",
"235 322 LINE SMOOTH",
"342 322 OFFCURVE",
"390 376 OFFCURVE",
"390 462 CURVE SMOOTH",
"390 516 LINE SMOOTH",
"390 602 OFFCURVE",
"341 666 OFFCURVE",
"231 666 CURVE SMOOTH"
);
}
);
width = 461;
},
{
layerId = "13BA1341-7400-426C-964F-62F99446C2B7";
paths = (
{
closed = 1;
nodes = (
"171 355 LINE",
"171 283 LINE",
"263 283 LINE SMOOTH",
"293 283 OFFCURVE",
"310 272 OFFCURVE",
"310 240 CURVE SMOOTH",
"310 169 LINE",
"310 137 OFFCURVE",
"293 126 OFFCURVE",
"263 126 CURVE SMOOTH",
"137 126 LINE",
"137 0 LINE",
"288 0 LINE SMOOTH",
"394 0 OFFCURVE",
"458 43 OFFCURVE",
"458 159 CURVE SMOOTH",
"458 230 LINE SMOOTH",
"458 299 OFFCURVE",
"432 355 OFFCURVE",
"340 355 CURVE SMOOTH"
);
},
{
closed = 1;
nodes = (
"45 693 LINE",
"45 0 LINE",
"195 0 LINE",
"195 693 LINE"
);
},
{
closed = 1;
nodes = (
"137 693 LINE",
"137 567 LINE",
"257 567 LINE SMOOTH",
"287 567 OFFCURVE",
"304 556 OFFCURVE",
"304 524 CURVE SMOOTH",
"304 459 LINE",
"304 427 OFFCURVE",
"287 416 OFFCURVE",
"257 416 CURVE",
"171 416 LINE",
"171 344 LINE",
"334 344 LINE SMOOTH",
"426 344 OFFCURVE",
"452 400 OFFCURVE",
"452 469 CURVE SMOOTH",
"452 534 LINE SMOOTH",
"452 650 OFFCURVE",
"388 693 OFFCURVE",
"282 693 CURVE SMOOTH"
);
}
);
width = 493;
}
);
unicode = 0042;
},
{
glyphname = C;
lastChange = "2018-02-07 10:31:24 +0000";
layers = (
{
layerId = UUID0;
paths = (
{
closed = 1;
nodes = (
"65 130 LINE SMOOTH",
"65 46 OFFCURVE",
"117 -5 OFFCURVE",
"234 -5 CURVE SMOOTH",
"278 -5 OFFCURVE",
"321 2 OFFCURVE",
"349 11 CURVE",
"349 58 LINE",
"319 49 OFFCURVE",
"276 41 OFFCURVE",
"234 41 CURVE SMOOTH",
"141 41 OFFCURVE",
"115 75 OFFCURVE",
"115 130 CURVE SMOOTH",
"115 536 LINE SMOOTH",
"115 591 OFFCURVE",
"141 625 OFFCURVE",
"234 625 CURVE SMOOTH",
"276 625 OFFCURVE",
"317 617 OFFCURVE",
"347 608 CURVE",
"347 655 LINE",
"319 663 OFFCURVE",
"279 671 OFFCURVE",
"234 671 CURVE SMOOTH",
"117 671 OFFCURVE",
"65 620 OFFCURVE",
"65 536 CURVE SMOOTH"
);
}
);
width = 389;
},
{
layerId = "13BA1341-7400-426C-964F-62F99446C2B7";
paths = (
{
closed = 1;
nodes = (
"35 163 LINE SMOOTH",
"35 59 OFFCURVE",
"103 -5 OFFCURVE",
"256 -5 CURVE SMOOTH",
"307 -5 OFFCURVE",
"358 2 OFFCURVE",
"387 10 CURVE",
"387 145 LINE",
"354 135 OFFCURVE",
"306 130 OFFCURVE",
"260 130 CURVE SMOOTH",
"204 130 OFFCURVE",
"187 149 OFFCURVE",
"187 178 CURVE SMOOTH",
"187 514 LINE SMOOTH",
"187 544 OFFCURVE",
"203 563 OFFCURVE",
"260 563 CURVE SMOOTH",
"305 563 OFFCURVE",
"351 556 OFFCURVE",
"384 546 CURVE",
"384 684 LINE",
"354 692 OFFCURVE",
"307 698 OFFCURVE",
"258 698 CURVE SMOOTH",
"105 698 OFFCURVE",
"35 632 OFFCURVE",
"35 529 CURVE SMOOTH"
);
}
);
width = 412;
}
);
unicode = 0043;
},
{
glyphname = caron;
lastChange = "2018-02-07 10:31:24 +0000";
layers = (
{
layerId = UUID0;
paths = (
{
closed = 1;
nodes = (
"210 713 LINE",
"156 608 LINE",
"198 608 LINE",
"246 713 LINE"
);
},
{
closed = 1;
nodes = (
"104 713 LINE",
"152 608 LINE",
"194 608 LINE",
"140 713 LINE"
);
}
);
width = 350;
},
{
layerId = "13BA1341-7400-426C-964F-62F99446C2B7";
paths = (
{
closed = 1;
nodes = (
"215 747 LINE",
"128 632 LINE",
"228 632 LINE",
"288 747 LINE"
);
},
{
closed = 1;
nodes = (
"61 747 LINE",
"121 632 LINE",
"221 632 LINE",
"134 747 LINE"
);
}
);
width = 350;
}
);
unicode = 02C7;
},
{
glyphname = cedilla;
lastChange = "2018-02-07 10:31:24 +0000";
layers = (
{
layerId = UUID0;
paths = (
{
closed = 1;
nodes = (
"151 6 LINE",
"136 -67 LINE",
"150 -67 LINE SMOOTH",
"189 -67 OFFCURVE",
"208 -79 OFFCURVE",
"208 -107 CURVE SMOOTH",
"208 -135 OFFCURVE",
"184 -147 OFFCURVE",
"152 -147 CURVE SMOOTH",
"135 -147 OFFCURVE",
"118 -144 OFFCURVE",
"107 -139 CURVE",
"107 -172 LINE",
"120 -177 OFFCURVE",
"140 -179 OFFCURVE",
"156 -179 CURVE SMOOTH",
"203 -179 OFFCURVE",
"242 -155 OFFCURVE",
"242 -107 CURVE SMOOTH",
"242 -66 OFFCURVE",
"214 -42 OFFCURVE",
"172 -40 CURVE",
"182 6 LINE"
);
}
);
width = 350;
},
{
layerId = "13BA1341-7400-426C-964F-62F99446C2B7";
paths = (
{
closed = 1;
nodes = (
"139 6 LINE",
"121 -77 LINE",
"132 -77 LINE SMOOTH",
"153 -78 OFFCURVE",
"164 -86 OFFCURVE",
"164 -101 CURVE SMOOTH",
"164 -115 OFFCURVE",
"152 -124 OFFCURVE",
"132 -124 CURVE SMOOTH",
"120 -124 OFFCURVE",
"105 -122 OFFCURVE",
"98 -119 CURVE",
"98 -185 LINE",
"116 -189 OFFCURVE",
"133 -191 OFFCURVE",
"150 -191 CURVE SMOOTH",
"211 -191 OFFCURVE",
"251 -159 OFFCURVE",
"251 -106 CURVE SMOOTH",
"251 -57 OFFCURVE",
"213 -41 OFFCURVE",
"193 -39 CURVE",
"203 6 LINE"
);
}
);
width = 350;
}
);
unicode = 00B8;
},
{
glyphname = D;
lastChange = "2018-02-07 10:31:24 +0000";
layers = (
{
layerId = UUID0;
paths = (
{
closed = 1;
nodes = (
"75 666 LINE",
"75 0 LINE",
"234 0 LINE SMOOTH",
"344 0 OFFCURVE",
"393 64 OFFCURVE",
"393 150 CURVE SMOOTH",
"393 516 LINE SMOOTH",
"393 602 OFFCURVE",
"344 666 OFFCURVE",
"234 666 CURVE SMOOTH"
);
},
{
closed = 1;
nodes = (
"343 150 LINE SMOOTH",
"343 86 OFFCURVE",
"313 45 OFFCURVE",
"234 45 CURVE SMOOTH",
"125 45 LINE",
"125 621 LINE",
"234 621 LINE SMOOTH",
"313 621 OFFCURVE",
"343 580 OFFCURVE",
"343 516 CURVE"
);
}
);
width = 458;
},
{
layerId = "13BA1341-7400-426C-964F-62F99446C2B7";
paths = (
{
closed = 1;
nodes = (
"45 693 LINE",
"45 0 LINE",
"297 0 LINE SMOOTH",
"412 0 OFFCURVE",
"458 61 OFFCURVE",
"458 163 CURVE SMOOTH",
"458 539 LINE SMOOTH",
"458 642 OFFCURVE",
"394 693 OFFCURVE",
"288 693 CURVE"
);
},
{
closed = 1;
nodes = (
"308 175 LINE SMOOTH",
"308 151 OFFCURVE",
"302 129 OFFCURVE",
"267 129 CURVE SMOOTH",
"195 129 LINE",
"195 570 LINE",
"267 570 LINE SMOOTH",
"302 570 OFFCURVE",
"308 553 OFFCURVE",
"308 533 CURVE SMOOTH"
);
}
);
width = 493;
}
);
unicode = 0044;
},
{
glyphname = Eth;
lastChange = "2018-02-07 10:31:24 +0000";
layers = (
{
components = (
{
name = D;
}
);
layerId = UUID0;
paths = (
{
closed = 1;
nodes = (
"-1 349 LINE",
"-1 304 LINE",
"247 304 LINE",
"247 349 LINE"
);
}
);
width = 458;
},
{
components = (
{
name = D;
transform = "{1, 0, 0, 1, 10, 0}";
}
);
layerId = "13BA1341-7400-426C-964F-62F99446C2B7";
paths = (
{
closed = 1;
nodes = (
"-9 403 LINE",
"-9 279 LINE",
"261 279 LINE",
"261 403 LINE"
);
}
);
width = 499;
}
);
unicode = 00D0;
},
{
glyphname = Dcroat;
lastChange = "2018-02-07 10:31:24 +0000";
layers = (
{
components = (
{
name = D;
}
);
layerId = UUID0;
paths = (
{
closed = 1;
nodes = (
"15 356 LINE",
"15 311 LINE",
"238 311 LINE",
"238 356 LINE"
);
}
);
width = 458;
},
{
components = (
{
name = D;
transform = "{1, 0, 0, 1, 10, 0}";
}
);
layerId = "13BA1341-7400-426C-964F-62F99446C2B7";
paths = (
{
closed = 1;
nodes = (
"-9 403 LINE",
"-9 279 LINE",
"261 279 LINE",
"261 403 LINE"
);
}
);
width = 499;
}
);
unicode = 0110;
},
{
glyphname = E;
lastChange = "2018-02-07 10:31:24 +0000";
layers = (
{
layerId = UUID0;
paths = (
{
closed = 1;
nodes = (
"75 666 LINE",
"75 0 LINE",
"351 0 LINE",
"351 45 LINE",
"125 45 LINE",
"125 313 LINE",
"322 313 LINE",
"322 358 LINE",
"125 358 LINE",
"125 621 LINE",
"351 621 LINE",
"351 666 LINE"
);
}
);
width = 391;
},
{
layerId = "13BA1341-7400-426C-964F-62F99446C2B7";
paths = (
{
closed = 1;
nodes = (
"45 693 LINE",
"45 0 LINE",
"396 0 LINE",
"396 130 LINE",
"195 130 LINE",
"195 286 LINE",
"369 286 LINE",
"369 416 LINE",
"195 416 LINE",
"195 563 LINE",
"396 563 LINE",
"396 693 LINE"
);
}
);
width = 421;
}
);
unicode = 0045;
},
{
glyphname = dotaccent;
lastChange = "2018-02-07 10:31:24 +0000";
layers = (
{
layerId = UUID0;
paths = (
{
closed = 1;
nodes = (
"140 669 OFFCURVE",
"149 655 OFFCURVE",
"173 655 CURVE SMOOTH",
"197 655 OFFCURVE",
"206 669 OFFCURVE",
"206 688 CURVE SMOOTH",
"206 707 OFFCURVE",
"197 721 OFFCURVE",
"173 721 CURVE SMOOTH",
"149 721 OFFCURVE",
"140 707 OFFCURVE",
"140 688 CURVE SMOOTH"
);
}
);
width = 350;
},
{
layerId = "13BA1341-7400-426C-964F-62F99446C2B7";
paths = (
{
closed = 1;
nodes = (
"117 657 OFFCURVE",
"130 635 OFFCURVE",
"175 635 CURVE SMOOTH",
"219 635 OFFCURVE",
"233 657 OFFCURVE",
"233 689 CURVE SMOOTH",
"233 722 OFFCURVE",
"219 744 OFFCURVE",
"175 744 CURVE SMOOTH",
"130 744 OFFCURVE",
"117 722 OFFCURVE",
"117 689 CURVE SMOOTH"
);
}
);
width = 350;
}
);
unicode = 02D9;
},
{
glyphname = F;
lastChange = "2018-02-07 10:31:24 +0000";
layers = (
{
layerId = UUID0;
paths = (
{
closed = 1;
nodes = (
"75 666 LINE",
"75 0 LINE",
"125 0 LINE",
"125 303 LINE",
"333 303 LINE",
"333 348 LINE",
"125 348 LINE",
"125 621 LINE",
"342 621 LINE",
"342 666 LINE"
);
}
);
width = 362;
},
{
layerId = "13BA1341-7400-426C-964F-62F99446C2B7";
paths = (
{
closed = 1;
nodes = (
"45 693 LINE",
"45 0 LINE",
"197 0 LINE",
"197 257 LINE",
"373 257 LINE",
"373 391 LINE",
"197 391 LINE",
"197 562 LINE",
"388 562 LINE",
"388 693 LINE"
);
}
);
width = 403;
}
);
unicode = 0046;
},
{
glyphname = G;
lastChange = "2018-02-07 10:31:24 +0000";
layers = (
{
layerId = UUID0;
paths = (
{
closed = 1;
nodes = (
"65 130 LINE SMOOTH",
"65 28 OFFCURVE",
"136 -5 OFFCURVE",
"218 -5 CURVE SMOOTH",
"306 -5 OFFCURVE",
"346 18 OFFCURVE",
"373 34 CURVE",
"373 319 LINE",
"323 319 LINE",
"323 64 LINE",
"313 57 OFFCURVE",
"274 40 OFFCURVE",
"218 40 CURVE SMOOTH",
"155 40 OFFCURVE",
"115 64 OFFCURVE",
"115 130 CURVE SMOOTH",
"115 530 LINE SMOOTH",
"115 590 OFFCURVE",
"145 625 OFFCURVE",
"240 625 CURVE SMOOTH",
"285 625 OFFCURVE",
"324 616 OFFCURVE",
"355 606 CURVE",
"355 655 LINE",
"327 663 OFFCURVE",
"285 671 OFFCURVE",
"239 671 CURVE SMOOTH",
"112 671 OFFCURVE",
"65 614 OFFCURVE",
"65 530 CURVE SMOOTH"
);
}
);
width = 443;
},
{
layerId = "13BA1341-7400-426C-964F-62F99446C2B7";
paths = (
{
closed = 1;
nodes = (
"35 163 LINE SMOOTH",
"35 59 OFFCURVE",
"105 -5 OFFCURVE",
"258 -5 CURVE SMOOTH",
"352 -5 OFFCURVE",
"399 16 OFFCURVE",
"438 37 CURVE",
"438 372 LINE",
"292 372 LINE",
"292 138 LINE",
"284 134 OFFCURVE",
"269 130 OFFCURVE",
"256 130 CURVE SMOOTH",
"200 130 OFFCURVE",
"187 150 OFFCURVE",
"187 179 CURVE SMOOTH",
"187 508 LINE SMOOTH",
"187 538 OFFCURVE",
"213 560 OFFCURVE",
"270 560 CURVE SMOOTH",
"322 560 OFFCURVE",
"375 550 OFFCURVE",
"409 537 CURVE",
"409 679 LINE",
"382 688 OFFCURVE",
"326 698 OFFCURVE",
"268 698 CURVE SMOOTH",
"115 698 OFFCURVE",
"35 629 OFFCURVE",
"35 526 CURVE SMOOTH"
);
}
);
width = 468;
}
);
unicode = 0047;
},
{
glyphname = H;
lastChange = "2018-02-07 10:31:24 +0000";
layers = (
{
layerId = UUID0;
paths = (
{
closed = 1;
nodes = (
"359 666 LINE",
"359 0 LINE",
"410 0 LINE",
"410 666 LINE"
);
},
{
closed = 1;
nodes = (
"75 666 LINE",
"75 0 LINE",
"125 0 LINE",
"125 666 LINE"
);
},
{
closed = 1;
nodes = (
"107 349 LINE",
"107 304 LINE",
"375 304 LINE",
"375 349 LINE"
);
}
);
width = 485;
},
{
layerId = "13BA1341-7400-426C-964F-62F99446C2B7";
paths = (
{
closed = 1;
nodes = (
"335 693 LINE",
"335 0 LINE",
"487 0 LINE",
"487 693 LINE"
);
},
{
closed = 1;
nodes = (
"45 693 LINE",
"45 0 LINE",
"197 0 LINE",
"197 693 LINE"
);
},
{
closed = 1;
nodes = (
"188 408 LINE",
"188 274 LINE",
"345 274 LINE",
"345 408 LINE"
);
}
);
width = 532;
}
);
unicode = 0048;
},
{
glyphname = I;
lastChange = "2018-02-07 10:31:24 +0000";
layers = (
{
layerId = UUID0;
paths = (
{
closed = 1;
nodes = (
"75 666 LINE",
"75 0 LINE",
"125 0 LINE",
"125 666 LINE"
);
}
);
width = 200;
},
{
layerId = "13BA1341-7400-426C-964F-62F99446C2B7";
paths = (
{
closed = 1;
nodes = (
"45 693 LINE",
"45 0 LINE",
"197 0 LINE",
"197 693 LINE"
);
}
);
width = 242;
}
);
unicode = 0049;
},
{
glyphname = J;
lastChange = "2018-02-07 10:31:24 +0000";
layers = (
{
layerId = UUID0;
paths = (
{
closed = 1;
nodes = (
"75 666 LINE",
"75 194 LINE SMOOTH",
"75 93 OFFCURVE",
"62 30 OFFCURVE",
"41 -43 CURVE SMOOTH",
"11 -149 LINE",
"61 -149 LINE",
"92 -44 LINE SMOOTH",
"107 9 OFFCURVE",
"125 80 OFFCURVE",
"125 195 CURVE SMOOTH",
"125 666 LINE"
);
}
);
width = 200;
},
{
layerId = "13BA1341-7400-426C-964F-62F99446C2B7";
paths = (
{
closed = 1;
nodes = (
"50 693 LINE",
"50 207 LINE SMOOTH",
"50 113 OFFCURVE",
"35 50 OFFCURVE",
"7 -46 CURVE SMOOTH",
"-23 -149 LINE",
"136 -149 LINE",
"167 -46 LINE SMOOTH",
"196 50 OFFCURVE",
"202 100 OFFCURVE",
"202 208 CURVE SMOOTH",
"202 693 LINE"
);
}
);
width = 247;
}
);
unicode = 004A;
},
{
glyphname = K;
lastChange = "2018-02-07 10:31:24 +0000";
layers = (
{
layerId = UUID0;
paths = (
{
closed = 1;
nodes = (
"337 666 LINE",
"192 330 LINE",
"343 0 LINE",
"399 0 LINE",
"247 332 LINE",
"392 666 LINE"
);
},
{
closed = 1;
nodes = (
"75 666 LINE",
"75 0 LINE",
"125 0 LINE",
"125 666 LINE"
);
}
);
width = 419;
},
{
layerId = "13BA1341-7400-426C-964F-62F99446C2B7";
paths = (
{
closed = 1;
nodes = (
"309 693 LINE",
"186 356 LINE",
"314 0 LINE",
"481 0 LINE",
"342 358 LINE",
"469 693 LINE"
);
},
{
closed = 1;
nodes = (
"45 693 LINE",
"45 0 LINE",
"195 0 LINE",
"195 693 LINE"
);
}
);
width = 486;
}
);
unicode = 004B;
},
{
glyphname = L;
lastChange = "2018-02-07 10:31:24 +0000";
layers = (
{
layerId = UUID0;
paths = (
{
closed = 1;
nodes = (
"75 666 LINE",
"75 0 LINE",
"334 0 LINE",
"334 45 LINE",
"125 45 LINE",
"125 666 LINE"
);
}
);
width = 339;
},
{
layerId = "13BA1341-7400-426C-964F-62F99446C2B7";
paths = (
{
closed = 1;
nodes = (
"45 693 LINE",
"45 0 LINE",
"382 0 LINE",
"382 126 LINE",
"197 126 LINE",
"197 693 LINE"
);
}
);
width = 387;
}
);
unicode = 004C;
},
{
color = 7;
glyphname = Lcaron;
lastChange = "2018-02-07 10:31:24 +0000";
layers = (
{
components = (
{
name = L;
}
);
layerId = UUID0;
paths = (
{
closed = 1;
nodes = (
"194 711 LINE",
"167 598 LINE",
"198 598 LINE",
"211 618 OFFCURVE",
"242 668 OFFCURVE",
"242 687 CURVE SMOOTH",
"242 704 OFFCURVE",
"230 711 OFFCURVE",
"217 711 CURVE SMOOTH"
);
}
);
width = 339;
},
{
components = (
{
name = L;
}
);
layerId = "13BA1341-7400-426C-964F-62F99446C2B7";
paths = (
{
closed = 1;
nodes = (
"257 747 LINE",
"232 592 LINE",
"280 592 LINE",
"298 615 OFFCURVE",
"338 678 OFFCURVE",
"338 715 CURVE SMOOTH",
"338 735 OFFCURVE",
"328 747 OFFCURVE",
"303 747 CURVE SMOOTH"
);
}
);
width = 387;
}
);
unicode = 013D;
},
{
glyphname = Lslash;
lastChange = "2018-02-07 10:31:24 +0000";
layers = (
{
components = (
{
name = L;
}
);
layerId = UUID0;
paths = (
{
closed = 1;
nodes = (
"20 298 LINE",
"20 253 LINE",
"225 367 LINE",
"225 412 LINE"
);
}
);
width = 339;
},
{
components = (
{
name = L;
transform = "{1, 0, 0, 1, 10, 0}";
}
);
layerId = "13BA1341-7400-426C-964F-62F99446C2B7";
paths = (
{
closed = 1;
nodes = (
"0 341 LINE",
"0 241 LINE",
"293 361 LINE",
"293 461 LINE"
);
}
);
width = 389;
}
);
unicode = 0141;
},
{
glyphname = M;
lastChange = "2018-02-07 10:31:24 +0000";
layers = (
{
layerId = UUID0;
paths = (
{
closed = 1;
nodes = (
"459 666 LINE",
"300 227 LINE",
"141 666 LINE",
"75 666 LINE",
"75 0 LINE",
"122 0 LINE",
"122 385 LINE",
"122 488 OFFCURVE",
"118 582 OFFCURVE",
"118 582 CURVE",
"268 180 LINE",
"332 180 LINE",
"481 582 LINE",
"481 582 OFFCURVE",
"478 501 OFFCURVE",
"478 384 CURVE",
"478 0 LINE",
"526 0 LINE",
"526 666 LINE"
);
}
);
width = 601;
},
{
layerId = "13BA1341-7400-426C-964F-62F99446C2B7";
paths = (
{
closed = 1;
nodes = (
"449 693 LINE",
"324 339 LINE",
"199 693 LINE",
"45 693 LINE",
"45 0 LINE",
"189 0 LINE",
"189 241 LINE SMOOTH",
"189 353 OFFCURVE",
"170 446 OFFCURVE",
"170 446 CURVE",
"266 176 LINE",
"382 176 LINE",
"478 446 LINE",
"478 446 OFFCURVE",
"459 353 OFFCURVE",
"459 241 CURVE",
"459 0 LINE",
"604 0 LINE",
"604 693 LINE"
);
}
);
width = 649;
}
);
unicode = 004D;
},
{
glyphname = N;
lastChange = "2018-02-07 10:31:24 +0000";
layers = (
{
layerId = UUID0;
paths = (
{
closed = 1;
nodes = (
"366 666 LINE",
"366 286 LINE",
"367 219 OFFCURVE",
"367 151 OFFCURVE",
"368 84 CURVE",
"342 152 OFFCURVE",
"315 219 OFFCURVE",
"289 287 CURVE",
"140 666 LINE",
"75 666 LINE",
"75 0 LINE",
"124 0 LINE",
"124 378 LINE",
"123 445 OFFCURVE",
"123 513 OFFCURVE",
"122 580 CURVE",
"148 512 OFFCURVE",
"175 445 OFFCURVE",
"201 377 CURVE",
"350 0 LINE",
"416 0 LINE",
"416 666 LINE"
);
}
);
width = 491;
},
{
layerId = "13BA1341-7400-426C-964F-62F99446C2B7";
paths = (
{
closed = 1;
nodes = (
"339 693 LINE",
"339 519 LINE SMOOTH",
"339 316 OFFCURVE",
"364 227 OFFCURVE",
"364 227 CURVE",
"364 227 OFFCURVE",
"345 305 OFFCURVE",
"284 461 CURVE SMOOTH",
"193 693 LINE",
"45 693 LINE",
"45 0 LINE",
"193 0 LINE",
"193 184 LINE SMOOTH",
"193 387 OFFCURVE",
"168 472 OFFCURVE",
"168 472 CURVE",
"168 472 OFFCURVE",
"189 394 OFFCURVE",
"250 238 CURVE SMOOTH",
"343 0 LINE",
"487 0 LINE",
"487 693 LINE"
);
}
);
width = 532;
}
);
unicode = 004E;
},
{
glyphname = O;
lastChange = "2018-02-07 10:31:24 +0000";
layers = (
{
layerId = UUID0;
paths = (
{
closed = 1;
nodes = (
"65 143 LINE SMOOTH",
"65 57 OFFCURVE",
"114 -10 OFFCURVE",
"224 -10 CURVE SMOOTH",
"334 -10 OFFCURVE",
"383 57 OFFCURVE",
"383 143 CURVE SMOOTH",
"383 523 LINE SMOOTH",
"383 609 OFFCURVE",
"334 676 OFFCURVE",
"224 676 CURVE SMOOTH",
"114 676 OFFCURVE",
"65 609 OFFCURVE",
"65 523 CURVE SMOOTH"
);
},
{
closed = 1;
nodes = (
"333 143 LINE SMOOTH",
"333 79 OFFCURVE",
"303 35 OFFCURVE",
"224 35 CURVE SMOOTH",
"145 35 OFFCURVE",
"115 79 OFFCURVE",
"115 143 CURVE SMOOTH",
"115 523 LINE SMOOTH",
"115 587 OFFCURVE",
"145 631 OFFCURVE",
"224 631 CURVE SMOOTH",
"303 631 OFFCURVE",
"333 587 OFFCURVE",
"333 523 CURVE SMOOTH"
);
}
);
width = 448;
},
{
layerId = "13BA1341-7400-426C-964F-62F99446C2B7";
paths = (
{
closed = 1;
nodes = (
"35 169 LINE SMOOTH",
"35 63 OFFCURVE",
"103 -10 OFFCURVE",
"244 -10 CURVE SMOOTH",
"385 -10 OFFCURVE",
"454 63 OFFCURVE",
"454 169 CURVE SMOOTH",
"454 524 LINE",
"454 630 OFFCURVE",
"385 703 OFFCURVE",
"244 703 CURVE SMOOTH",
"103 703 OFFCURVE",
"35 630 OFFCURVE",
"35 524 CURVE SMOOTH"
);
},
{
closed = 1;
nodes = (
"304 177 LINE SMOOTH",
"304 146 OFFCURVE",
"286 127 OFFCURVE",
"244 127 CURVE SMOOTH",
"202 127 OFFCURVE",
"185 147 OFFCURVE",
"185 177 CURVE SMOOTH",
"185 516 LINE",
"185 547 OFFCURVE",
"202 566 OFFCURVE",
"244 566 CURVE SMOOTH",
"286 566 OFFCURVE",
"304 546 OFFCURVE",
"304 516 CURVE SMOOTH"
);
}
);
width = 489;
}
);
unicode = 004F;
},
{
glyphname = hungarumlaut;
lastChange = "2018-02-07 10:31:24 +0000";
layers = (
{
layerId = UUID0;
paths = (
{
closed = 1;
nodes = (
"205 713 LINE",
"168 608 LINE",
"203 608 LINE",
"258 713 LINE"
);
},
{
closed = 1;
nodes = (
"128 713 LINE",
"91 608 LINE",
"126 608 LINE",
"181 713 LINE"
);
}
);
width = 350;
},
{
layerId = "13BA1341-7400-426C-964F-62F99446C2B7";
paths = (
{
closed = 1;
nodes = (
"209 747 LINE",
"160 632 LINE",
"229 632 LINE",
"309 747 LINE"
);
},
{
closed = 1;
nodes = (
"89 747 LINE",
"40 632 LINE",
"109 632 LINE",
"189 747 LINE"
);
}
);
width = 350;
}
);
unicode = 02DD;
},
{
glyphname = Oslash;
lastChange = "2018-02-07 10:31:24 +0000";
layers = (
{
components = (
{
name = O;
}
);
layerId = UUID0;
paths = (
{
closed = 1;
nodes = (
"339 666 LINE",
"65 0 LINE",
"109 0 LINE",
"383 666 LINE"
);
}
);
width = 448;
},
{
components = (
{
name = O;
}
);
layerId = "13BA1341-7400-426C-964F-62F99446C2B7";
paths = (
{
closed = 1;
nodes = (
"369 693 LINE",
"30 0 LINE",
"120 0 LINE",
"459 693 LINE"
);
}
);
width = 489;
}
);
unicode = 00D8;
},
{
glyphname = OE;
lastChange = "2018-02-07 10:31:24 +0000";
layers = (
{
components = (
{
name = E;
transform = "{1, 0, 0, 1, 278, 0}";
}
);
layerId = UUID0;
paths = (
{
closed = 1;
nodes = (
"244 666 LINE",
"134 666 OFFCURVE",
"85 602 OFFCURVE",
"85 516 CURVE SMOOTH",
"85 150 LINE SMOOTH",
"85 64 OFFCURVE",
"134 0 OFFCURVE",
"244 0 CURVE SMOOTH",
"363 0 LINE",
"363 45 LINE",
"244 45 LINE SMOOTH",
"165 45 OFFCURVE",
"135 86 OFFCURVE",
"135 150 CURVE SMOOTH",
"135 516 LINE SMOOTH",
"135 580 OFFCURVE",
"165 621 OFFCURVE",
"244 621 CURVE SMOOTH",
"373 621 LINE",
"373 666 LINE"
);
}
);
width = 659;
},
{
components = (
{
name = E;
transform = "{1, 0, 0, 1, 289, 0}";
}
);
layerId = "13BA1341-7400-426C-964F-62F99446C2B7";
paths = (
{
closed = 1;
nodes = (
"225 693 LINE",
"119 693 OFFCURVE",
"55 642 OFFCURVE",
"55 539 CURVE SMOOTH",
"55 163 LINE SMOOTH",
"55 61 OFFCURVE",
"101 0 OFFCURVE",
"216 0 CURVE SMOOTH",
"381 0 LINE",
"381 129 LINE",
"246 129 LINE SMOOTH",
"211 129 OFFCURVE",
"205 151 OFFCURVE",
"205 175 CURVE SMOOTH",
"205 533 LINE SMOOTH",
"205 553 OFFCURVE",
"211 570 OFFCURVE",
"246 570 CURVE SMOOTH",
"391 570 LINE",
"391 693 LINE"
);
}
);
width = 712;
}
);
unicode = 0152;
},
{
glyphname = P;
lastChange = "2018-02-07 10:31:24 +0000";
layers = (
{
layerId = UUID0;
paths = (
{
closed = 1;
nodes = (
"75 666 LINE",
"75 0 LINE",
"125 0 LINE",
"125 239 LINE",
"222 239 LINE SMOOTH",
"332 239 OFFCURVE",
"381 303 OFFCURVE",
"381 389 CURVE SMOOTH",
"381 516 LINE SMOOTH",
"381 602 OFFCURVE",
"332 666 OFFCURVE",
"222 666 CURVE SMOOTH"
);
},
{
closed = 1;
nodes = (
"331 389 LINE SMOOTH",
"331 325 OFFCURVE",
"301 284 OFFCURVE",
"222 284 CURVE SMOOTH",
"125 284 LINE",
"125 621 LINE",
"222 621 LINE SMOOTH",
"301 621 OFFCURVE",
"331 580 OFFCURVE",
"331 516 CURVE SMOOTH"
);
}
);
width = 431;
},
{
layerId = "13BA1341-7400-426C-964F-62F99446C2B7";
paths = (
{
closed = 1;
nodes = (
"45 693 LINE",
"45 0 LINE",
"196 0 LINE",
"196 200 LINE",
"271 200 LINE SMOOTH",
"377 200 OFFCURVE",
"445 251 OFFCURVE",
"445 354 CURVE",
"445 539 LINE SMOOTH",
"445 642 OFFCURVE",
"377 693 OFFCURVE",
"271 693 CURVE SMOOTH"
);
},
{
closed = 1;
nodes = (
"295 372 LINE SMOOTH",
"295 342 OFFCURVE",
"282 330 OFFCURVE",
"252 330 CURVE SMOOTH",
"196 330 LINE",
"196 563 LINE",
"252 563 LINE SMOOTH",
"282 563 OFFCURVE",
"295 551 OFFCURVE",
"295 521 CURVE SMOOTH"
);
}
);
width = 470;
}
);
unicode = 0050;
},
{
glyphname = Thorn;
lastChange = "2018-02-07 10:31:24 +0000";
layers = (
{
layerId = UUID0;
paths = (
{
closed = 1;
nodes = (
"119 540 LINE",
"119 495 LINE",
"232 495 LINE SMOOTH",
"311 495 OFFCURVE",
"341 454 OFFCURVE",
"341 390 CURVE SMOOTH",
"341 276 LINE SMOOTH",
"341 212 OFFCURVE",
"311 173 OFFCURVE",
"232 173 CURVE SMOOTH",
"124 173 LINE",
"124 126 LINE",
"232 126 LINE SMOOTH",
"342 126 OFFCURVE",
"391 190 OFFCURVE",
"391 276 CURVE SMOOTH",
"391 390 LINE SMOOTH",
"391 476 OFFCURVE",
"342 540 OFFCURVE",
"232 540 CURVE SMOOTH"
);
},
{
closed = 1;
nodes = (
"85 666 LINE",
"85 0 LINE",
"135 0 LINE",
"135 666 LINE"
);
}
);
width = 423;
},
{
layerId = "13BA1341-7400-426C-964F-62F99446C2B7";
paths = (
{
closed = 1;
nodes = (
"179 590 LINE",
"179 462 LINE",
"256 462 LINE SMOOTH",
"286 462 OFFCURVE",
"299 450 OFFCURVE",
"299 420 CURVE",
"299 274 LINE SMOOTH",
"299 244 OFFCURVE",
"286 232 OFFCURVE",
"256 232 CURVE SMOOTH",
"179 232 LINE",
"179 104 LINE",
"269 104 LINE SMOOTH",
"375 104 OFFCURVE",
"443 155 OFFCURVE",
"443 258 CURVE SMOOTH",
"443 436 LINE SMOOTH",
"443 539 OFFCURVE",
"375 590 OFFCURVE",
"269 590 CURVE SMOOTH"
);
},
{
closed = 1;
nodes = (
"55 693 LINE",
"55 0 LINE",
"199 0 LINE",
"199 693 LINE"
);
}
);
width = 453;
}
);
unicode = 00DE;
},
{
glyphname = Q;
lastChange = "2018-02-07 10:31:24 +0000";
layers = (
{
components = (
{
name = O;
}
);
layerId = UUID0;
paths = (
{
closed = 1;
nodes = (
"239 35 LINE",
"362 -104 LINE",
"427 -104 LINE",
"303 35 LINE"
);
}
);
width = 448;
},
{
components = (
{
name = O;
}
);
layerId = "13BA1341-7400-426C-964F-62F99446C2B7";
paths = (
{
closed = 1;
nodes = (
"131 121 LINE",
"331 -87 LINE",
"508 -87 LINE",
"306 121 LINE"
);
}
);
width = 489;
}
);
unicode = 0051;
},
{
glyphname = R;
lastChange = "2018-02-07 10:31:24 +0000";
layers = (
{
layerId = UUID0;
paths = (
{
closed = 1;
nodes = (
"75 666 LINE",
"75 0 LINE",
"125 0 LINE",
"125 275 LINE",
"222 275 LINE SMOOTH",
"332 275 OFFCURVE",
"381 339 OFFCURVE",
"381 425 CURVE SMOOTH",
"381 516 LINE SMOOTH",
"381 602 OFFCURVE",
"332 666 OFFCURVE",
"222 666 CURVE SMOOTH"
);
},
{
closed = 1;
nodes = (
"238 297 LINE",
"345 0 LINE",
"400 0 LINE",
"291 297 LINE"
);
},
{
closed = 1;
nodes = (
"331 425 LINE SMOOTH",
"331 361 OFFCURVE",
"301 322 OFFCURVE",
"222 322 CURVE SMOOTH",
"125 322 LINE",
"125 621 LINE",
"222 621 LINE SMOOTH",
"301 621 OFFCURVE",
"331 580 OFFCURVE",
"331 516 CURVE SMOOTH"
);
}
);
width = 450;
},
{
layerId = "13BA1341-7400-426C-964F-62F99446C2B7";
paths = (
{
closed = 1;
nodes = (
"45 693 LINE",
"45 0 LINE",
"195 0 LINE",
"195 250 LINE",
"285 250 LINE SMOOTH",
"399 250 OFFCURVE",
"445 304 OFFCURVE",
"445 412 CURVE SMOOTH",
"445 540 LINE SMOOTH",
"445 643 OFFCURVE",
"377 693 OFFCURVE",
"271 693 CURVE SMOOTH"
);
},
{
closed = 1;
nodes = (
"198 293 LINE",
"307 0 LINE",
"472 0 LINE",
"350 293 LINE"
);
},
{
closed = 1;
nodes = (
"295 414 LINE SMOOTH",
"295 380 OFFCURVE",
"284 369 OFFCURVE",
"254 369 CURVE SMOOTH",
"195 369 LINE",
"195 565 LINE",
"254 565 LINE SMOOTH",
"280 565 OFFCURVE",
"295 558 OFFCURVE",
"295 527 CURVE SMOOTH"
);
}
);
width = 482;
}
);
unicode = 0052;
},
{
glyphname = S;
lastChange = "2018-02-07 10:31:24 +0000";
layers = (
{
layerId = UUID0;
paths = (
{
closed = 1;
nodes = (
"30 479 LINE SMOOTH",
"30 412 OFFCURVE",
"59 372 OFFCURVE",
"114 342 CURVE SMOOTH",
"231 278 LINE",
"275 254 OFFCURVE",
"289 230 OFFCURVE",
"289 183 CURVE SMOOTH",
"289 134 LINE SMOOTH",
"289 80 OFFCURVE",
"255 41 OFFCURVE",
"163 41 CURVE SMOOTH",
"115 41 OFFCURVE",
"65 51 OFFCURVE",
"34 62 CURVE",
"34 14 LINE",
"62 4 OFFCURVE",
"112 -5 OFFCURVE",
"163 -5 CURVE SMOOTH",
"284 -5 OFFCURVE",
"339 48 OFFCURVE",
"339 134 CURVE SMOOTH",
"339 186 LINE",
"339 248 OFFCURVE",
"313 288 OFFCURVE",
"258 318 CURVE SMOOTH",
"141 383 LINE SMOOTH",
"99 406 OFFCURVE",
"80 433 OFFCURVE",
"80 482 CURVE SMOOTH",
"80 539 LINE SMOOTH",
"80 596 OFFCURVE",
"118 625 OFFCURVE",
"192 625 CURVE SMOOTH",
"240 625 OFFCURVE",
"288 618 OFFCURVE",
"316 608 CURVE",
"316 656 LINE",
"288 664 OFFCURVE",
"243 671 OFFCURVE",
"192 671 CURVE SMOOTH",
"84 671 OFFCURVE",
"30 619 OFFCURVE",
"30 537 CURVE SMOOTH"
);
}
);
width = 374;
},
{
layerId = "13BA1341-7400-426C-964F-62F99446C2B7";
paths = (
{
closed = 1;
nodes = (
"20 468 LINE SMOOTH",
"20 393 OFFCURVE",
"60 348 OFFCURVE",
"117 316 CURVE",
"224 258 LINE SMOOTH",
"258 240 OFFCURVE",
"269 229 OFFCURVE",
"269 198 CURVE SMOOTH",
"269 183 LINE SMOOTH",
"269 155 OFFCURVE",
"245 134 OFFCURVE",
"182 134 CURVE SMOOTH",
"121 134 OFFCURVE",
"64 148 OFFCURVE",
"29 163 CURVE",
"29 18 LINE",
"48 10 OFFCURVE",
"110 -5 OFFCURVE",
"184 -5 CURVE SMOOTH",
"342 -5 OFFCURVE",
"421 57 OFFCURVE",
"421 163 CURVE SMOOTH",
"421 225 LINE SMOOTH",
"421 292 OFFCURVE",
"392 331 OFFCURVE",
"339 360 CURVE SMOOTH",
"225 424 LINE SMOOTH",
"183 447 OFFCURVE",
"174 459 OFFCURVE",
"174 496 CURVE",
"174 511 LINE SMOOTH",
"174 537 OFFCURVE",
"184 559 OFFCURVE",
"242 559 CURVE SMOOTH",
"303 559 OFFCURVE",
"346 548 OFFCURVE",
"381 533 CURVE",
"381 677 LINE",
"362 685 OFFCURVE",
"313 698 OFFCURVE",
"239 698 CURVE SMOOTH",
"87 698 OFFCURVE",
"20 634 OFFCURVE",
"20 531 CURVE SMOOTH"
);
}
);
width = 439;
}
);
unicode = 0053;
},
{
glyphname = T;
lastChange = "2018-02-07 10:31:24 +0000";
layers = (
{
layerId = UUID0;
paths = (
{
closed = 1;
nodes = (
"142 666 LINE",
"142 0 LINE",
"192 0 LINE",
"192 666 LINE"
);
},
{
closed = 1;
nodes = (
"10 666 LINE",
"10 621 LINE",
"324 621 LINE",
"324 666 LINE"
);
}
);
width = 334;
},
{
layerId = "13BA1341-7400-426C-964F-62F99446C2B7";
paths = (
{
closed = 1;
nodes = (
"130 693 LINE",
"130 0 LINE",
"282 0 LINE",
"282 693 LINE"
);
},
{
closed = 1;
nodes = (
"5 693 LINE",
"5 563 LINE",
"407 563 LINE",
"407 693 LINE"
);
}
);
width = 412;
}
);
unicode = 0054;
},
{
glyphname = U;
lastChange = "2018-02-07 10:31:24 +0000";
layers = (
{
layerId = UUID0;
paths = (
{
closed = 1;
nodes = (
"338 666 LINE",
"338 143 LINE SMOOTH",
"338 79 OFFCURVE",
"308 35 OFFCURVE",
"229 35 CURVE SMOOTH",
"150 35 OFFCURVE",
"120 79 OFFCURVE",
"120 143 CURVE SMOOTH",
"120 666 LINE",
"70 666 LINE",
"70 143 LINE SMOOTH",
"70 57 OFFCURVE",
"119 -10 OFFCURVE",
"229 -10 CURVE SMOOTH",
"339 -10 OFFCURVE",
"388 57 OFFCURVE",
"388 143 CURVE SMOOTH",
"388 666 LINE"
);
}
);
width = 458;
},
{
layerId = "13BA1341-7400-426C-964F-62F99446C2B7";
paths = (
{
closed = 1;
nodes = (
"305 693 LINE",
"305 177 LINE SMOOTH",
"305 146 OFFCURVE",
"289 127 OFFCURVE",
"247 127 CURVE SMOOTH",
"205 127 OFFCURVE",
"190 147 OFFCURVE",
"190 177 CURVE SMOOTH",
"190 693 LINE",
"40 693 LINE",
"40 169 LINE SMOOTH",
"40 63 OFFCURVE",
"106 -10 OFFCURVE",
"247 -10 CURVE SMOOTH",
"388 -10 OFFCURVE",
"455 63 OFFCURVE",
"455 169 CURVE SMOOTH",
"455 693 LINE"
);
}
);
width = 495;
}
);
unicode = 0055;
},
{
glyphname = V;
lastChange = "2018-02-07 10:31:24 +0000";
layers = (
{
layerId = UUID0;
paths = (
{
closed = 1;
nodes = (
"335 666 LINE",
"259 323 LINE",
"240 233 OFFCURVE",
"220 143 OFFCURVE",
"201 53 CURVE",
"182 143 OFFCURVE",
"162 232 OFFCURVE",
"143 322 CURVE",
"67 666 LINE",
"15 666 LINE",
"165 0 LINE",
"237 0 LINE",
"387 666 LINE"
);
}
);
width = 402;
},
{
layerId = "13BA1341-7400-426C-964F-62F99446C2B7";
paths = (
{
closed = 1;
nodes = (
"324 693 LINE",
"278 398 LINE",
"264 309 OFFCURVE",
"245 130 OFFCURVE",
"245 130 CURVE",
"245 130 OFFCURVE",
"225 308 OFFCURVE",
"209 400 CURVE SMOOTH",
"158 693 LINE",
"5 693 LINE",
"139 0 LINE",
"348 0 LINE",
"480 693 LINE"
);
}
);
width = 485;
}
);
unicode = 0056;
},
{
glyphname = W;
lastChange = "2018-02-07 10:31:24 +0000";
layers = (
{
layerId = UUID0;
paths = (
{
closed = 1;
nodes = (
"536 666 LINE",
"462 220 LINE SMOOTH",
"451 152 OFFCURVE",
"436 45 OFFCURVE",
"436 45 CURVE",
"436 45 OFFCURVE",
"421 152 OFFCURVE",
"410 220 CURVE SMOOTH",
"336 666 LINE",
"277 666 LINE",
"203 221 LINE SMOOTH",
"188 133 OFFCURVE",
"177 45 OFFCURVE",
"177 45 CURVE",
"177 45 OFFCURVE",
"165 134 OFFCURVE",
"151 220 CURVE SMOOTH",
"77 666 LINE",
"25 666 LINE",
"141 0 LINE",
"213 0 LINE",
"274 352 LINE SMOOTH",
"296 478 OFFCURVE",
"306 587 OFFCURVE",
"306 587 CURVE",
"306 587 OFFCURVE",
"316 482 OFFCURVE",
"339 351 CURVE SMOOTH",
"400 0 LINE",
"472 0 LINE",
"588 666 LINE"
);
}
);
width = 613;
},
{
layerId = "13BA1341-7400-426C-964F-62F99446C2B7";
paths = (
{
closed = 1;
nodes = (
"459 693 LINE",
"426 465 LINE SMOOTH",
"414 381 OFFCURVE",
"409 281 OFFCURVE",
"409 281 CURVE",
"409 281 OFFCURVE",
"398 381 OFFCURVE",
"388 465 CURVE SMOOTH",
"362 693 LINE",
"235 693 LINE",
"207 465 LINE SMOOTH",
"196 372 OFFCURVE",
"185 274 OFFCURVE",
"185 274 CURVE",
"185 274 OFFCURVE",
"181 372 OFFCURVE",
"168 465 CURVE",
"136 693 LINE",
"5 693 LINE",
"94 0 LINE",
"237 0 LINE",
"279 274 LINE SMOOTH",
"291 354 OFFCURVE",
"299 465 OFFCURVE",
"299 465 CURVE",
"299 465 OFFCURVE",
"309 354 OFFCURVE",
"321 274 CURVE SMOOTH",
"362 0 LINE",
"496 0 LINE",
"588 693 LINE"
);
}
);
width = 593;
}
);
unicode = 0057;
},
{
glyphname = X;
lastChange = "2018-02-07 10:31:24 +0000";
layers = (
{
layerId = UUID0;
paths = (
{
closed = 1;
nodes = (
"302 666 LINE",
"186 393 LINE",
"70 666 LINE",
"15 666 LINE",
"160 333 LINE",
"15 0 LINE",
"70 0 LINE",
"186 272 LINE",
"302 0 LINE",
"357 0 LINE",
"211 333 LINE",
"357 666 LINE"
);
}
);
width = 372;
},
{
layerId = "13BA1341-7400-426C-964F-62F99446C2B7";
paths = (
{
closed = 1;
nodes = (
"301 693 LINE",
"236 502 LINE",
"167 693 LINE",
"5 693 LINE",
"153 345 LINE",
"5 0 LINE",
"168 0 LINE",
"236 189 LINE",
"300 0 LINE",
"463 0 LINE",
"314 345 LINE",
"463 693 LINE"
);
}
);
width = 468;
}
);
unicode = 0058;
},
{
glyphname = Y;
lastChange = "2018-02-07 10:31:24 +0000";
layers = (
{
layerId = UUID0;
paths = (
{
closed = 1;
nodes = (
"333 666 LINE",
"257 462 LINE",
"237 406 OFFCURVE",
"216 350 OFFCURVE",
"196 294 CURVE",
"175 350 OFFCURVE",
"155 407 OFFCURVE",
"134 463 CURVE",
"57 666 LINE",
"5 666 LINE",
"170 230 LINE",
"170 0 LINE",
"220 0 LINE",
"220 230 LINE",
"385 666 LINE"
);
}
);
width = 390;
},
{
layerId = "13BA1341-7400-426C-964F-62F99446C2B7";
paths = (
{
closed = 1;
nodes = (
"332 693 LINE",
"300 590 LINE SMOOTH",
"267 483 OFFCURVE",
"254 426 OFFCURVE",
"243 370 CURVE",
"233 426 OFFCURVE",
"221 481 OFFCURVE",
"187 588 CURVE",
"154 693 LINE",
"0 693 LINE",
"165 215 LINE",
"165 0 LINE",
"317 0 LINE",
"317 215 LINE",
"482 693 LINE"
);
}
);
width = 482;
}
);
unicode = 0059;
},
{
glyphname = Z;
lastChange = "2018-02-07 10:31:24 +0000";
layers = (
{
layerId = UUID0;
paths = (
{
closed = 1;
nodes = (
"36 666 LINE",
"36 621 LINE",
"288 621 LINE",
"30 45 LINE",
"30 0 LINE",
"335 0 LINE",
"335 45 LINE",
"83 45 LINE",
"341 621 LINE",
"341 666 LINE"
);
}
);
width = 371;
},
{
layerId = "13BA1341-7400-426C-964F-62F99446C2B7";
paths = (
{
closed = 1;
nodes = (
"24 693 LINE",
"24 566 LINE",
"238 566 LINE",
"20 127 LINE",
"20 0 LINE",
"405 0 LINE",
"405 127 LINE",
"177 127 LINE",
"401 572 LINE",
"401 693 LINE"
);
}
);
width = 425;
}
);
unicode = 005A;
},
{
glyphname = Gcommaaccent;
lastChange = "2018-02-07 10:31:24 +0000";
layers = (
{
layerId = UUID0;
paths = (
{
closed = 1;
nodes = (
"65 130 LINE SMOOTH",
"65 28 OFFCURVE",
"136 -5 OFFCURVE",
"218 -5 CURVE SMOOTH",
"306 -5 OFFCURVE",
"346 18 OFFCURVE",
"373 34 CURVE",
"373 319 LINE",
"323 319 LINE",
"323 64 LINE",
"313 57 OFFCURVE",
"274 40 OFFCURVE",
"218 40 CURVE SMOOTH",
"155 40 OFFCURVE",
"115 64 OFFCURVE",
"115 130 CURVE SMOOTH",
"115 530 LINE SMOOTH",
"115 590 OFFCURVE",
"145 625 OFFCURVE",
"240 625 CURVE SMOOTH",
"285 625 OFFCURVE",
"324 616 OFFCURVE",
"355 606 CURVE",
"355 655 LINE",
"327 663 OFFCURVE",
"285 671 OFFCURVE",
"239 671 CURVE SMOOTH",
"112 671 OFFCURVE",
"65 614 OFFCURVE",
"65 530 CURVE SMOOTH"
);
},
{
closed = 1;
nodes = (
"212 -61 LINE",
"185 -174 LINE",
"216 -174 LINE",
"229 -154 OFFCURVE",
"260 -104 OFFCURVE",
"260 -85 CURVE SMOOTH",
"260 -68 OFFCURVE",
"248 -61 OFFCURVE",
"235 -61 CURVE SMOOTH"
);
}
);
width = 443;
},
{
layerId = "13BA1341-7400-426C-964F-62F99446C2B7";
paths = (
{
closed = 1;
nodes = (
"35 163 LINE SMOOTH",
"35 59 OFFCURVE",
"105 -5 OFFCURVE",
"258 -5 CURVE SMOOTH",
"352 -5 OFFCURVE",
"399 16 OFFCURVE",
"438 37 CURVE",
"438 372 LINE",
"292 372 LINE",
"292 138 LINE",
"284 134 OFFCURVE",
"269 130 OFFCURVE",
"256 130 CURVE SMOOTH",
"200 130 OFFCURVE",
"187 150 OFFCURVE",
"187 179 CURVE SMOOTH",
"187 508 LINE SMOOTH",
"187 538 OFFCURVE",
"213 560 OFFCURVE",
"270 560 CURVE SMOOTH",
"322 560 OFFCURVE",
"375 550 OFFCURVE",
"409 537 CURVE",
"409 679 LINE",
"382 688 OFFCURVE",
"326 698 OFFCURVE",
"268 698 CURVE SMOOTH",
"115 698 OFFCURVE",
"35 629 OFFCURVE",
"35 526 CURVE SMOOTH"
);
},
{
closed = 1;
nodes = (
"225 -61 LINE",
"200 -216 LINE",
"248 -216 LINE",
"266 -193 OFFCURVE",
"306 -130 OFFCURVE",
"306 -93 CURVE SMOOTH",
"306 -73 OFFCURVE",
"296 -61 OFFCURVE",
"271 -61 CURVE SMOOTH"
);
}
);
width = 468;
}
);
unicode = 0122;
},
{
glyphname = Kcommaaccent;
lastChange = "2018-02-07 10:31:24 +0000";
layers = (
{
layerId = UUID0;
paths = (
{
closed = 1;
nodes = (
"337 666 LINE",
"192 330 LINE",
"343 0 LINE",
"399 0 LINE",
"247 332 LINE",
"392 666 LINE"
);
},
{
closed = 1;
nodes = (
"75 666 LINE",
"75 0 LINE",
"125 0 LINE",
"125 666 LINE"
);
},
{
closed = 1;
nodes = (
"203 -61 LINE",
"176 -174 LINE",
"207 -174 LINE",
"220 -154 OFFCURVE",
"251 -104 OFFCURVE",
"251 -85 CURVE SMOOTH",
"251 -68 OFFCURVE",
"239 -61 OFFCURVE",
"226 -61 CURVE SMOOTH"
);
}
);
width = 419;
},
{
layerId = "13BA1341-7400-426C-964F-62F99446C2B7";
paths = (
{
closed = 1;
nodes = (
"309 693 LINE",
"186 356 LINE",
"314 0 LINE",
"481 0 LINE",
"342 358 LINE",
"469 693 LINE"
);
},
{
closed = 1;
nodes = (
"45 693 LINE",
"45 0 LINE",
"195 0 LINE",
"195 693 LINE"
);
},
{
closed = 1;
nodes = (
"222 -61 LINE",
"197 -216 LINE",
"245 -216 LINE",
"263 -193 OFFCURVE",
"303 -130 OFFCURVE",
"303 -93 CURVE SMOOTH",
"303 -73 OFFCURVE",
"293 -61 OFFCURVE",
"268 -61 CURVE SMOOTH"
);
}
);
width = 486;
}
);
unicode = 0136;
},
{
glyphname = Lcommaaccent;
lastChange = "2018-02-07 10:31:24 +0000";
layers = (
{
layerId = UUID0;
paths = (
{
closed = 1;
nodes = (
"75 666 LINE",
"75 0 LINE",
"334 0 LINE",
"334 45 LINE",
"125 45 LINE",
"125 666 LINE"
);
},
{
closed = 1;
nodes = (
"183 -61 LINE",
"156 -174 LINE",
"187 -174 LINE",
"200 -154 OFFCURVE",
"231 -104 OFFCURVE",
"231 -85 CURVE SMOOTH",
"231 -68 OFFCURVE",
"219 -61 OFFCURVE",
"206 -61 CURVE SMOOTH"
);
}
);
width = 339;
},
{
layerId = "13BA1341-7400-426C-964F-62F99446C2B7";
paths = (
{
closed = 1;
nodes = (
"45 693 LINE",
"45 0 LINE",
"382 0 LINE",
"382 126 LINE",
"197 126 LINE",
"197 693 LINE"
);
},
{
closed = 1;
nodes = (
"167 -61 LINE",
"142 -216 LINE",
"190 -216 LINE",
"208 -193 OFFCURVE",
"248 -130 OFFCURVE",
"248 -93 CURVE SMOOTH",
"248 -73 OFFCURVE",
"238 -61 OFFCURVE",
"213 -61 CURVE SMOOTH"
);
}
);
width = 387;
}
);
unicode = 013B;
},
{
glyphname = Ncommaaccent;
lastChange = "2018-02-07 10:31:24 +0000";
layers = (
{
layerId = UUID0;
paths = (
{
closed = 1;
nodes = (
"366 666 LINE",
"366 286 LINE",
"367 219 OFFCURVE",
"367 151 OFFCURVE",
"368 84 CURVE",
"342 152 OFFCURVE",
"315 219 OFFCURVE",
"289 287 CURVE",
"140 666 LINE",
"75 666 LINE",
"75 0 LINE",
"124 0 LINE",
"124 378 LINE",
"123 445 OFFCURVE",
"123 513 OFFCURVE",
"122 580 CURVE",
"148 512 OFFCURVE",
"175 445 OFFCURVE",
"201 377 CURVE",
"350 0 LINE",
"416 0 LINE",
"416 666 LINE"
);
},
{
closed = 1;
nodes = (
"211 -61 LINE",
"184 -174 LINE",
"215 -174 LINE",
"228 -154 OFFCURVE",
"259 -104 OFFCURVE",
"259 -85 CURVE SMOOTH",
"259 -68 OFFCURVE",
"247 -61 OFFCURVE",
"234 -61 CURVE SMOOTH"
);
}
);
width = 491;
},
{
layerId = "13BA1341-7400-426C-964F-62F99446C2B7";
paths = (
{
closed = 1;
nodes = (
"339 693 LINE",
"339 519 LINE SMOOTH",
"339 316 OFFCURVE",
"364 227 OFFCURVE",
"364 227 CURVE",
"364 227 OFFCURVE",
"345 305 OFFCURVE",
"284 461 CURVE SMOOTH",
"193 693 LINE",
"45 693 LINE",
"45 0 LINE",
"193 0 LINE",
"193 184 LINE SMOOTH",
"193 387 OFFCURVE",
"168 472 OFFCURVE",
"168 472 CURVE",
"168 472 OFFCURVE",
"189 394 OFFCURVE",
"250 238 CURVE SMOOTH",
"343 0 LINE",
"487 0 LINE",
"487 693 LINE"
);
},
{
closed = 1;
nodes = (
"224 -61 LINE",
"199 -216 LINE",
"247 -216 LINE",
"265 -193 OFFCURVE",
"305 -130 OFFCURVE",
"305 -93 CURVE SMOOTH",
"305 -73 OFFCURVE",
"295 -61 OFFCURVE",
"270 -61 CURVE SMOOTH"
);
}
);
width = 532;
}
);
unicode = 0145;
},
{
glyphname = Rcommaaccent;
lastChange = "2018-02-07 10:31:24 +0000";
layers = (
{
layerId = UUID0;
paths = (
{
closed = 1;
nodes = (
"75 666 LINE",
"75 0 LINE",
"125 0 LINE",
"125 275 LINE",
"222 275 LINE SMOOTH",
"332 275 OFFCURVE",
"381 339 OFFCURVE",
"381 425 CURVE SMOOTH",
"381 516 LINE SMOOTH",
"381 602 OFFCURVE",
"332 666 OFFCURVE",
"222 666 CURVE SMOOTH"
);
},
{
closed = 1;
nodes = (
"238 297 LINE",
"345 0 LINE",
"400 0 LINE",
"291 297 LINE"
);
},
{
closed = 1;
nodes = (
"331 425 LINE SMOOTH",
"331 361 OFFCURVE",
"301 322 OFFCURVE",
"222 322 CURVE SMOOTH",
"125 322 LINE",
"125 621 LINE",
"222 621 LINE SMOOTH",
"301 621 OFFCURVE",
"331 580 OFFCURVE",
"331 516 CURVE SMOOTH"
);
},
{
closed = 1;
nodes = (
"200 -61 LINE",
"173 -174 LINE",
"204 -174 LINE",
"217 -154 OFFCURVE",
"248 -104 OFFCURVE",
"248 -85 CURVE SMOOTH",
"248 -68 OFFCURVE",
"236 -61 OFFCURVE",
"223 -61 CURVE SMOOTH"
);
}
);
width = 450;
},
{
layerId = "13BA1341-7400-426C-964F-62F99446C2B7";
paths = (
{
closed = 1;
nodes = (
"45 693 LINE",
"45 0 LINE",
"195 0 LINE",
"195 250 LINE",
"285 250 LINE SMOOTH",
"399 250 OFFCURVE",
"445 304 OFFCURVE",
"445 412 CURVE SMOOTH",
"445 540 LINE SMOOTH",
"445 643 OFFCURVE",
"377 693 OFFCURVE",
"271 693 CURVE SMOOTH"
);
},
{
closed = 1;
nodes = (
"198 293 LINE",
"307 0 LINE",
"472 0 LINE",
"350 293 LINE"
);
},
{
closed = 1;
nodes = (
"295 414 LINE SMOOTH",
"295 380 OFFCURVE",
"284 369 OFFCURVE",
"254 369 CURVE SMOOTH",
"195 369 LINE",
"195 565 LINE",
"254 565 LINE SMOOTH",
"280 565 OFFCURVE",
"295 558 OFFCURVE",
"295 527 CURVE SMOOTH"
);
},
{
closed = 1;
nodes = (
"213 -61 LINE",
"188 -216 LINE",
"236 -216 LINE",
"254 -193 OFFCURVE",
"294 -130 OFFCURVE",
"294 -93 CURVE SMOOTH",
"294 -73 OFFCURVE",
"284 -61 OFFCURVE",
"259 -61 CURVE SMOOTH"
);
}
);
width = 482;
}
);
unicode = 0156;
},
{
glyphname = Scedilla;
lastChange = "2018-02-07 10:31:24 +0000";
layers = (
{
layerId = UUID0;
paths = (
{
closed = 1;
nodes = (
"30 479 LINE SMOOTH",
"30 412 OFFCURVE",
"59 372 OFFCURVE",
"114 342 CURVE SMOOTH",
"231 278 LINE",
"275 254 OFFCURVE",
"289 230 OFFCURVE",
"289 183 CURVE SMOOTH",
"289 134 LINE SMOOTH",
"289 80 OFFCURVE",
"255 41 OFFCURVE",
"163 41 CURVE SMOOTH",
"115 41 OFFCURVE",
"65 51 OFFCURVE",
"34 62 CURVE",
"34 14 LINE",
"62 4 OFFCURVE",
"112 -5 OFFCURVE",
"163 -5 CURVE SMOOTH",
"284 -5 OFFCURVE",
"339 48 OFFCURVE",
"339 134 CURVE SMOOTH",
"339 186 LINE",
"339 248 OFFCURVE",
"313 288 OFFCURVE",
"258 318 CURVE SMOOTH",
"141 383 LINE SMOOTH",
"99 406 OFFCURVE",
"80 433 OFFCURVE",
"80 482 CURVE SMOOTH",
"80 539 LINE SMOOTH",
"80 596 OFFCURVE",
"118 625 OFFCURVE",
"192 625 CURVE SMOOTH",
"240 625 OFFCURVE",
"288 618 OFFCURVE",
"316 608 CURVE",
"316 656 LINE",
"288 664 OFFCURVE",
"243 671 OFFCURVE",
"192 671 CURVE SMOOTH",
"84 671 OFFCURVE",
"30 619 OFFCURVE",
"30 537 CURVE SMOOTH"
);
},
{
closed = 1;
nodes = (
"153 -61 LINE",
"126 -174 LINE",
"157 -174 LINE",
"170 -154 OFFCURVE",
"201 -104 OFFCURVE",
"201 -85 CURVE SMOOTH",
"201 -68 OFFCURVE",
"189 -61 OFFCURVE",
"176 -61 CURVE SMOOTH"
);
}
);
width = 374;
},
{
layerId = "13BA1341-7400-426C-964F-62F99446C2B7";
paths = (
{
closed = 1;
nodes = (
"20 468 LINE SMOOTH",
"20 393 OFFCURVE",
"60 348 OFFCURVE",
"117 316 CURVE",
"224 258 LINE SMOOTH",
"258 240 OFFCURVE",
"269 229 OFFCURVE",
"269 198 CURVE SMOOTH",
"269 183 LINE SMOOTH",
"269 155 OFFCURVE",
"245 134 OFFCURVE",
"182 134 CURVE SMOOTH",
"121 134 OFFCURVE",
"64 148 OFFCURVE",
"29 163 CURVE",
"29 18 LINE",
"48 10 OFFCURVE",
"110 -5 OFFCURVE",
"184 -5 CURVE SMOOTH",
"342 -5 OFFCURVE",
"421 57 OFFCURVE",
"421 163 CURVE SMOOTH",
"421 225 LINE SMOOTH",
"421 292 OFFCURVE",
"392 331 OFFCURVE",
"339 360 CURVE SMOOTH",
"225 424 LINE SMOOTH",
"183 447 OFFCURVE",
"174 459 OFFCURVE",
"174 496 CURVE",
"174 511 LINE SMOOTH",
"174 537 OFFCURVE",
"184 559 OFFCURVE",
"242 559 CURVE SMOOTH",
"303 559 OFFCURVE",
"346 548 OFFCURVE",
"381 533 CURVE",
"381 677 LINE",
"362 685 OFFCURVE",
"313 698 OFFCURVE",
"239 698 CURVE SMOOTH",
"87 698 OFFCURVE",
"20 634 OFFCURVE",
"20 531 CURVE SMOOTH"
);
},
{
closed = 1;
nodes = (
"173 -61 LINE",
"148 -216 LINE",
"196 -216 LINE",
"214 -193 OFFCURVE",
"254 -130 OFFCURVE",
"254 -93 CURVE SMOOTH",
"254 -73 OFFCURVE",
"244 -61 OFFCURVE",
"219 -61 CURVE SMOOTH"
);
}
);
width = 439;
}
);
unicode = 015E;
},
{
glyphname = Tcedilla;
lastChange = "2018-02-07 10:31:24 +0000";
layers = (
{
layerId = UUID0;
paths = (
{
closed = 1;
nodes = (
"142 666 LINE",
"142 0 LINE",
"192 0 LINE",
"192 666 LINE"
);
},
{
closed = 1;
nodes = (
"10 666 LINE",
"10 621 LINE",
"324 621 LINE",
"324 666 LINE"
);
},
{
closed = 1;
nodes = (
"147 -61 LINE",
"120 -174 LINE",
"151 -174 LINE",
"164 -154 OFFCURVE",
"195 -104 OFFCURVE",
"195 -85 CURVE SMOOTH",
"195 -68 OFFCURVE",
"183 -61 OFFCURVE",
"170 -61 CURVE SMOOTH"
);
}
);
width = 334;
},
{
layerId = "13BA1341-7400-426C-964F-62F99446C2B7";
paths = (
{
closed = 1;
nodes = (
"130 693 LINE",
"130 0 LINE",
"282 0 LINE",
"282 693 LINE"
);
},
{
closed = 1;
nodes = (
"5 693 LINE",
"5 563 LINE",
"407 563 LINE",
"407 693 LINE"
);
},
{
closed = 1;
nodes = (
"169 -61 LINE",
"144 -216 LINE",
"192 -216 LINE",
"210 -193 OFFCURVE",
"250 -130 OFFCURVE",
"250 -93 CURVE SMOOTH",
"250 -73 OFFCURVE",
"240 -61 OFFCURVE",
"215 -61 CURVE SMOOTH"
);
}
);
width = 412;
}
);
unicode = 0162;
},
{
glyphname = Scommaaccent;
lastChange = "2018-02-07 10:31:24 +0000";
layers = (
{
layerId = UUID0;
paths = (
{
closed = 1;
nodes = (
"30 479 LINE SMOOTH",
"30 412 OFFCURVE",
"59 372 OFFCURVE",
"114 342 CURVE SMOOTH",
"231 278 LINE",
"275 254 OFFCURVE",
"289 230 OFFCURVE",
"289 183 CURVE SMOOTH",
"289 134 LINE SMOOTH",
"289 80 OFFCURVE",
"255 41 OFFCURVE",
"163 41 CURVE SMOOTH",
"115 41 OFFCURVE",
"65 51 OFFCURVE",
"34 62 CURVE",
"34 14 LINE",
"62 4 OFFCURVE",
"112 -5 OFFCURVE",
"163 -5 CURVE SMOOTH",
"284 -5 OFFCURVE",
"339 48 OFFCURVE",
"339 134 CURVE SMOOTH",
"339 186 LINE",
"339 248 OFFCURVE",
"313 288 OFFCURVE",
"258 318 CURVE SMOOTH",
"141 383 LINE SMOOTH",
"99 406 OFFCURVE",
"80 433 OFFCURVE",
"80 482 CURVE SMOOTH",
"80 539 LINE SMOOTH",
"80 596 OFFCURVE",
"118 625 OFFCURVE",
"192 625 CURVE SMOOTH",
"240 625 OFFCURVE",
"288 618 OFFCURVE",
"316 608 CURVE",
"316 656 LINE",
"288 664 OFFCURVE",
"243 671 OFFCURVE",
"192 671 CURVE SMOOTH",
"84 671 OFFCURVE",
"30 619 OFFCURVE",
"30 537 CURVE SMOOTH"
);
},
{
closed = 1;
nodes = (
"154 -61 LINE",
"127 -174 LINE",
"158 -174 LINE",
"171 -154 OFFCURVE",
"202 -104 OFFCURVE",
"202 -85 CURVE SMOOTH",
"202 -68 OFFCURVE",
"190 -61 OFFCURVE",
"177 -61 CURVE SMOOTH"
);
}
);
width = 374;
},
{
layerId = "13BA1341-7400-426C-964F-62F99446C2B7";
paths = (
{
closed = 1;
nodes = (
"20 468 LINE SMOOTH",
"20 393 OFFCURVE",
"60 348 OFFCURVE",
"117 316 CURVE",
"224 258 LINE SMOOTH",
"258 240 OFFCURVE",
"269 229 OFFCURVE",
"269 198 CURVE SMOOTH",
"269 183 LINE SMOOTH",
"269 155 OFFCURVE",
"245 134 OFFCURVE",
"182 134 CURVE SMOOTH",
"121 134 OFFCURVE",
"64 148 OFFCURVE",
"29 163 CURVE",
"29 18 LINE",
"48 10 OFFCURVE",
"110 -5 OFFCURVE",
"184 -5 CURVE SMOOTH",
"342 -5 OFFCURVE",
"421 57 OFFCURVE",
"421 163 CURVE SMOOTH",
"421 225 LINE SMOOTH",
"421 292 OFFCURVE",
"392 331 OFFCURVE",
"339 360 CURVE SMOOTH",
"225 424 LINE SMOOTH",
"183 447 OFFCURVE",
"174 459 OFFCURVE",
"174 496 CURVE",
"174 511 LINE SMOOTH",
"174 537 OFFCURVE",
"184 559 OFFCURVE",
"242 559 CURVE SMOOTH",
"303 559 OFFCURVE",
"346 548 OFFCURVE",
"381 533 CURVE",
"381 677 LINE",
"362 685 OFFCURVE",
"313 698 OFFCURVE",
"239 698 CURVE SMOOTH",
"87 698 OFFCURVE",
"20 634 OFFCURVE",
"20 531 CURVE SMOOTH"
);
},
{
closed = 1;
nodes = (
"182 -61 LINE",
"157 -216 LINE",
"205 -216 LINE",
"223 -193 OFFCURVE",
"263 -130 OFFCURVE",
"263 -93 CURVE SMOOTH",
"263 -73 OFFCURVE",
"253 -61 OFFCURVE",
"228 -61 CURVE SMOOTH"
);
}
);
width = 439;
}
);
unicode = 0218;
},
{
glyphname = Tcommaaccent;
lastChange = "2018-02-07 10:31:24 +0000";
layers = (
{
layerId = UUID0;
paths = (
{
closed = 1;
nodes = (
"142 666 LINE",
"142 0 LINE",
"192 0 LINE",
"192 666 LINE"
);
},
{
closed = 1;
nodes = (
"10 666 LINE",
"10 621 LINE",
"324 621 LINE",
"324 666 LINE"
);
},
{
closed = 1;
nodes = (
"142 -61 LINE",
"115 -174 LINE",
"146 -174 LINE",
"159 -154 OFFCURVE",
"190 -104 OFFCURVE",
"190 -85 CURVE SMOOTH",
"190 -68 OFFCURVE",
"178 -61 OFFCURVE",
"165 -61 CURVE SMOOTH"
);
}
);
width = 334;
},
{
layerId = "13BA1341-7400-426C-964F-62F99446C2B7";
paths = (
{
closed = 1;
nodes = (
"130 693 LINE",
"130 0 LINE",
"282 0 LINE",
"282 693 LINE"
);
},
{
closed = 1;
nodes = (
"5 693 LINE",
"5 563 LINE",
"407 563 LINE",
"407 693 LINE"
);
},
{
closed = 1;
nodes = (
"169 -61 LINE",
"144 -216 LINE",
"192 -216 LINE",
"210 -193 OFFCURVE",
"250 -130 OFFCURVE",
"250 -93 CURVE SMOOTH",
"250 -73 OFFCURVE",
"240 -61 OFFCURVE",
"215 -61 CURVE SMOOTH"
);
}
);
width = 412;
}
);
unicode = 021A;
},
{
glyphname = a;
lastChange = "2018-02-07 10:31:24 +0000";
layers = (
{
layerId = UUID0;
paths = (
{
closed = 1;
nodes = (
"61 500 LINE",
"92 511 OFFCURVE",
"142 520 OFFCURVE",
"188 520 CURVE SMOOTH",
"281 520 OFFCURVE",
"303 488 OFFCURVE",
"303 432 CURVE SMOOTH",
"303 337 LINE",
"155 295 LINE SMOOTH",
"71 271 OFFCURVE",
"35 226 OFFCURVE",
"35 162 CURVE SMOOTH",
"35 130 LINE SMOOTH",
"35 48 OFFCURVE",
"76 -4 OFFCURVE",
"175 -4 CURVE SMOOTH",
"243 -4 OFFCURVE",
"272 16 OFFCURVE",
"303 40 CURVE",
"303 0 LINE",
"352 0 LINE",
"352 432 LINE SMOOTH",
"352 517 OFFCURVE",
"305 568 OFFCURVE",
"188 568 CURVE SMOOTH",
"139 568 OFFCURVE",
"89 559 OFFCURVE",
"61 550 CURVE"
);
},
{
closed = 1;
nodes = (
"303 86 LINE",
"276 62 OFFCURVE",
"231 40 OFFCURVE",
"178 40 CURVE SMOOTH",
"108 40 OFFCURVE",
"84 70 OFFCURVE",
"84 129 CURVE SMOOTH",
"84 160 LINE SMOOTH",
"84 206 OFFCURVE",
"103 233 OFFCURVE",
"171 253 CURVE SMOOTH",
"303 290 LINE"
);
}
);
width = 422;
},
{
layerId = "13BA1341-7400-426C-964F-62F99446C2B7";
paths = (
{
closed = 1;
nodes = (
"50 443 LINE",
"68 450 OFFCURVE",
"127 464 OFFCURVE",
"187 464 CURVE SMOOTH",
"238 464 OFFCURVE",
"252 450 OFFCURVE",
"253 417 CURVE",
"253 362 LINE",
"144 334 LINE SMOOTH",
"57 310 OFFCURVE",
"19 267 OFFCURVE",
"19 177 CURVE SMOOTH",
"19 143 LINE SMOOTH",
"19 42 OFFCURVE",
"60 -2 OFFCURVE",
"154 -2 CURVE SMOOTH",
"211 -2 OFFCURVE",
"242 21 OFFCURVE",
"256 43 CURVE",
"256 0 LINE",
"397 0 LINE",
"397 416 LINE SMOOTH",
"397 531 OFFCURVE",
"349 595 OFFCURVE",
"203 595 CURVE SMOOTH",
"132 595 OFFCURVE",
"76 585 OFFCURVE",
"50 576 CURVE"
);
},
{
closed = 1;
nodes = (
"252 120 LINE",
"239 113 OFFCURVE",
"219 109 OFFCURVE",
"202 109 CURVE SMOOTH",
"176 109 OFFCURVE",
"167 122 OFFCURVE",
"167 143 CURVE",
"167 171 LINE SMOOTH",
"167 209 OFFCURVE",
"172 220 OFFCURVE",
"206 229 CURVE SMOOTH",
"252 241 LINE"
);
}
);
width = 437;
}
);
unicode = 0061;
},
{
glyphname = ae;
lastChange = "2018-02-07 10:31:24 +0000";
layers = (
{
layerId = UUID0;
paths = (
{
closed = 1;
nodes = (
"306 548 OFFCURVE",
"260 568 OFFCURVE",
"188 568 CURVE SMOOTH",
"139 568 OFFCURVE",
"89 559 OFFCURVE",
"61 550 CURVE",
"61 500 LINE",
"92 511 OFFCURVE",
"142 520 OFFCURVE",
"188 520 CURVE SMOOTH",
"281 520 OFFCURVE",
"303 488 OFFCURVE",
"303 432 CURVE SMOOTH",
"303 337 LINE",
"155 295 LINE SMOOTH",
"71 271 OFFCURVE",
"35 226 OFFCURVE",
"35 162 CURVE SMOOTH",
"35 130 LINE SMOOTH",
"35 48 OFFCURVE",
"76 -4 OFFCURVE",
"175 -4 CURVE SMOOTH",
"236 -4 OFFCURVE",
"298 17 OFFCURVE",
"333 48 CURVE",
"362 13 OFFCURVE",
"414 -5 OFFCURVE",
"489 -5 CURVE SMOOTH",
"535 -5 OFFCURVE",
"573 2 OFFCURVE",
"600 10 CURVE",
"600 59 LINE",
"570 50 OFFCURVE",
"532 42 OFFCURVE",
"489 42 CURVE SMOOTH",
"393 42 OFFCURVE",
"353 77 OFFCURVE",
"353 139 CURVE SMOOTH",
"353 252 LINE",
"618 252 LINE",
"618 419 LINE SMOOTH",
"618 505 OFFCURVE",
"572 573 OFFCURVE",
"462 573 CURVE SMOOTH",
"398 573 OFFCURVE",
"353 543 OFFCURVE",
"331 513 CURVE"
);
},
{
closed = 1;
nodes = (
"303 81 LINE",
"276 57 OFFCURVE",
"231 40 OFFCURVE",
"178 40 CURVE SMOOTH",
"108 40 OFFCURVE",
"84 70 OFFCURVE",
"84 129 CURVE",
"84 160 LINE SMOOTH",
"84 206 OFFCURVE",
"103 233 OFFCURVE",
"171 253 CURVE SMOOTH",
"303 290 LINE"
);
},
{
closed = 1;
nodes = (
"568 297 LINE",
"353 297 LINE",
"353 419 LINE",
"353 483 OFFCURVE",
"383 528 OFFCURVE",
"462 528 CURVE SMOOTH",
"541 528 OFFCURVE",
"568 483 OFFCURVE",
"568 419 CURVE SMOOTH"
);
}
);
width = 648;
},
{
layerId = "13BA1341-7400-426C-964F-62F99446C2B7";
paths = (
{
closed = 1;
nodes = (
"289 587 OFFCURVE",
"250 595 OFFCURVE",
"200 595 CURVE SMOOTH",
"129 595 OFFCURVE",
"70 581 OFFCURVE",
"50 574 CURVE",
"50 442 LINE",
"68 449 OFFCURVE",
"126 464 OFFCURVE",
"187 464 CURVE SMOOTH",
"240 464 OFFCURVE",
"251 446 OFFCURVE",
"251 426 CURVE",
"252 369 LINE",
"144 335 LINE SMOOTH",
"59 309 OFFCURVE",
"24 267 OFFCURVE",
"24 177 CURVE SMOOTH",
"24 142 LINE SMOOTH",
"24 42 OFFCURVE",
"80 -4 OFFCURVE",
"175 -4 CURVE SMOOTH",
"241 -4 OFFCURVE",
"288 5 OFFCURVE",
"320 25 CURVE",
"353 5 OFFCURVE",
"398 -6 OFFCURVE",
"459 -6 CURVE SMOOTH",
"544 -6 OFFCURVE",
"576 4 OFFCURVE",
"609 13 CURVE",
"609 145 LINE",
"589 139 OFFCURVE",
"537 125 OFFCURVE",
"474 125 CURVE SMOOTH",
"421 125 OFFCURVE",
"395 136 OFFCURVE",
"395 180 CURVE SMOOTH",
"395 236 LINE",
"623 236 LINE",
"623 439 LINE SMOOTH",
"623 537 OFFCURVE",
"571 600 OFFCURVE",
"440 600 CURVE SMOOTH",
"388 600 OFFCURVE",
"348 590 OFFCURVE",
"318 572 CURVE"
);
},
{
closed = 1;
nodes = (
"255 121 LINE",
"237 112 OFFCURVE",
"216 109 OFFCURVE",
"202 109 CURVE SMOOTH",
"183 109 OFFCURVE",
"167 118 OFFCURVE",
"167 143 CURVE SMOOTH",
"167 171 LINE SMOOTH",
"167 209 OFFCURVE",
"172 221 OFFCURVE",
"206 230 CURVE SMOOTH",
"255 243 LINE"
);
},
{
closed = 1;
nodes = (
"484 351 LINE",
"394 351 LINE",
"394 437 LINE SMOOTH",
"394 462 OFFCURVE",
"413 475 OFFCURVE",
"440 475 CURVE SMOOTH",
"467 475 OFFCURVE",
"484 462 OFFCURVE",
"484 437 CURVE SMOOTH"
);
}
);
width = 655;
}
);
unicode = 00E6;
},
{
glyphname = b;
lastChange = "2018-02-07 10:31:24 +0000";
layers = (
{
layerId = UUID0;
paths = (
{
closed = 1;
nodes = (
"75 713 LINE",
"75 0 LINE",
"231 0 LINE",
"319 0 OFFCURVE",
"378 53 OFFCURVE",
"378 148 CURVE SMOOTH",
"378 432 LINE SMOOTH",
"378 517 OFFCURVE",
"326 566 OFFCURVE",
"243 566 CURVE SMOOTH",
"197 566 OFFCURVE",
"149 549 OFFCURVE",
"124 539 CURVE",
"124 713 LINE"
);
},
{
closed = 1;
nodes = (
"328 148 LINE SMOOTH",
"328 77 OFFCURVE",
"289 45 OFFCURVE",
"220 45 CURVE SMOOTH",
"125 45 LINE",
"125 491 LINE",
"163 505 OFFCURVE",
"202 519 OFFCURVE",
"243 519 CURVE SMOOTH",
"296 519 OFFCURVE",
"328 492 OFFCURVE",
"328 432 CURVE SMOOTH"
);
}
);
width = 443;
},
{
layerId = "13BA1341-7400-426C-964F-62F99446C2B7";
paths = (
{
closed = 1;
nodes = (
"45 747 LINE",
"45 0 LINE",
"275 0 LINE SMOOTH",
"363 0 OFFCURVE",
"428 43 OFFCURVE",
"428 147 CURVE SMOOTH",
"428 467 LINE SMOOTH",
"428 555 OFFCURVE",
"373 593 OFFCURVE",
"302 593 CURVE SMOOTH",
"253 593 OFFCURVE",
"216 585 OFFCURVE",
"196 578 CURVE",
"196 747 LINE"
);
},
{
closed = 1;
nodes = (
"275 171 LINE SMOOTH",
"275 148 OFFCURVE",
"261 139 OFFCURVE",
"236 139 CURVE SMOOTH",
"196 139 LINE",
"196 443 LINE",
"206 449 OFFCURVE",
"226 454 OFFCURVE",
"246 454 CURVE SMOOTH",
"265 454 OFFCURVE",
"275 446 OFFCURVE",
"275 430 CURVE SMOOTH"
);
}
);
width = 463;
}
);
unicode = 0062;
},
{
glyphname = c;
lastChange = "2018-02-07 10:31:24 +0000";
layers = (
{
layerId = UUID0;
paths = (
{
closed = 1;
nodes = (
"65 129 LINE SMOOTH",
"65 45 OFFCURVE",
"109 -5 OFFCURVE",
"226 -5 CURVE SMOOTH",
"269 -5 OFFCURVE",
"304 2 OFFCURVE",
"329 9 CURVE",
"329 56 LINE",
"302 47 OFFCURVE",
"267 41 OFFCURVE",
"226 41 CURVE SMOOTH",
"133 41 OFFCURVE",
"115 74 OFFCURVE",
"115 129 CURVE SMOOTH",
"115 433 LINE SMOOTH",
"115 488 OFFCURVE",
"133 522 OFFCURVE",
"226 522 CURVE SMOOTH",
"263 522 OFFCURVE",
"299 517 OFFCURVE",
"327 509 CURVE",
"327 555 LINE",
"304 562 OFFCURVE",
"268 568 OFFCURVE",
"226 568 CURVE SMOOTH",
"109 568 OFFCURVE",
"65 517 OFFCURVE",
"65 433 CURVE SMOOTH"
);
}
);
width = 369;
},
{
layerId = "13BA1341-7400-426C-964F-62F99446C2B7";
paths = (
{
closed = 1;
nodes = (
"35 169 LINE SMOOTH",
"35 53 OFFCURVE",
"102 -5 OFFCURVE",
"231 -5 CURVE SMOOTH",
"294 -5 OFFCURVE",
"323 1 OFFCURVE",
"356 10 CURVE",
"356 149 LINE",
"336 143 OFFCURVE",
"299 133 OFFCURVE",
"257 133 CURVE SMOOTH",
"210 133 OFFCURVE",
"186 143 OFFCURVE",
"186 182 CURVE SMOOTH",
"186 408 LINE",
"186 447 OFFCURVE",
"210 457 OFFCURVE",
"257 457 CURVE SMOOTH",
"299 457 OFFCURVE",
"336 447 OFFCURVE",
"356 441 CURVE",
"356 580 LINE",
"323 589 OFFCURVE",
"294 595 OFFCURVE",
"231 595 CURVE SMOOTH",
"102 595 OFFCURVE",
"35 537 OFFCURVE",
"35 421 CURVE SMOOTH"
);
}
);
width = 376;
}
);
unicode = 0063;
},
{
glyphname = d;
lastChange = "2018-02-07 10:31:24 +0000";
layers = (
{
layerId = UUID0;
paths = (
{
closed = 1;
nodes = (
"318 713 LINE",
"318 563 LINE",
"211 563 LINE",
"129 563 OFFCURVE",
"65 515 OFFCURVE",
"65 421 CURVE",
"65 142 LINE SMOOTH",
"65 49 OFFCURVE",
"114 -3 OFFCURVE",
"209 -3 CURVE",
"266 -3 OFFCURVE",
"297 14 OFFCURVE",
"319 31 CURVE",
"319 0 LINE",
"368 0 LINE",
"368 713 LINE"
);
},
{
closed = 1;
nodes = (
"318 82 LINE",
"298 62 OFFCURVE",
"262 42 OFFCURVE",
"210 42 CURVE",
"147 42 OFFCURVE",
"115 74 OFFCURVE",
"115 141 CURVE SMOOTH",
"115 421 LINE SMOOTH",
"115 485 OFFCURVE",
"153 517 OFFCURVE",
"223 517 CURVE SMOOTH",
"318 517 LINE"
);
}
);
width = 443;
},
{
layerId = "13BA1341-7400-426C-964F-62F99446C2B7";
paths = (
{
closed = 1;
nodes = (
"265 747 LINE",
"265 590 LINE",
"221 590 LINE SMOOTH",
"91 590 OFFCURVE",
"35 518 OFFCURVE",
"35 411 CURVE SMOOTH",
"35 132 LINE SMOOTH",
"35 48 OFFCURVE",
"78 -4 OFFCURVE",
"164 -4 CURVE SMOOTH",
"224 -4 OFFCURVE",
"259 28 OFFCURVE",
"270 42 CURVE",
"270 0 LINE",
"417 0 LINE",
"417 747 LINE"
);
},
{
closed = 1;
nodes = (
"266 145 LINE",
"256 139 OFFCURVE",
"234 133 OFFCURVE",
"214 133 CURVE SMOOTH",
"194 133 OFFCURVE",
"186 143 OFFCURVE",
"186 159 CURVE SMOOTH",
"186 406 LINE SMOOTH",
"186 441 OFFCURVE",
"203 456 OFFCURVE",
"233 456 CURVE SMOOTH",
"266 456 LINE"
);
}
);
width = 462;
}
);
unicode = 0064;
},
{
glyphname = eth;
lastChange = "2018-02-07 10:31:24 +0000";
layers = (
{
layerId = UUID0;
paths = (
{
closed = 1;
nodes = (
"171 666 LINE",
"226 615 OFFCURVE",
"290 519 OFFCURVE",
"317 410 CURVE",
"298 425 OFFCURVE",
"267 438 OFFCURVE",
"225 438 CURVE SMOOTH",
"115 438 OFFCURVE",
"70 371 OFFCURVE",
"70 285 CURVE SMOOTH",
"70 143 LINE SMOOTH",
"70 57 OFFCURVE",
"115 -10 OFFCURVE",
"225 -10 CURVE SMOOTH",
"335 -10 OFFCURVE",
"380 57 OFFCURVE",
"380 143 CURVE",
"380 306 LINE SMOOTH",
"380 480 OFFCURVE",
"282 622 OFFCURVE",
"240 666 CURVE"
);
},
{
closed = 1;
nodes = (
"330 143 LINE",
"330 79 OFFCURVE",
"304 35 OFFCURVE",
"225 35 CURVE SMOOTH",
"146 35 OFFCURVE",
"120 79 OFFCURVE",
"120 143 CURVE SMOOTH",
"120 285 LINE SMOOTH",
"120 349 OFFCURVE",
"146 393 OFFCURVE",
"225 393 CURVE",
"270 393 OFFCURVE",
"309 375 OFFCURVE",
"330 353 CURVE"
);
},
{
closed = 1;
nodes = (
"147 545 LINE",
"147 500 LINE",
"381 625 LINE",
"381 669 LINE"
);
}
);
width = 453;
},
{
layerId = "13BA1341-7400-426C-964F-62F99446C2B7";
paths = (
{
closed = 1;
nodes = (
"94 693 LINE",
"187 586 OFFCURVE",
"235 504 OFFCURVE",
"257 427 CURVE",
"245 445 OFFCURVE",
"217 465 OFFCURVE",
"181 465 CURVE SMOOTH",
"82 465 OFFCURVE",
"40 415 OFFCURVE",
"40 319 CURVE SMOOTH",
"40 159 LINE SMOOTH",
"40 56 OFFCURVE",
"102 -5 OFFCURVE",
"228 -5 CURVE SMOOTH",
"355 -5 OFFCURVE",
"418 57 OFFCURVE",
"418 160 CURVE",
"418 310 LINE",
"418 468 OFFCURVE",
"335 610 OFFCURVE",
"263 693 CURVE"
);
},
{
closed = 1;
nodes = (
"274 163 LINE",
"274 143 OFFCURVE",
"266 125 OFFCURVE",
"229 125 CURVE SMOOTH",
"192 125 OFFCURVE",
"184 145 OFFCURVE",
"184 165 CURVE SMOOTH",
"184 314 LINE SMOOTH",
"184 346 OFFCURVE",
"197 353 OFFCURVE",
"229 353 CURVE SMOOTH",
"255 353 OFFCURVE",
"274 346 OFFCURVE",
"274 346 CURVE"
);
},
{
closed = 1;
nodes = (
"97 575 LINE",
"97 501 LINE",
"391 624 LINE",
"391 699 LINE"
);
}
);
width = 453;
}
);
unicode = 00F0;
},
{
glyphname = dcaron;
lastChange = "2018-02-07 10:31:24 +0000";
layers = (
{
layerId = UUID0;
paths = (
{
closed = 1;
nodes = (
"318 713 LINE",
"318 563 LINE",
"211 563 LINE",
"129 563 OFFCURVE",
"65 515 OFFCURVE",
"65 421 CURVE",
"65 142 LINE SMOOTH",
"65 49 OFFCURVE",
"114 -3 OFFCURVE",
"209 -3 CURVE",
"266 -3 OFFCURVE",
"297 14 OFFCURVE",
"319 31 CURVE",
"319 0 LINE",
"368 0 LINE",
"368 713 LINE"
);
},
{
closed = 1;
nodes = (
"318 82 LINE",
"298 62 OFFCURVE",
"262 42 OFFCURVE",
"210 42 CURVE",
"147 42 OFFCURVE",
"115 74 OFFCURVE",
"115 141 CURVE SMOOTH",
"115 421 LINE SMOOTH",
"115 485 OFFCURVE",
"153 517 OFFCURVE",
"223 517 CURVE SMOOTH",
"318 517 LINE"
);
},
{
closed = 1;
nodes = (
"436 711 LINE",
"409 598 LINE",
"440 598 LINE",
"453 618 OFFCURVE",
"484 668 OFFCURVE",
"484 687 CURVE SMOOTH",
"484 704 OFFCURVE",
"472 711 OFFCURVE",
"459 711 CURVE SMOOTH"
);
}
);
width = 443;
},
{
layerId = "13BA1341-7400-426C-964F-62F99446C2B7";
paths = (
{
closed = 1;
nodes = (
"265 747 LINE",
"265 590 LINE",
"221 590 LINE SMOOTH",
"91 590 OFFCURVE",
"35 518 OFFCURVE",
"35 411 CURVE SMOOTH",
"35 132 LINE SMOOTH",
"35 48 OFFCURVE",
"78 -4 OFFCURVE",
"164 -4 CURVE SMOOTH",
"224 -4 OFFCURVE",
"259 28 OFFCURVE",
"270 42 CURVE",
"270 0 LINE",
"417 0 LINE",
"417 747 LINE"
);
},
{
closed = 1;
nodes = (
"266 145 LINE",
"256 139 OFFCURVE",
"234 133 OFFCURVE",
"214 133 CURVE SMOOTH",
"194 133 OFFCURVE",
"186 143 OFFCURVE",
"186 159 CURVE SMOOTH",
"186 406 LINE SMOOTH",
"186 441 OFFCURVE",
"203 456 OFFCURVE",
"233 456 CURVE SMOOTH",
"266 456 LINE"
);
},
{
closed = 1;
nodes = (
"480 747 LINE",
"455 592 LINE",
"503 592 LINE",
"521 615 OFFCURVE",
"561 678 OFFCURVE",
"561 715 CURVE SMOOTH",
"561 735 OFFCURVE",
"551 747 OFFCURVE",
"526 747 CURVE SMOOTH"
);
}
);
width = 490;
}
);
unicode = 010F;
},
{
glyphname = dcroat;
lastChange = "2018-02-07 10:31:24 +0000";
layers = (
{
components = (
{
name = d;
}
);
layerId = UUID0;
paths = (
{
closed = 1;
nodes = (
"195 666 LINE",
"195 625 LINE",
"408 625 LINE",
"408 666 LINE"
);
}
);
width = 443;
},
{
components = (
{
name = d;
transform = "{1, 0, 0, 1, 3, 0}";
}
);
layerId = "13BA1341-7400-426C-964F-62F99446C2B7";
paths = (
{
closed = 1;
nodes = (
"140 700 LINE",
"140 636 LINE",
"460 636 LINE",
"460 700 LINE"
);
}
);
width = 465;
}
);
unicode = 0111;
},
{
glyphname = e;
lastChange = "2018-02-07 10:31:24 +0000";
layers = (
{
layerId = UUID0;
paths = (
{
closed = 1;
nodes = (
"65 169 LINE",
"115 169 LINE",
"115 419 LINE SMOOTH",
"115 483 OFFCURVE",
"142 528 OFFCURVE",
"221 528 CURVE SMOOTH",
"300 528 OFFCURVE",
"327 483 OFFCURVE",
"327 419 CURVE SMOOTH",
"327 255 LINE",
"377 255 LINE",
"377 419 LINE SMOOTH",
"377 505 OFFCURVE",
"331 573 OFFCURVE",
"221 573 CURVE SMOOTH",
"111 573 OFFCURVE",
"65 505 OFFCURVE",
"65 419 CURVE SMOOTH"
);
},
{
closed = 1;
nodes = (
"65 173 LINE",
"65 139 LINE SMOOTH",
"65 44 OFFCURVE",
"124 -5 OFFCURVE",
"248 -5 CURVE SMOOTH",
"294 -5 OFFCURVE",
"332 2 OFFCURVE",
"359 10 CURVE",
"359 59 LINE",
"329 50 OFFCURVE",
"291 42 OFFCURVE",
"248 42 CURVE SMOOTH",
"152 42 OFFCURVE",
"115 77 OFFCURVE",
"115 139 CURVE SMOOTH",
"115 173 LINE"
);
},
{
closed = 1;
nodes = (
"95 297 LINE",
"95 252 LINE",
"377 252 LINE",
"377 297 LINE"
);
}
);
width = 437;
},
{
layerId = "13BA1341-7400-426C-964F-62F99446C2B7";
paths = (
{
closed = 1;
nodes = (
"35 192 LINE",
"180 190 LINE",
"180 437 LINE SMOOTH",
"180 462 OFFCURVE",
"197 475 OFFCURVE",
"224 475 CURVE SMOOTH",
"251 475 OFFCURVE",
"268 462 OFFCURVE",
"268 437 CURVE SMOOTH",
"268 317 LINE",
"407 317 LINE",
"407 439 LINE SMOOTH",
"407 537 OFFCURVE",
"355 600 OFFCURVE",
"224 600 CURVE SMOOTH",
"93 600 OFFCURVE",
"35 537 OFFCURVE",
"35 439 CURVE SMOOTH"
);
},
{
closed = 1;
nodes = (
"35 264 LINE",
"35 168 LINE SMOOTH",
"35 56 OFFCURVE",
"96 -6 OFFCURVE",
"243 -6 CURVE SMOOTH",
"328 -6 OFFCURVE",
"360 4 OFFCURVE",
"393 13 CURVE",
"393 145 LINE",
"373 139 OFFCURVE",
"321 125 OFFCURVE",
"258 125 CURVE SMOOTH",
"196 125 OFFCURVE",
"180 141 OFFCURVE",
"180 180 CURVE SMOOTH",
"180 264 LINE"
);
},
{
closed = 1;
nodes = (
"165 351 LINE",
"165 236 LINE",
"407 236 LINE",
"407 351 LINE"
);
}
);
width = 432;
}
);
unicode = 0065;
},
{
glyphname = f;
lastChange = "2018-02-07 10:31:24 +0000";
layers = (
{
layerId = UUID0;
paths = (
{
closed = 1;
nodes = (
"97 563 LINE",
"40 563 LINE",
"40 518 LINE",
"97 518 LINE",
"97 0 LINE",
"147 0 LINE",
"147 518 LINE",
"259 518 LINE",
"259 563 LINE",
"147 563 LINE",
"147 605 LINE SMOOTH",
"147 665 OFFCURVE",
"177 687 OFFCURVE",
"225 687 CURVE SMOOTH",
"240 687 OFFCURVE",
"255 686 OFFCURVE",
"267 683 CURVE",
"267 729 LINE",
"255 731 OFFCURVE",
"239 732 OFFCURVE",
"225 732 CURVE SMOOTH",
"141 732 OFFCURVE",
"97 686 OFFCURVE",
"97 605 CURVE SMOOTH"
);
}
);
width = 267;
},
{
layerId = "13BA1341-7400-426C-964F-62F99446C2B7";
paths = (
{
closed = 1;
nodes = (
"62 590 LINE",
"5 590 LINE",
"5 472 LINE",
"62 472 LINE",
"62 0 LINE",
"214 0 LINE",
"214 472 LINE",
"295 472 LINE",
"295 590 LINE",
"214 590 LINE",
"214 599 LINE SMOOTH",
"214 631 OFFCURVE",
"228 647 OFFCURVE",
"265 647 CURVE SMOOTH",
"275 647 OFFCURVE",
"287 646 OFFCURVE",
"295 645 CURVE",
"295 761 LINE",
"276 764 OFFCURVE",
"257 766 OFFCURVE",
"240 766 CURVE SMOOTH",
"115 766 OFFCURVE",
"62 701 OFFCURVE",
"62 597 CURVE SMOOTH"
);
}
);
width = 295;
}
);
unicode = 0066;
},
{
glyphname = g;
lastChange = "2018-02-07 10:31:24 +0000";
layers = (
{
layerId = UUID0;
paths = (
{
closed = 1;
nodes = (
"98 136 LINE SMOOTH",
"98 82 OFFCURVE",
"141 51 OFFCURVE",
"216 51 CURVE SMOOTH",
"276 51 LINE SMOOTH",
"349 51 OFFCURVE",
"359 22 OFFCURVE",
"359 -18 CURVE SMOOTH",
"359 -29 LINE SMOOTH",
"359 -75 OFFCURVE",
"327 -104 OFFCURVE",
"234 -104 CURVE SMOOTH",
"194 -104 LINE SMOOTH",
"126 -104 OFFCURVE",
"86 -93 OFFCURVE",
"45 -71 CURVE",
"45 -121 LINE",
"76 -137 OFFCURVE",
"125 -149 OFFCURVE",
"194 -149 CURVE SMOOTH",
"235 -149 LINE SMOOTH",
"363 -149 OFFCURVE",
"409 -102 OFFCURVE",
"409 -28 CURVE SMOOTH",
"409 -18 LINE SMOOTH",
"409 54 OFFCURVE",
"372 96 OFFCURVE",
"275 96 CURVE SMOOTH",
"216 96 LINE SMOOTH",
"162 96 OFFCURVE",
"144 113 OFFCURVE",
"144 148 CURVE SMOOTH",
"144 190 OFFCURVE",
"166 209 OFFCURVE",
"209 209 CURVE",
"197 214 OFFCURVE",
"188 219 OFFCURVE",
"173 219 CURVE",
"138 221 OFFCURVE",
"98 198 OFFCURVE",
"98 152 CURVE SMOOTH"
);
},
{
closed = 1;
nodes = (
"49 352 LINE SMOOTH",
"49 266 OFFCURVE",
"99 209 OFFCURVE",
"209 209 CURVE SMOOTH",
"319 209 OFFCURVE",
"369 266 OFFCURVE",
"369 352 CURVE SMOOTH",
"369 430 LINE SMOOTH",
"369 516 OFFCURVE",
"319 573 OFFCURVE",
"209 573 CURVE SMOOTH",
"99 573 OFFCURVE",
"49 516 OFFCURVE",
"49 430 CURVE SMOOTH"
);
},
{
closed = 1;
nodes = (
"319 352 LINE SMOOTH",
"319 288 OFFCURVE",
"288 254 OFFCURVE",
"209 254 CURVE SMOOTH",
"130 254 OFFCURVE",
"99 288 OFFCURVE",
"99 352 CURVE SMOOTH",
"99 430 LINE SMOOTH",
"99 494 OFFCURVE",
"130 528 OFFCURVE",
"209 528 CURVE SMOOTH",
"288 528 OFFCURVE",
"319 494 OFFCURVE",
"319 430 CURVE SMOOTH"
);
},
{
closed = 1;
nodes = (
"404 599 LINE",
"357 599 OFFCURVE",
"323 577 OFFCURVE",
"315 530 CURVE",
"325 517 LINE",
"337 535 OFFCURVE",
"357 548 OFFCURVE",
"386 548 CURVE SMOOTH",
"419 548 LINE",
"419 599 LINE"
);
}
);
width = 444;
},
{
layerId = "13BA1341-7400-426C-964F-62F99446C2B7";
paths = (
{
closed = 1;
nodes = (
"70 122 LINE SMOOTH",
"70 58 OFFCURVE",
"120 33 OFFCURVE",
"214 33 CURVE SMOOTH",
"275 33 LINE SMOOTH",
"301 33 OFFCURVE",
"309 27 OFFCURVE",
"309 13 CURVE SMOOTH",
"309 8 LINE SMOOTH",
"309 -13 OFFCURVE",
"291 -24 OFFCURVE",
"218 -24 CURVE SMOOTH",
"197 -24 LINE SMOOTH",
"120 -24 OFFCURVE",
"48 5 OFFCURVE",
"15 31 CURVE",
"15 -106 LINE",
"42 -126 OFFCURVE",
"108 -150 OFFCURVE",
"201 -150 CURVE SMOOTH",
"238 -150 LINE SMOOTH",
"382 -150 OFFCURVE",
"449 -90 OFFCURVE",
"449 4 CURVE SMOOTH",
"449 29 LINE SMOOTH",
"449 117 OFFCURVE",
"398 155 OFFCURVE",
"297 155 CURVE SMOOTH",
"242 155 LINE SMOOTH",
"212 155 OFFCURVE",
"202 160 OFFCURVE",
"202 177 CURVE SMOOTH",
"202 189 OFFCURVE",
"209 199 OFFCURVE",
"228 199 CURVE",
"209 205 OFFCURVE",
"168 213 OFFCURVE",
"144 213 CURVE SMOOTH",
"91 213 OFFCURVE",
"70 179 OFFCURVE",
"70 138 CURVE SMOOTH"
);
},
{
closed = 1;
nodes = (
"23 357 LINE SMOOTH",
"23 259 OFFCURVE",
"84 199 OFFCURVE",
"218 199 CURVE SMOOTH",
"352 199 OFFCURVE",
"413 259 OFFCURVE",
"413 357 CURVE SMOOTH",
"413 443 LINE SMOOTH",
"413 541 OFFCURVE",
"352 600 OFFCURVE",
"218 600 CURVE SMOOTH",
"84 600 OFFCURVE",
"23 541 OFFCURVE",
"23 443 CURVE SMOOTH"
);
},
{
closed = 1;
nodes = (
"263 358 LINE SMOOTH",
"263 332 OFFCURVE",
"250 319 OFFCURVE",
"218 319 CURVE SMOOTH",
"186 319 OFFCURVE",
"173 332 OFFCURVE",
"173 358 CURVE SMOOTH",
"173 442 LINE SMOOTH",
"173 468 OFFCURVE",
"186 481 OFFCURVE",
"218 481 CURVE SMOOTH",
"250 481 OFFCURVE",
"263 468 OFFCURVE",
"263 442 CURVE SMOOTH"
);
},
{
closed = 1;
nodes = (
"435 659 LINE",
"370 659 OFFCURVE",
"327 620 OFFCURVE",
"320 547 CURVE",
"360 511 LINE",
"374 520 OFFCURVE",
"393 525 OFFCURVE",
"416 525 CURVE SMOOTH",
"451 525 LINE",
"451 659 LINE"
);
}
);
width = 456;
}
);
unicode = 0067;
},
{
glyphname = h;
lastChange = "2018-02-07 10:31:24 +0000";
layers = (
{
layerId = UUID0;
paths = (
{
closed = 1;
nodes = (
"75 713 LINE",
"75 0 LINE",
"125 0 LINE",
"125 489 LINE",
"156 504 OFFCURVE",
"201 519 OFFCURVE",
"243 519 CURVE SMOOTH",
"296 519 OFFCURVE",
"328 492 OFFCURVE",
"328 432 CURVE SMOOTH",
"328 0 LINE",
"378 0 LINE",
"378 432 LINE SMOOTH",
"378 517 OFFCURVE",
"326 565 OFFCURVE",
"243 565 CURVE SMOOTH",
"197 565 OFFCURVE",
"155 551 OFFCURVE",
"124 537 CURVE",
"124 713 LINE"
);
}
);
width = 448;
},
{
layerId = "13BA1341-7400-426C-964F-62F99446C2B7";
paths = (
{
closed = 1;
nodes = (
"45 747 LINE",
"45 0 LINE",
"196 0 LINE",
"196 444 LINE",
"206 450 OFFCURVE",
"223 454 OFFCURVE",
"243 454 CURVE SMOOTH",
"262 454 OFFCURVE",
"270 446 OFFCURVE",
"270 430 CURVE SMOOTH",
"270 0 LINE",
"423 0 LINE",
"423 467 LINE SMOOTH",
"423 561 OFFCURVE",
"362 594 OFFCURVE",
"281 594 CURVE SMOOTH",
"252 594 OFFCURVE",
"222 589 OFFCURVE",
"196 580 CURVE",
"196 747 LINE"
);
}
);
width = 463;
}
);
unicode = 0068;
},
{
glyphname = i;
lastChange = "2018-02-07 10:31:24 +0000";
layers = (
{
layerId = UUID0;
paths = (
{
closed = 1;
nodes = (
"75 563 LINE",
"75 0 LINE",
"125 0 LINE",
"125 563 LINE"
);
},
{
closed = 1;
nodes = (
"67 654 OFFCURVE",
"76 640 OFFCURVE",
"100 640 CURVE SMOOTH",
"124 640 OFFCURVE",
"133 654 OFFCURVE",
"133 677 CURVE SMOOTH",
"133 700 OFFCURVE",
"124 714 OFFCURVE",
"100 714 CURVE SMOOTH",
"76 714 OFFCURVE",
"67 700 OFFCURVE",
"67 677 CURVE SMOOTH"
);
}
);
width = 200;
},
{
layerId = "13BA1341-7400-426C-964F-62F99446C2B7";
paths = (
{
closed = 1;
nodes = (
"45 574 LINE",
"45 0 LINE",
"196 0 LINE",
"196 574 LINE"
);
},
{
closed = 1;
nodes = (
"37 640 OFFCURVE",
"57 607 OFFCURVE",
"121 607 CURVE SMOOTH",
"183 607 OFFCURVE",
"204 640 OFFCURVE",
"204 685 CURVE SMOOTH",
"204 731 OFFCURVE",
"183 764 OFFCURVE",
"121 764 CURVE SMOOTH",
"57 764 OFFCURVE",
"37 731 OFFCURVE",
"37 685 CURVE SMOOTH"
);
}
);
width = 241;
}
);
unicode = 0069;
},
{
glyphname = dotlessi;
lastChange = "2018-02-07 10:31:24 +0000";
layers = (
{
layerId = UUID0;
paths = (
{
closed = 1;
nodes = (
"75 563 LINE",
"75 0 LINE",
"125 0 LINE",
"125 563 LINE"
);
}
);
width = 200;
},
{
layerId = "13BA1341-7400-426C-964F-62F99446C2B7";
paths = (
{
closed = 1;
nodes = (
"45 574 LINE",
"45 0 LINE",
"196 0 LINE",
"196 574 LINE"
);
}
);
width = 241;
}
);
unicode = 0131;
},
{
glyphname = iacute;
lastChange = "2018-02-07 10:31:24 +0000";
layers = (
{
components = (
{
name = acute;
transform = "{1, 0, 0, 1, -47, 0}";
}
);
layerId = UUID0;
paths = (
{
closed = 1;
nodes = (
"75 563 LINE",
"75 0 LINE",
"125 0 LINE",
"125 563 LINE"
);
}
);
width = 200;
},
{
components = (
{
name = acute;
transform = "{1, 0, 0, 1, -20, 0}";
}
);
layerId = "13BA1341-7400-426C-964F-62F99446C2B7";
paths = (
{
closed = 1;
nodes = (
"45 574 LINE",
"45 0 LINE",
"196 0 LINE",
"196 574 LINE"
);
}
);
width = 241;
}
);
unicode = 00ED;
},
{
glyphname = icircumflex;
lastChange = "2018-02-07 10:31:24 +0000";
layers = (
{
components = (
{
name = circumflex;
transform = "{1, 0, 0, 1, -74, 0}";
}
);
layerId = UUID0;
paths = (
{
closed = 1;
nodes = (
"75 563 LINE",
"75 0 LINE",
"125 0 LINE",
"125 563 LINE"
);
}
);
width = 200;
},
{
components = (
{
name = circumflex;
transform = "{1, 0, 0, 1, -53, 0}";
}
);
layerId = "13BA1341-7400-426C-964F-62F99446C2B7";
paths = (
{
closed = 1;
nodes = (
"45 574 LINE",
"45 0 LINE",
"196 0 LINE",
"196 574 LINE"
);
}
);
width = 241;
}
);
unicode = 00EE;
},
{
glyphname = idieresis;
lastChange = "2018-02-07 10:31:24 +0000";
layers = (
{
components = (
{
name = dieresis;
transform = "{1, 0, 0, 1, -74, 0}";
}
);
layerId = UUID0;
paths = (
{
closed = 1;
nodes = (
"75 563 LINE",
"75 0 LINE",
"125 0 LINE",
"125 563 LINE"
);
}
);
width = 200;
},
{
components = (
{
name = dieresis;
transform = "{1, 0, 0, 1, -55, 0}";
}
);
layerId = "13BA1341-7400-426C-964F-62F99446C2B7";
paths = (
{
closed = 1;
nodes = (
"45 574 LINE",
"45 0 LINE",
"196 0 LINE",
"196 574 LINE"
);
}
);
width = 241;
}
);
unicode = 00EF;
},
{
glyphname = igrave;
lastChange = "2018-02-07 10:31:24 +0000";
layers = (
{
components = (
{
name = grave;
transform = "{1, 0, 0, 1, -102, 0}";
}
);
layerId = UUID0;
paths = (
{
closed = 1;
nodes = (
"75 563 LINE",
"75 0 LINE",
"125 0 LINE",
"125 563 LINE"
);
}
);
width = 200;
},
{
components = (
{
name = grave;
transform = "{1, 0, 0, 1, -100, 0}";
}
);
layerId = "13BA1341-7400-426C-964F-62F99446C2B7";
paths = (
{
closed = 1;
nodes = (
"45 574 LINE",
"45 0 LINE",
"196 0 LINE",
"196 574 LINE"
);
}
);
width = 241;
}
);
unicode = 00EC;
},
{
glyphname = imacron;
lastChange = "2018-02-07 10:31:24 +0000";
layers = (
{
components = (
{
name = macron;
transform = "{1, 0, 0, 1, -75, 0}";
}
);
layerId = UUID0;
paths = (
{
closed = 1;
nodes = (
"75 563 LINE",
"75 0 LINE",
"125 0 LINE",
"125 563 LINE"
);
}
);
width = 200;
},
{
components = (
{
name = macron;
transform = "{1, 0, 0, 1, -54, 0}";
}
);
layerId = "13BA1341-7400-426C-964F-62F99446C2B7";
paths = (
{
closed = 1;
nodes = (
"45 574 LINE",
"45 0 LINE",
"196 0 LINE",
"196 574 LINE"
);
}
);
width = 241;
}
);
unicode = 012B;
},
{
glyphname = j;
lastChange = "2018-02-07 10:31:24 +0000";
layers = (
{
layerId = UUID0;
paths = (
{
closed = 1;
nodes = (
"75 563 LINE",
"75 -20 LINE SMOOTH",
"75 -82 OFFCURVE",
"52 -105 OFFCURVE",
"1 -105 CURVE SMOOTH",
"-8 -105 OFFCURVE",
"-18 -104 OFFCURVE",
"-26 -103 CURVE",
"-26 -148 LINE",
"-17 -149 OFFCURVE",
"-8 -150 OFFCURVE",
"1 -150 CURVE SMOOTH",
"83 -150 OFFCURVE",
"125 -104 OFFCURVE",
"125 -20 CURVE SMOOTH",
"125 563 LINE"
);
},
{
closed = 1;
nodes = (
"67 654 OFFCURVE",
"76 640 OFFCURVE",
"100 640 CURVE SMOOTH",
"124 640 OFFCURVE",
"133 654 OFFCURVE",
"133 677 CURVE SMOOTH",
"133 700 OFFCURVE",
"124 714 OFFCURVE",
"100 714 CURVE SMOOTH",
"76 714 OFFCURVE",
"67 700 OFFCURVE",
"67 677 CURVE SMOOTH"
);
}
);
width = 200;
},
{
layerId = "13BA1341-7400-426C-964F-62F99446C2B7";
paths = (
{
closed = 1;
nodes = (
"45 574 LINE",
"45 32 LINE SMOOTH",
"45 4 OFFCURVE",
"33 -13 OFFCURVE",
"4 -13 CURVE SMOOTH",
"-4 -13 OFFCURVE",
"-11 -12 OFFCURVE",
"-19 -11 CURVE",
"-19 -149 LINE",
"-6 -153 OFFCURVE",
"7 -153 OFFCURVE",
"17 -153 CURVE SMOOTH",
"140 -153 OFFCURVE",
"196 -72 OFFCURVE",
"196 32 CURVE SMOOTH",
"196 574 LINE"
);
},
{
closed = 1;
nodes = (
"37 640 OFFCURVE",
"57 607 OFFCURVE",
"121 607 CURVE SMOOTH",
"183 607 OFFCURVE",
"204 640 OFFCURVE",
"204 685 CURVE SMOOTH",
"204 731 OFFCURVE",
"183 764 OFFCURVE",
"121 764 CURVE SMOOTH",
"57 764 OFFCURVE",
"37 731 OFFCURVE",
"37 685 CURVE SMOOTH"
);
}
);
width = 241;
}
);
unicode = 006A;
},
{
glyphname = k;
lastChange = "2018-02-07 10:31:24 +0000";
layers = (
{
layerId = UUID0;
paths = (
{
closed = 1;
nodes = (
"310 563 LINE",
"173 289 LINE",
"317 0 LINE",
"374 0 LINE",
"230 291 LINE",
"366 563 LINE"
);
},
{
closed = 1;
nodes = (
"75 713 LINE",
"75 0 LINE",
"125 0 LINE",
"125 713 LINE"
);
}
);
width = 394;
},
{
layerId = "13BA1341-7400-426C-964F-62F99446C2B7";
paths = (
{
closed = 1;
nodes = (
"265 590 LINE",
"183 319 LINE",
"271 0 LINE",
"429 0 LINE",
"329 311 LINE",
"414 590 LINE"
);
},
{
closed = 1;
nodes = (
"45 747 LINE",
"45 0 LINE",
"191 0 LINE",
"191 747 LINE"
);
}
);
width = 434;
}
);
unicode = 006B;
},
{
glyphname = l;
lastChange = "2018-02-07 10:31:24 +0000";
layers = (
{
layerId = UUID0;
paths = (
{
closed = 1;
nodes = (
"75 713 LINE",
"75 0 LINE",
"125 0 LINE",
"125 713 LINE"
);
}
);
width = 200;
},
{
layerId = "13BA1341-7400-426C-964F-62F99446C2B7";
paths = (
{
closed = 1;
nodes = (
"45 747 LINE",
"45 0 LINE",
"196 0 LINE",
"196 747 LINE"
);
}
);
width = 241;
}
);
unicode = 006C;
},
{
glyphname = lcaron;
lastChange = "2018-02-07 10:31:24 +0000";
layers = (
{
layerId = UUID0;
paths = (
{
closed = 1;
nodes = (
"75 713 LINE",
"75 0 LINE",
"125 0 LINE",
"125 713 LINE"
);
},
{
closed = 1;
nodes = (
"194 711 LINE",
"167 598 LINE",
"198 598 LINE",
"211 618 OFFCURVE",
"242 668 OFFCURVE",
"242 687 CURVE SMOOTH",
"242 704 OFFCURVE",
"230 711 OFFCURVE",
"217 711 CURVE SMOOTH"
);
}
);
width = 200;
},
{
layerId = "13BA1341-7400-426C-964F-62F99446C2B7";
paths = (
{
closed = 1;
nodes = (
"45 747 LINE",
"45 0 LINE",
"196 0 LINE",
"196 747 LINE"
);
},
{
closed = 1;
nodes = (
"257 747 LINE",
"232 592 LINE",
"280 592 LINE",
"298 615 OFFCURVE",
"338 678 OFFCURVE",
"338 715 CURVE SMOOTH",
"338 735 OFFCURVE",
"328 747 OFFCURVE",
"303 747 CURVE SMOOTH"
);
}
);
width = 241;
}
);
unicode = 013E;
},
{
glyphname = lslash;
lastChange = "2018-02-07 10:31:24 +0000";
layers = (
{
components = (
{
name = l;
}
);
layerId = UUID0;
paths = (
{
closed = 1;
nodes = (
"17 461 LINE",
"17 416 LINE",
"183 520 LINE",
"183 565 LINE"
);
}
);
width = 200;
},
{
components = (
{
name = l;
transform = "{1, 0, 0, 1, 2, 0}";
}
);
layerId = "13BA1341-7400-426C-964F-62F99446C2B7";
paths = (
{
closed = 1;
nodes = (
"2 471 LINE",
"2 371 LINE",
"243 468 LINE",
"243 568 LINE"
);
}
);
width = 245;
}
);
unicode = 0142;
},
{
glyphname = m;
lastChange = "2018-02-07 10:31:24 +0000";
layers = (
{
layerId = UUID0;
paths = (
{
closed = 1;
nodes = (
"325 550 OFFCURVE",
"288 565 OFFCURVE",
"242 565 CURVE SMOOTH",
"196 565 OFFCURVE",
"149 547 OFFCURVE",
"124 537 CURVE",
"124 563 LINE",
"75 563 LINE",
"75 0 LINE",
"125 0 LINE",
"125 489 LINE",
"163 507 OFFCURVE",
"200 519 OFFCURVE",
"242 519 CURVE SMOOTH",
"295 519 OFFCURVE",
"328 492 OFFCURVE",
"328 432 CURVE SMOOTH",
"328 0 LINE",
"378 0 LINE",
"378 432 LINE SMOOTH",
"378 450 OFFCURVE",
"376 466 OFFCURVE",
"371 480 CURVE",
"414 507 OFFCURVE",
"454 519 OFFCURVE",
"495 519 CURVE SMOOTH",
"548 519 OFFCURVE",
"581 492 OFFCURVE",
"581 432 CURVE SMOOTH",
"581 0 LINE",
"631 0 LINE",
"631 432 LINE SMOOTH",
"631 517 OFFCURVE",
"578 565 OFFCURVE",
"495 565 CURVE SMOOTH",
"451 565 OFFCURVE",
"401 553 OFFCURVE",
"349 522 CURVE"
);
}
);
width = 701;
},
{
layerId = "13BA1341-7400-426C-964F-62F99446C2B7";
paths = (
{
closed = 1;
nodes = (
"368 582 OFFCURVE",
"335 593 OFFCURVE",
"298 593 CURVE SMOOTH",
"249 593 OFFCURVE",
"207 575 OFFCURVE",
"187 564 CURVE",
"187 590 LINE",
"45 590 LINE",
"45 0 LINE",
"196 0 LINE",
"196 441 LINE",
"206 447 OFFCURVE",
"224 454 OFFCURVE",
"244 454 CURVE SMOOTH",
"263 454 OFFCURVE",
"270 446 OFFCURVE",
"270 430 CURVE SMOOTH",
"270 0 LINE",
"423 0 LINE",
"423 431 LINE",
"423 434 OFFCURVE",
"423 439 OFFCURVE",
"422 441 CURVE",
"432 447 OFFCURVE",
"451 454 OFFCURVE",
"471 454 CURVE SMOOTH",
"490 454 OFFCURVE",
"497 446 OFFCURVE",
"497 430 CURVE SMOOTH",
"497 0 LINE",
"650 0 LINE",
"650 467 LINE SMOOTH",
"650 555 OFFCURVE",
"596 593 OFFCURVE",
"525 593 CURVE SMOOTH",
"479 593 OFFCURVE",
"431 580 OFFCURVE",
"391 559 CURVE"
);
}
);
width = 690;
}
);
unicode = 006D;
},
{
glyphname = n;
lastChange = "2018-02-07 10:31:24 +0000";
layers = (
{
layerId = UUID0;
paths = (
{
closed = 1;
nodes = (
"124 563 LINE",
"75 563 LINE",
"75 0 LINE",
"125 0 LINE",
"125 489 LINE",
"163 507 OFFCURVE",
"200 519 OFFCURVE",
"242 519 CURVE",
"295 519 OFFCURVE",
"328 492 OFFCURVE",
"328 432 CURVE SMOOTH",
"328 0 LINE",
"378 0 LINE",
"378 432 LINE SMOOTH",
"378 517 OFFCURVE",
"325 565 OFFCURVE",
"242 565 CURVE",
"196 565 OFFCURVE",
"149 547 OFFCURVE",
"124 537 CURVE"
);
}
);
width = 448;
},
{
layerId = "13BA1341-7400-426C-964F-62F99446C2B7";
paths = (
{
closed = 1;
nodes = (
"187 590 LINE",
"45 590 LINE",
"45 0 LINE",
"196 0 LINE",
"196 441 LINE",
"206 447 OFFCURVE",
"224 454 OFFCURVE",
"244 454 CURVE SMOOTH",
"263 454 OFFCURVE",
"270 446 OFFCURVE",
"270 430 CURVE SMOOTH",
"270 0 LINE",
"423 0 LINE",
"423 467 LINE SMOOTH",
"423 555 OFFCURVE",
"369 593 OFFCURVE",
"298 593 CURVE SMOOTH",
"249 593 OFFCURVE",
"207 575 OFFCURVE",
"187 564 CURVE"
);
}
);
width = 463;
}
);
unicode = 006E;
},
{
glyphname = o;
lastChange = "2018-02-07 10:31:24 +0000";
layers = (
{
layerId = UUID0;
paths = (
{
closed = 1;
nodes = (
"65 143 LINE SMOOTH",
"65 57 OFFCURVE",
"110 -10 OFFCURVE",
"220 -10 CURVE SMOOTH",
"330 -10 OFFCURVE",
"375 57 OFFCURVE",
"375 143 CURVE SMOOTH",
"375 420 LINE SMOOTH",
"375 506 OFFCURVE",
"330 573 OFFCURVE",
"220 573 CURVE SMOOTH",
"110 573 OFFCURVE",
"65 506 OFFCURVE",
"65 420 CURVE SMOOTH"
);
},
{
closed = 1;
nodes = (
"325 143 LINE SMOOTH",
"325 79 OFFCURVE",
"299 35 OFFCURVE",
"220 35 CURVE SMOOTH",
"141 35 OFFCURVE",
"115 79 OFFCURVE",
"115 143 CURVE SMOOTH",
"115 420 LINE SMOOTH",
"115 484 OFFCURVE",
"141 528 OFFCURVE",
"220 528 CURVE SMOOTH",
"299 528 OFFCURVE",
"325 484 OFFCURVE",
"325 420 CURVE SMOOTH"
);
}
);
width = 440;
},
{
layerId = "13BA1341-7400-426C-964F-62F99446C2B7";
paths = (
{
closed = 1;
nodes = (
"35 151 LINE SMOOTH",
"35 53 OFFCURVE",
"94 -10 OFFCURVE",
"225 -10 CURVE SMOOTH",
"356 -10 OFFCURVE",
"415 53 OFFCURVE",
"415 151 CURVE SMOOTH",
"415 439 LINE",
"415 537 OFFCURVE",
"356 600 OFFCURVE",
"225 600 CURVE SMOOTH",
"94 600 OFFCURVE",
"35 537 OFFCURVE",
"35 439 CURVE SMOOTH"
);
},
{
closed = 1;
nodes = (
"267 156 LINE SMOOTH",
"267 133 OFFCURVE",
"252 118 OFFCURVE",
"225 118 CURVE SMOOTH",
"198 118 OFFCURVE",
"183 133 OFFCURVE",
"183 156 CURVE SMOOTH",
"183 434 LINE SMOOTH",
"183 457 OFFCURVE",
"198 472 OFFCURVE",
"225 472 CURVE SMOOTH",
"252 472 OFFCURVE",
"267 457 OFFCURVE",
"267 434 CURVE"
);
}
);
width = 450;
}
);
unicode = 006F;
},
{
glyphname = oslash;
lastChange = "2018-02-07 10:31:24 +0000";
layers = (
{
components = (
{
name = o;
}
);
layerId = UUID0;
paths = (
{
closed = 1;
nodes = (
"331 563 LINE",
"75 0 LINE",
"119 0 LINE",
"375 563 LINE"
);
}
);
width = 440;
},
{
components = (
{
name = o;
}
);
layerId = "13BA1341-7400-426C-964F-62F99446C2B7";
paths = (
{
closed = 1;
nodes = (
"371 590 LINE",
"15 0 LINE",
"79 0 LINE",
"435 590 LINE"
);
}
);
width = 450;
}
);
unicode = 00F8;
},
{
glyphname = oe;
lastChange = "2018-02-07 10:31:24 +0000";
layers = (
{
components = (
{
name = e;
transform = "{1, 0, 0, 1, 270, 0}";
}
);
layerId = UUID0;
paths = (
{
closed = 1;
nodes = (
"75 143 LINE SMOOTH",
"75 57 OFFCURVE",
"120 -10 OFFCURVE",
"230 -10 CURVE SMOOTH",
"340 -10 OFFCURVE",
"385 57 OFFCURVE",
"385 143 CURVE SMOOTH",
"385 420 LINE SMOOTH",
"385 506 OFFCURVE",
"340 573 OFFCURVE",
"230 573 CURVE SMOOTH",
"120 573 OFFCURVE",
"75 506 OFFCURVE",
"75 420 CURVE SMOOTH"
);
},
{
closed = 1;
nodes = (
"335 143 LINE SMOOTH",
"335 79 OFFCURVE",
"309 35 OFFCURVE",
"230 35 CURVE SMOOTH",
"151 35 OFFCURVE",
"125 79 OFFCURVE",
"125 143 CURVE SMOOTH",
"125 420 LINE SMOOTH",
"125 484 OFFCURVE",
"151 528 OFFCURVE",
"230 528 CURVE SMOOTH",
"309 528 OFFCURVE",
"335 484 OFFCURVE",
"335 420 CURVE SMOOTH"
);
}
);
width = 710;
},
{
components = (
{
name = e;
transform = "{1, 0, 0, 1, 235, 0}";
}
);
layerId = "13BA1341-7400-426C-964F-62F99446C2B7";
paths = (
{
closed = 1;
nodes = (
"35 151 LINE SMOOTH",
"35 53 OFFCURVE",
"94 -10 OFFCURVE",
"225 -10 CURVE SMOOTH",
"356 -10 OFFCURVE",
"415 53 OFFCURVE",
"415 151 CURVE SMOOTH",
"415 439 LINE",
"415 537 OFFCURVE",
"356 600 OFFCURVE",
"225 600 CURVE SMOOTH",
"94 600 OFFCURVE",
"35 537 OFFCURVE",
"35 439 CURVE SMOOTH"
);
},
{
closed = 1;
nodes = (
"267 156 LINE SMOOTH",
"267 133 OFFCURVE",
"252 118 OFFCURVE",
"225 118 CURVE SMOOTH",
"198 118 OFFCURVE",
"183 133 OFFCURVE",
"183 156 CURVE SMOOTH",
"183 434 LINE SMOOTH",
"183 457 OFFCURVE",
"198 472 OFFCURVE",
"225 472 CURVE SMOOTH",
"252 472 OFFCURVE",
"267 457 OFFCURVE",
"267 434 CURVE"
);
}
);
width = 682;
}
);
unicode = 0153;
},
{
glyphname = p;
lastChange = "2018-02-07 10:31:24 +0000";
layers = (
{
layerId = UUID0;
paths = (
{
closed = 1;
nodes = (
"124 563 LINE",
"75 563 LINE",
"75 -149 LINE",
"125 -149 LINE",
"125 0 LINE",
"232 0 LINE SMOOTH",
"320 0 OFFCURVE",
"378 57 OFFCURVE",
"378 150 CURVE SMOOTH",
"378 432 LINE SMOOTH",
"378 517 OFFCURVE",
"325 565 OFFCURVE",
"242 565 CURVE SMOOTH",
"196 565 OFFCURVE",
"148 546 OFFCURVE",
"124 536 CURVE"
);
},
{
closed = 1;
nodes = (
"328 150 LINE SMOOTH",
"328 81 OFFCURVE",
"290 45 OFFCURVE",
"221 45 CURVE SMOOTH",
"125 45 LINE",
"125 489 LINE",
"163 507 OFFCURVE",
"200 519 OFFCURVE",
"242 519 CURVE SMOOTH",
"295 519 OFFCURVE",
"328 492 OFFCURVE",
"328 432 CURVE SMOOTH"
);
}
);
width = 443;
},
{
layerId = "13BA1341-7400-426C-964F-62F99446C2B7";
paths = (
{
closed = 1;
nodes = (
"187 590 LINE",
"45 590 LINE",
"45 -149 LINE",
"196 -149 LINE",
"196 0 LINE",
"275 0 LINE SMOOTH",
"363 0 OFFCURVE",
"428 43 OFFCURVE",
"428 147 CURVE SMOOTH",
"428 467 LINE SMOOTH",
"428 555 OFFCURVE",
"374 593 OFFCURVE",
"303 593 CURVE SMOOTH",
"254 593 OFFCURVE",
"207 575 OFFCURVE",
"187 564 CURVE"
);
},
{
closed = 1;
nodes = (
"275 171 LINE SMOOTH",
"275 148 OFFCURVE",
"261 139 OFFCURVE",
"236 139 CURVE SMOOTH",
"196 139 LINE",
"196 441 LINE",
"206 447 OFFCURVE",
"226 454 OFFCURVE",
"246 454 CURVE SMOOTH",
"265 454 OFFCURVE",
"275 446 OFFCURVE",
"275 430 CURVE SMOOTH"
);
}
);
width = 463;
}
);
unicode = 0070;
},
{
glyphname = thorn;
lastChange = "2018-02-07 10:31:24 +0000";
layers = (
{
layerId = UUID0;
paths = (
{
closed = 1;
nodes = (
"75 713 LINE",
"75 -179 LINE",
"125 -179 LINE",
"125 0 LINE",
"232 0 LINE SMOOTH",
"320 0 OFFCURVE",
"378 57 OFFCURVE",
"378 150 CURVE SMOOTH",
"378 432 LINE SMOOTH",
"378 517 OFFCURVE",
"325 565 OFFCURVE",
"242 565 CURVE SMOOTH",
"196 565 OFFCURVE",
"149 547 OFFCURVE",
"124 537 CURVE",
"124 713 LINE"
);
},
{
closed = 1;
nodes = (
"328 150 LINE SMOOTH",
"328 81 OFFCURVE",
"290 45 OFFCURVE",
"221 45 CURVE SMOOTH",
"125 45 LINE",
"125 489 LINE",
"163 507 OFFCURVE",
"200 519 OFFCURVE",
"242 519 CURVE SMOOTH",
"295 519 OFFCURVE",
"328 492 OFFCURVE",
"328 432 CURVE SMOOTH"
);
}
);
width = 453;
},
{
layerId = "13BA1341-7400-426C-964F-62F99446C2B7";
paths = (
{
closed = 1;
nodes = (
"45 747 LINE",
"45 -157 LINE",
"196 -157 LINE",
"196 0 LINE",
"275 0 LINE SMOOTH",
"363 0 OFFCURVE",
"428 43 OFFCURVE",
"428 147 CURVE SMOOTH",
"428 467 LINE SMOOTH",
"428 555 OFFCURVE",
"374 593 OFFCURVE",
"303 593 CURVE SMOOTH",
"254 593 OFFCURVE",
"216 579 OFFCURVE",
"196 568 CURVE",
"196 747 LINE"
);
},
{
closed = 1;
nodes = (
"275 167 LINE SMOOTH",
"275 144 OFFCURVE",
"261 135 OFFCURVE",
"236 135 CURVE SMOOTH",
"196 135 LINE",
"196 443 LINE",
"206 449 OFFCURVE",
"226 456 OFFCURVE",
"246 456 CURVE SMOOTH",
"265 456 OFFCURVE",
"275 448 OFFCURVE",
"275 432 CURVE SMOOTH"
);
}
);
width = 463;
}
);
unicode = 00FE;
},
{
glyphname = q;
lastChange = "2018-02-07 10:31:24 +0000";
layers = (
{
layerId = UUID0;
paths = (
{
closed = 1;
nodes = (
"215 563 LINE",
"127 563 OFFCURVE",
"65 508 OFFCURVE",
"65 415 CURVE SMOOTH",
"65 142 LINE SMOOTH",
"65 49 OFFCURVE",
"113 -3 OFFCURVE",
"208 -3 CURVE SMOOTH",
"265 -3 OFFCURVE",
"297 14 OFFCURVE",
"319 31 CURVE",
"319 -149 LINE",
"368 -149 LINE",
"368 563 LINE"
);
},
{
closed = 1;
nodes = (
"318 82 LINE",
"298 62 OFFCURVE",
"261 42 OFFCURVE",
"209 42 CURVE SMOOTH",
"146 42 OFFCURVE",
"115 74 OFFCURVE",
"115 141 CURVE SMOOTH",
"115 415 LINE SMOOTH",
"115 484 OFFCURVE",
"157 517 OFFCURVE",
"226 517 CURVE SMOOTH",
"318 517 LINE"
);
}
);
width = 443;
},
{
layerId = "13BA1341-7400-426C-964F-62F99446C2B7";
paths = (
{
closed = 1;
nodes = (
"221 590 LINE",
"91 590 OFFCURVE",
"35 518 OFFCURVE",
"35 411 CURVE SMOOTH",
"35 149 LINE SMOOTH",
"35 51 OFFCURVE",
"80 0 OFFCURVE",
"175 0 CURVE SMOOTH",
"220 0 OFFCURVE",
"255 9 OFFCURVE",
"266 13 CURVE",
"266 -149 LINE",
"417 -149 LINE",
"417 590 LINE"
);
},
{
closed = 1;
nodes = (
"266 145 LINE",
"256 141 OFFCURVE",
"239 135 OFFCURVE",
"219 135 CURVE SMOOTH",
"197 135 OFFCURVE",
"186 146 OFFCURVE",
"186 166 CURVE SMOOTH",
"186 405 LINE SMOOTH",
"186 440 OFFCURVE",
"203 456 OFFCURVE",
"233 456 CURVE SMOOTH",
"266 456 LINE"
);
}
);
width = 462;
}
);
unicode = 0071;
},
{
glyphname = r;
lastChange = "2018-02-07 10:31:24 +0000";
layers = (
{
layerId = UUID0;
paths = (
{
closed = 1;
nodes = (
"240 566 LINE",
"180 566 OFFCURVE",
"161 546 OFFCURVE",
"124 519 CURVE",
"124 563 LINE",
"75 563 LINE",
"75 0 LINE",
"125 0 LINE",
"125 465 LINE",
"175 501 OFFCURVE",
"189 517 OFFCURVE",
"231 517 CURVE",
"267 517 LINE",
"267 566 LINE"
);
}
);
width = 272;
},
{
layerId = "13BA1341-7400-426C-964F-62F99446C2B7";
paths = (
{
closed = 1;
nodes = (
"300 593 LINE",
"256 593 OFFCURVE",
"233 579 OFFCURVE",
"187 550 CURVE",
"187 590 LINE",
"45 590 LINE",
"45 0 LINE",
"196 0 LINE",
"196 434 LINE",
"217 444 OFFCURVE",
"253 454 OFFCURVE",
"294 454 CURVE",
"317 454 LINE",
"317 593 LINE"
);
}
);
width = 322;
}
);
unicode = 0072;
},
{
glyphname = s;
lastChange = "2018-02-07 10:31:24 +0000";
layers = (
{
layerId = UUID0;
paths = (
{
closed = 1;
nodes = (
"30 399 LINE SMOOTH",
"30 334 OFFCURVE",
"60 297 OFFCURVE",
"117 273 CURVE SMOOTH",
"208 233 LINE SMOOTH",
"261 210 OFFCURVE",
"274 192 OFFCURVE",
"274 151 CURVE SMOOTH",
"274 128 LINE SMOOTH",
"274 73 OFFCURVE",
"245 41 OFFCURVE",
"152 41 CURVE SMOOTH",
"104 41 OFFCURVE",
"66 49 OFFCURVE",
"35 60 CURVE",
"35 12 LINE",
"63 3 OFFCURVE",
"101 -5 OFFCURVE",
"152 -5 CURVE SMOOTH",
"269 -5 OFFCURVE",
"324 42 OFFCURVE",
"324 128 CURVE SMOOTH",
"324 155 LINE",
"324 216 OFFCURVE",
"288 249 OFFCURVE",
"231 275 CURVE SMOOTH",
"144 314 LINE SMOOTH",
"97 334 OFFCURVE",
"80 353 OFFCURVE",
"80 405 CURVE SMOOTH",
"80 435 LINE SMOOTH",
"80 493 OFFCURVE",
"98 522 OFFCURVE",
"191 522 CURVE SMOOTH",
"232 522 OFFCURVE",
"268 514 OFFCURVE",
"299 503 CURVE",
"299 551 LINE",
"271 560 OFFCURVE",
"232 568 OFFCURVE",
"191 568 CURVE SMOOTH",
"74 568 OFFCURVE",
"30 522 OFFCURVE",
"30 435 CURVE SMOOTH"
);
}
);
width = 354;
},
{
layerId = "13BA1341-7400-426C-964F-62F99446C2B7";
paths = (
{
closed = 1;
nodes = (
"22 408 LINE SMOOTH",
"22 342 OFFCURVE",
"53 307 OFFCURVE",
"93 280 CURVE SMOOTH",
"161 235 LINE SMOOTH",
"206 205 OFFCURVE",
"218 197 OFFCURVE",
"218 176 CURVE SMOOTH",
"218 167 LINE SMOOTH",
"218 144 OFFCURVE",
"204 129 OFFCURVE",
"127 129 CURVE SMOOTH",
"85 129 OFFCURVE",
"40 137 OFFCURVE",
"20 143 CURVE",
"20 8 LINE",
"53 0 OFFCURVE",
"87 -5 OFFCURVE",
"150 -5 CURVE SMOOTH",
"298 -5 OFFCURVE",
"368 52 OFFCURVE",
"368 161 CURVE SMOOTH",
"368 186 LINE SMOOTH",
"368 250 OFFCURVE",
"335 286 OFFCURVE",
"289 316 CURVE SMOOTH",
"208 370 LINE SMOOTH",
"175 392 OFFCURVE",
"168 400 OFFCURVE",
"168 416 CURVE SMOOTH",
"168 424 LINE",
"168 448 OFFCURVE",
"180 462 OFFCURVE",
"239 462 CURVE SMOOTH",
"281 462 OFFCURVE",
"334 452 OFFCURVE",
"349 447 CURVE",
"349 580 LINE",
"320 589 OFFCURVE",
"268 595 OFFCURVE",
"227 595 CURVE SMOOTH",
"78 595 OFFCURVE",
"22 537 OFFCURVE",
"22 434 CURVE SMOOTH"
);
}
);
width = 388;
}
);
unicode = 0073;
},
{
glyphname = germandbls;
lastChange = "2018-02-07 10:31:24 +0000";
layers = (
{
layerId = UUID0;
paths = (
{
closed = 1;
nodes = (
"75 0 LINE",
"125 0 LINE",
"125 557 LINE SMOOTH",
"125 631 OFFCURVE",
"163 667 OFFCURVE",
"253 667 CURVE SMOOTH",
"333 667 OFFCURVE",
"366 631 OFFCURVE",
"366 570 CURVE SMOOTH",
"366 478 OFFCURVE",
"270 467 OFFCURVE",
"270 379 CURVE SMOOTH",
"270 368 LINE SMOOTH",
"270 310 OFFCURVE",
"297 285 OFFCURVE",
"390 239 CURVE SMOOTH",
"444 212 OFFCURVE",
"456 194 OFFCURVE",
"456 153 CURVE SMOOTH",
"456 132 LINE SMOOTH",
"456 81 OFFCURVE",
"427 43 OFFCURVE",
"334 43 CURVE SMOOTH",
"286 43 OFFCURVE",
"248 51 OFFCURVE",
"217 62 CURVE",
"217 12 LINE",
"245 3 OFFCURVE",
"283 -5 OFFCURVE",
"334 -5 CURVE SMOOTH",
"451 -5 OFFCURVE",
"506 50 OFFCURVE",
"506 132 CURVE SMOOTH",
"506 157 LINE SMOOTH",
"506 216 OFFCURVE",
"472 246 OFFCURVE",
"405 280 CURVE SMOOTH",
"325 320 OFFCURVE",
"319 342 OFFCURVE",
"319 370 CURVE SMOOTH",
"319 380 LINE SMOOTH",
"319 440 OFFCURVE",
"416 465 OFFCURVE",
"416 570 CURVE SMOOTH",
"416 660 OFFCURVE",
"353 713 OFFCURVE",
"253 713 CURVE SMOOTH",
"137 713 OFFCURVE",
"75 660 OFFCURVE",
"75 557 CURVE SMOOTH"
);
}
);
width = 528;
},
{
layerId = "13BA1341-7400-426C-964F-62F99446C2B7";
paths = (
{
closed = 1;
nodes = (
"45 0 LINE",
"186 0 LINE",
"186 509 LINE SMOOTH",
"186 570 OFFCURVE",
"209 595 OFFCURVE",
"256 595 CURVE SMOOTH",
"298 595 OFFCURVE",
"318 575 OFFCURVE",
"318 539 CURVE SMOOTH",
"318 488 OFFCURVE",
"266 439 OFFCURVE",
"266 380 CURVE SMOOTH",
"266 360 LINE",
"266 314 OFFCURVE",
"302 279 OFFCURVE",
"337 250 CURVE SMOOTH",
"373 221 OFFCURVE",
"408 198 OFFCURVE",
"408 174 CURVE SMOOTH",
"408 166 LINE SMOOTH",
"408 139 OFFCURVE",
"398 127 OFFCURVE",
"332 127 CURVE SMOOTH",
"292 127 OFFCURVE",
"259 136 OFFCURVE",
"240 142 CURVE",
"240 9 LINE",
"271 3 OFFCURVE",
"290 -3 OFFCURVE",
"351 -3 CURVE SMOOTH",
"493 -3 OFFCURVE",
"552 53 OFFCURVE",
"552 153 CURVE SMOOTH",
"552 186 LINE SMOOTH",
"552 240 OFFCURVE",
"519 276 OFFCURVE",
"486 304 CURVE SMOOTH",
"452 332 OFFCURVE",
"419 353 OFFCURVE",
"419 377 CURVE SMOOTH",
"419 388 LINE SMOOTH",
"419 421 OFFCURVE",
"467 466 OFFCURVE",
"467 547 CURVE SMOOTH",
"467 661 OFFCURVE",
"383 727 OFFCURVE",
"256 727 CURVE SMOOTH",
"119 727 OFFCURVE",
"45 654 OFFCURVE",
"45 522 CURVE SMOOTH"
);
}
);
width = 569;
}
);
unicode = 00DF;
},
{
glyphname = t;
lastChange = "2018-02-07 10:31:24 +0000";
layers = (
{
layerId = UUID0;
paths = (
{
closed = 1;
nodes = (
"85 667 LINE",
"71 563 LINE",
"5 563 LINE",
"5 518 LINE",
"70 518 LINE",
"70 116 LINE SMOOTH",
"70 38 OFFCURVE",
"115 -3 OFFCURVE",
"197 -3 CURVE SMOOTH",
"223 -3 OFFCURVE",
"258 3 OFFCURVE",
"268 6 CURVE",
"268 52 LINE",
"257 48 OFFCURVE",
"224 42 OFFCURVE",
"197 42 CURVE SMOOTH",
"147 42 OFFCURVE",
"120 61 OFFCURVE",
"120 116 CURVE SMOOTH",
"120 518 LINE",
"257 518 LINE",
"257 563 LINE",
"120 563 LINE",
"120 667 LINE"
);
}
);
width = 283;
},
{
layerId = "13BA1341-7400-426C-964F-62F99446C2B7";
paths = (
{
closed = 1;
nodes = (
"111 692 LINE",
"65 590 LINE",
"5 590 LINE",
"5 463 LINE",
"58 463 LINE",
"58 147 LINE SMOOTH",
"58 52 OFFCURVE",
"96 -9 OFFCURVE",
"215 -9 CURVE",
"270 -9 OFFCURVE",
"304 7 OFFCURVE",
"304 7 CURVE",
"304 141 LINE",
"304 141 OFFCURVE",
"282 127 OFFCURVE",
"247 127 CURVE",
"220 127 OFFCURVE",
"209 141 OFFCURVE",
"209 163 CURVE SMOOTH",
"209 463 LINE",
"298 463 LINE",
"298 590 LINE",
"209 590 LINE",
"209 692 LINE"
);
}
);
width = 319;
}
);
unicode = 0074;
},
{
glyphname = comma;
lastChange = "2018-02-07 10:31:24 +0000";
layers = (
{
layerId = UUID0;
paths = (
{
closed = 1;
nodes = (
"44 69 LINE",
"4 -124 LINE",
"36 -124 LINE",
"55 -82 OFFCURVE",
"97 12 OFFCURVE",
"97 43 CURVE SMOOTH",
"97 61 OFFCURVE",
"84 69 OFFCURVE",
"69 69 CURVE SMOOTH"
);
}
);
width = 126;
},
{
layerId = "13BA1341-7400-426C-964F-62F99446C2B7";
paths = (
{
closed = 1;
nodes = (
"61 145 LINE",
"15 -133 LINE",
"95 -133 LINE",
"126 -92 OFFCURVE",
"199 22 OFFCURVE",
"199 88 CURVE SMOOTH",
"199 124 OFFCURVE",
"180 145 OFFCURVE",
"136 145 CURVE SMOOTH"
);
}
);
width = 220;
}
);
unicode = 002C;
},
{
glyphname = u;
lastChange = "2018-02-07 10:31:24 +0000";
layers = (
{
layerId = UUID0;
paths = (
{
closed = 1;
nodes = (
"323 563 LINE",
"323 77 LINE",
"323 77 OFFCURVE",
"280 41 OFFCURVE",
"215 41 CURVE SMOOTH",
"152 41 OFFCURVE",
"120 75 OFFCURVE",
"120 142 CURVE SMOOTH",
"120 563 LINE",
"70 563 LINE",
"70 142 LINE SMOOTH",
"70 49 OFFCURVE",
"119 -3 OFFCURVE",
"214 -3 CURVE SMOOTH",
"278 -3 OFFCURVE",
"324 27 OFFCURVE",
"324 27 CURVE",
"324 0 LINE",
"373 0 LINE",
"373 563 LINE"
);
}
);
width = 448;
},
{
layerId = "13BA1341-7400-426C-964F-62F99446C2B7";
paths = (
{
closed = 1;
nodes = (
"271 590 LINE",
"271 148 LINE",
"261 142 OFFCURVE",
"241 136 OFFCURVE",
"221 136 CURVE SMOOTH",
"201 136 OFFCURVE",
"193 146 OFFCURVE",
"193 162 CURVE SMOOTH",
"193 590 LINE",
"40 590 LINE",
"40 132 LINE SMOOTH",
"40 47 OFFCURVE",
"85 0 OFFCURVE",
"169 0 CURVE SMOOTH",
"224 0 OFFCURVE",
"260 16 OFFCURVE",
"280 27 CURVE",
"280 0 LINE",
"422 0 LINE",
"422 590 LINE"
);
}
);
width = 467;
}
);
unicode = 0075;
},
{
glyphname = gcommaaccent;
lastChange = "2018-02-07 10:31:24 +0000";
layers = (
{
layerId = UUID0;
paths = (
{
closed = 1;
nodes = (
"98 136 LINE SMOOTH",
"98 82 OFFCURVE",
"141 51 OFFCURVE",
"216 51 CURVE SMOOTH",
"276 51 LINE SMOOTH",
"349 51 OFFCURVE",
"359 22 OFFCURVE",
"359 -18 CURVE SMOOTH",
"359 -29 LINE SMOOTH",
"359 -75 OFFCURVE",
"327 -104 OFFCURVE",
"234 -104 CURVE SMOOTH",
"194 -104 LINE SMOOTH",
"126 -104 OFFCURVE",
"86 -93 OFFCURVE",
"45 -71 CURVE",
"45 -121 LINE",
"76 -137 OFFCURVE",
"125 -149 OFFCURVE",
"194 -149 CURVE SMOOTH",
"235 -149 LINE SMOOTH",
"363 -149 OFFCURVE",
"409 -102 OFFCURVE",
"409 -28 CURVE SMOOTH",
"409 -18 LINE SMOOTH",
"409 54 OFFCURVE",
"372 96 OFFCURVE",
"275 96 CURVE SMOOTH",
"216 96 LINE SMOOTH",
"162 96 OFFCURVE",
"144 113 OFFCURVE",
"144 148 CURVE SMOOTH",
"144 190 OFFCURVE",
"166 209 OFFCURVE",
"209 209 CURVE",
"197 214 OFFCURVE",
"188 219 OFFCURVE",
"173 219 CURVE",
"138 221 OFFCURVE",
"98 198 OFFCURVE",
"98 152 CURVE SMOOTH"
);
},
{
closed = 1;
nodes = (
"49 352 LINE SMOOTH",
"49 266 OFFCURVE",
"99 209 OFFCURVE",
"209 209 CURVE SMOOTH",
"319 209 OFFCURVE",
"369 266 OFFCURVE",
"369 352 CURVE SMOOTH",
"369 430 LINE SMOOTH",
"369 516 OFFCURVE",
"319 573 OFFCURVE",
"209 573 CURVE SMOOTH",
"99 573 OFFCURVE",
"49 516 OFFCURVE",
"49 430 CURVE SMOOTH"
);
},
{
closed = 1;
nodes = (
"319 352 LINE SMOOTH",
"319 288 OFFCURVE",
"288 254 OFFCURVE",
"209 254 CURVE SMOOTH",
"130 254 OFFCURVE",
"99 288 OFFCURVE",
"99 352 CURVE SMOOTH",
"99 430 LINE SMOOTH",
"99 494 OFFCURVE",
"130 528 OFFCURVE",
"209 528 CURVE SMOOTH",
"288 528 OFFCURVE",
"319 494 OFFCURVE",
"319 430 CURVE SMOOTH"
);
},
{
closed = 1;
nodes = (
"404 599 LINE",
"357 599 OFFCURVE",
"323 577 OFFCURVE",
"315 530 CURVE",
"325 517 LINE",
"337 535 OFFCURVE",
"357 548 OFFCURVE",
"386 548 CURVE SMOOTH",
"419 548 LINE",
"419 599 LINE"
);
},
{
closed = 1;
nodes = (
"233 608 LINE",
"260 721 LINE",
"229 721 LINE",
"216 701 OFFCURVE",
"185 651 OFFCURVE",
"185 632 CURVE SMOOTH",
"185 615 OFFCURVE",
"197 608 OFFCURVE",
"210 608 CURVE SMOOTH"
);
}
);
width = 444;
},
{
layerId = "13BA1341-7400-426C-964F-62F99446C2B7";
paths = (
{
closed = 1;
nodes = (
"70 122 LINE SMOOTH",
"70 58 OFFCURVE",
"120 33 OFFCURVE",
"214 33 CURVE SMOOTH",
"275 33 LINE SMOOTH",
"301 33 OFFCURVE",
"309 27 OFFCURVE",
"309 13 CURVE SMOOTH",
"309 8 LINE SMOOTH",
"309 -13 OFFCURVE",
"291 -24 OFFCURVE",
"218 -24 CURVE SMOOTH",
"197 -24 LINE SMOOTH",
"120 -24 OFFCURVE",
"48 5 OFFCURVE",
"15 31 CURVE",
"15 -106 LINE",
"42 -126 OFFCURVE",
"108 -150 OFFCURVE",
"201 -150 CURVE SMOOTH",
"238 -150 LINE SMOOTH",
"382 -150 OFFCURVE",
"449 -90 OFFCURVE",
"449 4 CURVE SMOOTH",
"449 29 LINE SMOOTH",
"449 117 OFFCURVE",
"398 155 OFFCURVE",
"297 155 CURVE SMOOTH",
"242 155 LINE SMOOTH",
"212 155 OFFCURVE",
"202 160 OFFCURVE",
"202 177 CURVE SMOOTH",
"202 189 OFFCURVE",
"209 199 OFFCURVE",
"228 199 CURVE",
"209 205 OFFCURVE",
"168 213 OFFCURVE",
"144 213 CURVE SMOOTH",
"91 213 OFFCURVE",
"70 179 OFFCURVE",
"70 138 CURVE SMOOTH"
);
},
{
closed = 1;
nodes = (
"23 357 LINE SMOOTH",
"23 259 OFFCURVE",
"84 199 OFFCURVE",
"218 199 CURVE SMOOTH",
"352 199 OFFCURVE",
"413 259 OFFCURVE",
"413 357 CURVE SMOOTH",
"413 443 LINE SMOOTH",
"413 541 OFFCURVE",
"352 600 OFFCURVE",
"218 600 CURVE SMOOTH",
"84 600 OFFCURVE",
"23 541 OFFCURVE",
"23 443 CURVE SMOOTH"
);
},
{
closed = 1;
nodes = (
"263 358 LINE SMOOTH",
"263 332 OFFCURVE",
"250 319 OFFCURVE",
"218 319 CURVE SMOOTH",
"186 319 OFFCURVE",
"173 332 OFFCURVE",
"173 358 CURVE SMOOTH",
"173 442 LINE SMOOTH",
"173 468 OFFCURVE",
"186 481 OFFCURVE",
"218 481 CURVE SMOOTH",
"250 481 OFFCURVE",
"263 468 OFFCURVE",
"263 442 CURVE SMOOTH"
);
},
{
closed = 1;
nodes = (
"435 659 LINE",
"370 659 OFFCURVE",
"327 620 OFFCURVE",
"320 547 CURVE",
"360 511 LINE",
"374 520 OFFCURVE",
"393 525 OFFCURVE",
"416 525 CURVE SMOOTH",
"451 525 LINE",
"451 659 LINE"
);
},
{
closed = 1;
nodes = (
"253 632 LINE",
"278 787 LINE",
"230 787 LINE",
"212 764 OFFCURVE",
"172 701 OFFCURVE",
"172 664 CURVE SMOOTH",
"172 644 OFFCURVE",
"182 632 OFFCURVE",
"207 632 CURVE SMOOTH"
);
}
);
width = 456;
}
);
unicode = 0123;
},
{
glyphname = kcommaaccent;
lastChange = "2018-02-07 10:31:24 +0000";
layers = (
{
layerId = UUID0;
paths = (
{
closed = 1;
nodes = (
"310 563 LINE",
"173 289 LINE",
"317 0 LINE",
"374 0 LINE",
"230 291 LINE",
"366 563 LINE"
);
},
{
closed = 1;
nodes = (
"75 713 LINE",
"75 0 LINE",
"125 0 LINE",
"125 713 LINE"
);
},
{
closed = 1;
nodes = (
"188 -61 LINE",
"161 -174 LINE",
"192 -174 LINE",
"205 -154 OFFCURVE",
"236 -104 OFFCURVE",
"236 -85 CURVE SMOOTH",
"236 -68 OFFCURVE",
"224 -61 OFFCURVE",
"211 -61 CURVE SMOOTH"
);
}
);
width = 394;
},
{
layerId = "13BA1341-7400-426C-964F-62F99446C2B7";
paths = (
{
closed = 1;
nodes = (
"265 590 LINE",
"183 319 LINE",
"271 0 LINE",
"429 0 LINE",
"329 311 LINE",
"414 590 LINE"
);
},
{
closed = 1;
nodes = (
"45 747 LINE",
"45 0 LINE",
"191 0 LINE",
"191 747 LINE"
);
},
{
closed = 1;
nodes = (
"184 -61 LINE",
"159 -216 LINE",
"207 -216 LINE",
"225 -193 OFFCURVE",
"265 -130 OFFCURVE",
"265 -93 CURVE SMOOTH",
"265 -73 OFFCURVE",
"255 -61 OFFCURVE",
"230 -61 CURVE SMOOTH"
);
}
);
width = 434;
}
);
unicode = 0137;
},
{
glyphname = lcommaaccent;
lastChange = "2018-02-07 10:31:24 +0000";
layers = (
{
layerId = UUID0;
paths = (
{
closed = 1;
nodes = (
"75 713 LINE",
"75 0 LINE",
"125 0 LINE",
"125 713 LINE"
);
},
{
closed = 1;
nodes = (
"79 -61 LINE",
"52 -174 LINE",
"83 -174 LINE",
"96 -154 OFFCURVE",
"127 -104 OFFCURVE",
"127 -85 CURVE SMOOTH",
"127 -68 OFFCURVE",
"115 -61 OFFCURVE",
"102 -61 CURVE SMOOTH"
);
}
);
width = 200;
},
{
layerId = "13BA1341-7400-426C-964F-62F99446C2B7";
paths = (
{
closed = 1;
nodes = (
"45 747 LINE",
"45 0 LINE",
"196 0 LINE",
"196 747 LINE"
);
},
{
closed = 1;
nodes = (
"82 -61 LINE",
"57 -216 LINE",
"105 -216 LINE",
"123 -193 OFFCURVE",
"163 -130 OFFCURVE",
"163 -93 CURVE SMOOTH",
"163 -73 OFFCURVE",
"153 -61 OFFCURVE",
"128 -61 CURVE SMOOTH"
);
}
);
width = 241;
}
);
unicode = 013C;
},
{
glyphname = ncommaaccent;
lastChange = "2018-02-07 10:31:24 +0000";
layers = (
{
layerId = UUID0;
paths = (
{
closed = 1;
nodes = (
"124 563 LINE",
"75 563 LINE",
"75 0 LINE",
"125 0 LINE",
"125 489 LINE",
"163 507 OFFCURVE",
"200 519 OFFCURVE",
"242 519 CURVE",
"295 519 OFFCURVE",
"328 492 OFFCURVE",
"328 432 CURVE SMOOTH",
"328 0 LINE",
"378 0 LINE",
"378 432 LINE SMOOTH",
"378 517 OFFCURVE",
"325 565 OFFCURVE",
"242 565 CURVE",
"196 565 OFFCURVE",
"149 547 OFFCURVE",
"124 537 CURVE"
);
},
{
closed = 1;
nodes = (
"195 -61 LINE",
"168 -174 LINE",
"199 -174 LINE",
"212 -154 OFFCURVE",
"243 -104 OFFCURVE",
"243 -85 CURVE SMOOTH",
"243 -68 OFFCURVE",
"231 -61 OFFCURVE",
"218 -61 CURVE SMOOTH"
);
}
);
width = 448;
},
{
layerId = "13BA1341-7400-426C-964F-62F99446C2B7";
paths = (
{
closed = 1;
nodes = (
"187 590 LINE",
"45 590 LINE",
"45 0 LINE",
"196 0 LINE",
"196 441 LINE",
"206 447 OFFCURVE",
"224 454 OFFCURVE",
"244 454 CURVE SMOOTH",
"263 454 OFFCURVE",
"270 446 OFFCURVE",
"270 430 CURVE SMOOTH",
"270 0 LINE",
"423 0 LINE",
"423 467 LINE SMOOTH",
"423 555 OFFCURVE",
"369 593 OFFCURVE",
"298 593 CURVE SMOOTH",
"249 593 OFFCURVE",
"207 575 OFFCURVE",
"187 564 CURVE"
);
},
{
closed = 1;
nodes = (
"196 -61 LINE",
"171 -216 LINE",
"219 -216 LINE",
"237 -193 OFFCURVE",
"277 -130 OFFCURVE",
"277 -93 CURVE SMOOTH",
"277 -73 OFFCURVE",
"267 -61 OFFCURVE",
"242 -61 CURVE SMOOTH"
);
}
);
width = 463;
}
);
unicode = 0146;
},
{
glyphname = rcommaaccent;
lastChange = "2018-02-07 10:31:24 +0000";
layers = (
{
layerId = UUID0;
paths = (
{
closed = 1;
nodes = (
"240 566 LINE",
"180 566 OFFCURVE",
"161 546 OFFCURVE",
"124 519 CURVE",
"124 563 LINE",
"75 563 LINE",
"75 0 LINE",
"125 0 LINE",
"125 465 LINE",
"175 501 OFFCURVE",
"189 517 OFFCURVE",
"231 517 CURVE",
"267 517 LINE",
"267 566 LINE"
);
},
{
closed = 1;
nodes = (
"79 -61 LINE",
"52 -174 LINE",
"83 -174 LINE",
"96 -154 OFFCURVE",
"127 -104 OFFCURVE",
"127 -85 CURVE SMOOTH",
"127 -68 OFFCURVE",
"115 -61 OFFCURVE",
"102 -61 CURVE SMOOTH"
);
}
);
width = 272;
},
{
layerId = "13BA1341-7400-426C-964F-62F99446C2B7";
paths = (
{
closed = 1;
nodes = (
"300 593 LINE",
"256 593 OFFCURVE",
"233 579 OFFCURVE",
"187 550 CURVE",
"187 590 LINE",
"45 590 LINE",
"45 0 LINE",
"196 0 LINE",
"196 434 LINE",
"217 444 OFFCURVE",
"253 454 OFFCURVE",
"294 454 CURVE",
"317 454 LINE",
"317 593 LINE"
);
},
{
closed = 1;
nodes = (
"82 -61 LINE",
"57 -216 LINE",
"105 -216 LINE",
"123 -193 OFFCURVE",
"163 -130 OFFCURVE",
"163 -93 CURVE SMOOTH",
"163 -73 OFFCURVE",
"153 -61 OFFCURVE",
"128 -61 CURVE SMOOTH"
);
}
);
width = 322;
}
);
unicode = 0157;
},
{
glyphname = scedilla;
lastChange = "2018-02-07 10:31:24 +0000";
layers = (
{
layerId = UUID0;
paths = (
{
closed = 1;
nodes = (
"30 399 LINE SMOOTH",
"30 334 OFFCURVE",
"60 297 OFFCURVE",
"117 273 CURVE SMOOTH",
"208 233 LINE SMOOTH",
"261 210 OFFCURVE",
"274 192 OFFCURVE",
"274 151 CURVE SMOOTH",
"274 128 LINE SMOOTH",
"274 73 OFFCURVE",
"245 41 OFFCURVE",
"152 41 CURVE SMOOTH",
"104 41 OFFCURVE",
"66 49 OFFCURVE",
"35 60 CURVE",
"35 12 LINE",
"63 3 OFFCURVE",
"101 -5 OFFCURVE",
"152 -5 CURVE SMOOTH",
"269 -5 OFFCURVE",
"324 42 OFFCURVE",
"324 128 CURVE SMOOTH",
"324 155 LINE",
"324 216 OFFCURVE",
"288 249 OFFCURVE",
"231 275 CURVE SMOOTH",
"144 314 LINE SMOOTH",
"97 334 OFFCURVE",
"80 353 OFFCURVE",
"80 405 CURVE SMOOTH",
"80 435 LINE SMOOTH",
"80 493 OFFCURVE",
"98 522 OFFCURVE",
"191 522 CURVE SMOOTH",
"232 522 OFFCURVE",
"268 514 OFFCURVE",
"299 503 CURVE",
"299 551 LINE",
"271 560 OFFCURVE",
"232 568 OFFCURVE",
"191 568 CURVE SMOOTH",
"74 568 OFFCURVE",
"30 522 OFFCURVE",
"30 435 CURVE SMOOTH"
);
},
{
closed = 1;
nodes = (
"149 -61 LINE",
"122 -174 LINE",
"153 -174 LINE",
"166 -154 OFFCURVE",
"197 -104 OFFCURVE",
"197 -85 CURVE SMOOTH",
"197 -68 OFFCURVE",
"185 -61 OFFCURVE",
"172 -61 CURVE SMOOTH"
);
}
);
width = 354;
},
{
layerId = "13BA1341-7400-426C-964F-62F99446C2B7";
paths = (
{
closed = 1;
nodes = (
"22 408 LINE SMOOTH",
"22 342 OFFCURVE",
"53 307 OFFCURVE",
"93 280 CURVE SMOOTH",
"161 235 LINE SMOOTH",
"206 205 OFFCURVE",
"218 197 OFFCURVE",
"218 176 CURVE SMOOTH",
"218 167 LINE SMOOTH",
"218 144 OFFCURVE",
"204 129 OFFCURVE",
"127 129 CURVE SMOOTH",
"85 129 OFFCURVE",
"40 137 OFFCURVE",
"20 143 CURVE",
"20 8 LINE",
"53 0 OFFCURVE",
"87 -5 OFFCURVE",
"150 -5 CURVE SMOOTH",
"298 -5 OFFCURVE",
"368 52 OFFCURVE",
"368 161 CURVE SMOOTH",
"368 186 LINE SMOOTH",
"368 250 OFFCURVE",
"335 286 OFFCURVE",
"289 316 CURVE SMOOTH",
"208 370 LINE SMOOTH",
"175 392 OFFCURVE",
"168 400 OFFCURVE",
"168 416 CURVE SMOOTH",
"168 424 LINE",
"168 448 OFFCURVE",
"180 462 OFFCURVE",
"239 462 CURVE SMOOTH",
"281 462 OFFCURVE",
"334 452 OFFCURVE",
"349 447 CURVE",
"349 580 LINE",
"320 589 OFFCURVE",
"268 595 OFFCURVE",
"227 595 CURVE SMOOTH",
"78 595 OFFCURVE",
"22 537 OFFCURVE",
"22 434 CURVE SMOOTH"
);
},
{
closed = 1;
nodes = (
"152 -61 LINE",
"127 -216 LINE",
"175 -216 LINE",
"193 -193 OFFCURVE",
"233 -130 OFFCURVE",
"233 -93 CURVE SMOOTH",
"233 -73 OFFCURVE",
"223 -61 OFFCURVE",
"198 -61 CURVE SMOOTH"
);
}
);
width = 388;
}
);
unicode = 015F;
},
{
glyphname = tcedilla;
lastChange = "2018-02-07 10:31:24 +0000";
layers = (
{
layerId = UUID0;
paths = (
{
closed = 1;
nodes = (
"85 667 LINE",
"71 563 LINE",
"5 563 LINE",
"5 518 LINE",
"70 518 LINE",
"70 116 LINE SMOOTH",
"70 38 OFFCURVE",
"115 -3 OFFCURVE",
"197 -3 CURVE SMOOTH",
"223 -3 OFFCURVE",
"258 3 OFFCURVE",
"268 6 CURVE",
"268 52 LINE",
"257 48 OFFCURVE",
"224 42 OFFCURVE",
"197 42 CURVE SMOOTH",
"147 42 OFFCURVE",
"120 61 OFFCURVE",
"120 116 CURVE SMOOTH",
"120 518 LINE",
"257 518 LINE",
"257 563 LINE",
"120 563 LINE",
"120 667 LINE"
);
},
{
closed = 1;
nodes = (
"149 -61 LINE",
"122 -174 LINE",
"153 -174 LINE",
"166 -154 OFFCURVE",
"197 -104 OFFCURVE",
"197 -85 CURVE SMOOTH",
"197 -68 OFFCURVE",
"185 -61 OFFCURVE",
"172 -61 CURVE SMOOTH"
);
}
);
width = 283;
},
{
layerId = "13BA1341-7400-426C-964F-62F99446C2B7";
paths = (
{
closed = 1;
nodes = (
"111 692 LINE",
"65 590 LINE",
"5 590 LINE",
"5 463 LINE",
"58 463 LINE",
"58 147 LINE SMOOTH",
"58 52 OFFCURVE",
"96 -9 OFFCURVE",
"215 -9 CURVE",
"270 -9 OFFCURVE",
"304 7 OFFCURVE",
"304 7 CURVE",
"304 141 LINE",
"304 141 OFFCURVE",
"282 127 OFFCURVE",
"247 127 CURVE",
"220 127 OFFCURVE",
"209 141 OFFCURVE",
"209 163 CURVE SMOOTH",
"209 463 LINE",
"298 463 LINE",
"298 590 LINE",
"209 590 LINE",
"209 692 LINE"
);
},
{
closed = 1;
nodes = (
"152 -61 LINE",
"127 -216 LINE",
"175 -216 LINE",
"193 -193 OFFCURVE",
"233 -130 OFFCURVE",
"233 -93 CURVE SMOOTH",
"233 -73 OFFCURVE",
"223 -61 OFFCURVE",
"198 -61 CURVE SMOOTH"
);
}
);
width = 319;
}
);
unicode = 0163;
},
{
glyphname = scommaaccent;
lastChange = "2018-02-07 10:31:24 +0000";
layers = (
{
layerId = UUID0;
paths = (
{
closed = 1;
nodes = (
"30 399 LINE SMOOTH",
"30 334 OFFCURVE",
"60 297 OFFCURVE",
"117 273 CURVE SMOOTH",
"208 233 LINE SMOOTH",
"261 210 OFFCURVE",
"274 192 OFFCURVE",
"274 151 CURVE SMOOTH",
"274 128 LINE SMOOTH",
"274 73 OFFCURVE",
"245 41 OFFCURVE",
"152 41 CURVE SMOOTH",
"104 41 OFFCURVE",
"66 49 OFFCURVE",
"35 60 CURVE",
"35 12 LINE",
"63 3 OFFCURVE",
"101 -5 OFFCURVE",
"152 -5 CURVE SMOOTH",
"269 -5 OFFCURVE",
"324 42 OFFCURVE",
"324 128 CURVE SMOOTH",
"324 155 LINE",
"324 216 OFFCURVE",
"288 249 OFFCURVE",
"231 275 CURVE SMOOTH",
"144 314 LINE SMOOTH",
"97 334 OFFCURVE",
"80 353 OFFCURVE",
"80 405 CURVE SMOOTH",
"80 435 LINE SMOOTH",
"80 493 OFFCURVE",
"98 522 OFFCURVE",
"191 522 CURVE SMOOTH",
"232 522 OFFCURVE",
"268 514 OFFCURVE",
"299 503 CURVE",
"299 551 LINE",
"271 560 OFFCURVE",
"232 568 OFFCURVE",
"191 568 CURVE SMOOTH",
"74 568 OFFCURVE",
"30 522 OFFCURVE",
"30 435 CURVE SMOOTH"
);
},
{
closed = 1;
nodes = (
"158 -61 LINE",
"131 -174 LINE",
"162 -174 LINE",
"175 -154 OFFCURVE",
"206 -104 OFFCURVE",
"206 -85 CURVE SMOOTH",
"206 -68 OFFCURVE",
"194 -61 OFFCURVE",
"181 -61 CURVE SMOOTH"
);
}
);
width = 354;
},
{
layerId = "13BA1341-7400-426C-964F-62F99446C2B7";
paths = (
{
closed = 1;
nodes = (
"22 408 LINE SMOOTH",
"22 342 OFFCURVE",
"53 307 OFFCURVE",
"93 280 CURVE SMOOTH",
"161 235 LINE SMOOTH",
"206 205 OFFCURVE",
"218 197 OFFCURVE",
"218 176 CURVE SMOOTH",
"218 167 LINE SMOOTH",
"218 144 OFFCURVE",
"204 129 OFFCURVE",
"127 129 CURVE SMOOTH",
"85 129 OFFCURVE",
"40 137 OFFCURVE",
"20 143 CURVE",
"20 8 LINE",
"53 0 OFFCURVE",
"87 -5 OFFCURVE",
"150 -5 CURVE SMOOTH",
"298 -5 OFFCURVE",
"368 52 OFFCURVE",
"368 161 CURVE SMOOTH",
"368 186 LINE SMOOTH",
"368 250 OFFCURVE",
"335 286 OFFCURVE",
"289 316 CURVE SMOOTH",
"208 370 LINE SMOOTH",
"175 392 OFFCURVE",
"168 400 OFFCURVE",
"168 416 CURVE SMOOTH",
"168 424 LINE",
"168 448 OFFCURVE",
"180 462 OFFCURVE",
"239 462 CURVE SMOOTH",
"281 462 OFFCURVE",
"334 452 OFFCURVE",
"349 447 CURVE",
"349 580 LINE",
"320 589 OFFCURVE",
"268 595 OFFCURVE",
"227 595 CURVE SMOOTH",
"78 595 OFFCURVE",
"22 537 OFFCURVE",
"22 434 CURVE SMOOTH"
);
},
{
closed = 1;
nodes = (
"162 -61 LINE",
"137 -216 LINE",
"185 -216 LINE",
"203 -193 OFFCURVE",
"243 -130 OFFCURVE",
"243 -93 CURVE SMOOTH",
"243 -73 OFFCURVE",
"233 -61 OFFCURVE",
"208 -61 CURVE SMOOTH"
);
}
);
width = 388;
}
);
unicode = 0219;
},
{
glyphname = tcommaaccent;
lastChange = "2018-02-07 10:31:24 +0000";
layers = (
{
layerId = UUID0;
paths = (
{
closed = 1;
nodes = (
"85 667 LINE",
"71 563 LINE",
"5 563 LINE",
"5 518 LINE",
"70 518 LINE",
"70 116 LINE SMOOTH",
"70 38 OFFCURVE",
"115 -3 OFFCURVE",
"197 -3 CURVE SMOOTH",
"223 -3 OFFCURVE",
"258 3 OFFCURVE",
"268 6 CURVE",
"268 52 LINE",
"257 48 OFFCURVE",
"224 42 OFFCURVE",
"197 42 CURVE SMOOTH",
"147 42 OFFCURVE",
"120 61 OFFCURVE",
"120 116 CURVE SMOOTH",
"120 518 LINE",
"257 518 LINE",
"257 563 LINE",
"120 563 LINE",
"120 667 LINE"
);
},
{
closed = 1;
nodes = (
"152 -61 LINE",
"125 -174 LINE",
"156 -174 LINE",
"169 -154 OFFCURVE",
"200 -104 OFFCURVE",
"200 -85 CURVE SMOOTH",
"200 -68 OFFCURVE",
"188 -61 OFFCURVE",
"175 -61 CURVE SMOOTH"
);
}
);
width = 283;
},
{
layerId = "13BA1341-7400-426C-964F-62F99446C2B7";
paths = (
{
closed = 1;
nodes = (
"111 692 LINE",
"65 590 LINE",
"5 590 LINE",
"5 463 LINE",
"58 463 LINE",
"58 147 LINE SMOOTH",
"58 52 OFFCURVE",
"96 -9 OFFCURVE",
"215 -9 CURVE",
"270 -9 OFFCURVE",
"304 7 OFFCURVE",
"304 7 CURVE",
"304 141 LINE",
"304 141 OFFCURVE",
"282 127 OFFCURVE",
"247 127 CURVE",
"220 127 OFFCURVE",
"209 141 OFFCURVE",
"209 163 CURVE SMOOTH",
"209 463 LINE",
"298 463 LINE",
"298 590 LINE",
"209 590 LINE",
"209 692 LINE"
);
},
{
closed = 1;
nodes = (
"152 -61 LINE",
"127 -216 LINE",
"175 -216 LINE",
"193 -193 OFFCURVE",
"233 -130 OFFCURVE",
"233 -93 CURVE SMOOTH",
"233 -73 OFFCURVE",
"223 -61 OFFCURVE",
"198 -61 CURVE SMOOTH"
);
}
);
width = 319;
}
);
unicode = 021B;
},
{
glyphname = v;
lastChange = "2018-02-07 10:31:24 +0000";
layers = (
{
layerId = UUID0;
paths = (
{
closed = 1;
nodes = (
"300 563 LINE",
"240 282 LINE SMOOTH",
"216 168 OFFCURVE",
"186 32 OFFCURVE",
"186 32 CURVE",
"186 32 OFFCURVE",
"158 168 OFFCURVE",
"133 282 CURVE SMOOTH",
"72 563 LINE",
"20 563 LINE",
"146 0 LINE",
"226 0 LINE",
"352 563 LINE"
);
}
);
width = 372;
},
{
layerId = "13BA1341-7400-426C-964F-62F99446C2B7";
paths = (
{
closed = 1;
nodes = (
"285 590 LINE",
"253 405 LINE SMOOTH",
"224 240 OFFCURVE",
"222 119 OFFCURVE",
"222 119 CURVE",
"222 119 OFFCURVE",
"222 238 OFFCURVE",
"190 408 CURVE SMOOTH",
"156 590 LINE",
"5 590 LINE",
"133 0 LINE",
"309 0 LINE",
"433 590 LINE"
);
}
);
width = 438;
}
);
unicode = 0076;
},
{
glyphname = w;
lastChange = "2018-02-07 10:31:24 +0000";
layers = (
{
layerId = UUID0;
paths = (
{
closed = 1;
nodes = (
"520 563 LINE",
"425 40 LINE",
"327 563 LINE",
"264 563 LINE",
"165 40 LINE",
"71 563 LINE",
"20 563 LINE",
"126 0 LINE",
"205 0 LINE",
"264 304 LINE",
"281 391 OFFCURVE",
"295 498 OFFCURVE",
"295 498 CURVE",
"295 498 OFFCURVE",
"313 377 OFFCURVE",
"327 304 CURVE SMOOTH",
"386 0 LINE",
"465 0 LINE",
"571 563 LINE"
);
}
);
width = 591;
},
{
layerId = "13BA1341-7400-426C-964F-62F99446C2B7";
paths = (
{
closed = 1;
nodes = (
"466 590 LINE",
"437 193 LINE",
"382 590 LINE",
"245 590 LINE",
"193 195 LINE",
"162 590 LINE",
"5 590 LINE",
"101 0 LINE",
"269 0 LINE",
"294 212 LINE",
"301 270 OFFCURVE",
"308 328 OFFCURVE",
"315 386 CURVE",
"322 328 OFFCURVE",
"329 269 OFFCURVE",
"336 211 CURVE",
"359 0 LINE",
"528 0 LINE",
"619 590 LINE"
);
}
);
width = 624;
}
);
unicode = 0077;
},
{
glyphname = x;
lastChange = "2018-02-07 10:31:24 +0000";
layers = (
{
layerId = UUID0;
paths = (
{
closed = 1;
nodes = (
"289 563 LINE",
"175 333 LINE",
"61 563 LINE",
"10 563 LINE",
"149 281 LINE",
"10 0 LINE",
"61 0 LINE",
"175 230 LINE",
"289 0 LINE",
"340 0 LINE",
"200 281 LINE",
"340 563 LINE"
);
}
);
width = 350;
},
{
layerId = "13BA1341-7400-426C-964F-62F99446C2B7";
paths = (
{
closed = 1;
nodes = (
"239 590 LINE",
"205 442 LINE",
"169 590 LINE",
"6 590 LINE",
"124 298 LINE",
"5 0 LINE",
"169 0 LINE",
"205 157 LINE",
"239 0 LINE",
"404 0 LINE",
"281 298 LINE",
"403 590 LINE"
);
}
);
width = 409;
}
);
unicode = 0078;
},
{
glyphname = y;
lastChange = "2018-02-07 10:31:24 +0000";
layers = (
{
layerId = UUID0;
paths = (
{
closed = 1;
nodes = (
"300 563 LINE",
"232 254 LINE",
"209 149 OFFCURVE",
"185 32 OFFCURVE",
"185 32 CURVE",
"185 32 OFFCURVE",
"162 149 OFFCURVE",
"139 254 CURVE SMOOTH",
"72 563 LINE",
"20 563 LINE",
"146 0 LINE",
"176 0 LINE",
"144 -149 LINE",
"192 -149 LINE",
"352 563 LINE"
);
}
);
width = 372;
},
{
layerId = "13BA1341-7400-426C-964F-62F99446C2B7";
paths = (
{
closed = 1;
nodes = (
"293 590 LINE",
"261 405 LINE",
"232 240 OFFCURVE",
"227 119 OFFCURVE",
"227 119 CURVE",
"227 119 OFFCURVE",
"224 238 OFFCURVE",
"192 408 CURVE",
"158 590 LINE",
"10 590 LINE",
"128 0 LINE",
"180 0 LINE",
"152 -149 LINE",
"298 -149 LINE",
"438 590 LINE"
);
}
);
width = 448;
}
);
unicode = 0079;
},
{
glyphname = z;
lastChange = "2018-02-07 10:31:24 +0000";
layers = (
{
layerId = UUID0;
paths = (
{
closed = 1;
nodes = (
"26 563 LINE",
"26 518 LINE",
"237 518 LINE",
"20 45 LINE",
"20 0 LINE",
"288 0 LINE",
"288 45 LINE",
"67 45 LINE",
"289 518 LINE",
"289 563 LINE"
);
}
);
width = 309;
},
{
layerId = "13BA1341-7400-426C-964F-62F99446C2B7";
paths = (
{
closed = 1;
nodes = (
"23 590 LINE",
"23 464 LINE",
"179 464 LINE",
"20 92 LINE",
"20 0 LINE",
"344 0 LINE",
"344 126 LINE",
"186 126 LINE",
"341 500 LINE",
"341 590 LINE"
);
}
);
width = 364;
}
);
unicode = 007A;
},
{
glyphname = fi;
lastChange = "2018-02-07 10:31:24 +0000";
layers = (
{
layerId = UUID0;
paths = (
{
closed = 1;
nodes = (
"97 563 LINE",
"40 563 LINE",
"40 518 LINE",
"97 518 LINE",
"97 0 LINE",
"147 0 LINE",
"147 518 LINE",
"369 518 LINE",
"369 563 LINE",
"147 563 LINE",
"147 596 LINE SMOOTH",
"147 656 OFFCURVE",
"178 682 OFFCURVE",
"258 682 CURVE SMOOTH",
"308 682 OFFCURVE",
"354 674 OFFCURVE",
"383 666 CURVE",
"383 713 LINE",
"349 721 OFFCURVE",
"303 727 OFFCURVE",
"258 727 CURVE SMOOTH",
"144 727 OFFCURVE",
"97 677 OFFCURVE",
"97 596 CURVE SMOOTH"
);
},
{
closed = 1;
nodes = (
"350 563 LINE",
"350 0 LINE",
"400 0 LINE",
"400 563 LINE"
);
}
);
width = 475;
},
{
layerId = "13BA1341-7400-426C-964F-62F99446C2B7";
paths = (
{
closed = 1;
nodes = (
"62 590 LINE",
"5 590 LINE",
"5 472 LINE",
"62 472 LINE",
"62 0 LINE",
"214 0 LINE",
"214 472 LINE",
"395 472 LINE",
"395 590 LINE",
"214 590 LINE",
"214 599 LINE SMOOTH",
"214 633 OFFCURVE",
"235 648 OFFCURVE",
"294 648 CURVE SMOOTH",
"328 648 OFFCURVE",
"382 643 OFFCURVE",
"409 636 CURVE",
"409 752 LINE",
"375 759 OFFCURVE",
"323 766 OFFCURVE",
"278 766 CURVE SMOOTH",
"167 766 OFFCURVE",
"62 732 OFFCURVE",
"62 597 CURVE SMOOTH"
);
},
{
closed = 1;
nodes = (
"290 590 LINE",
"290 0 LINE",
"441 0 LINE",
"441 590 LINE"
);
}
);
width = 486;
}
);
unicode = FB01;
},
{
glyphname = fl;
lastChange = "2018-02-07 10:31:24 +0000";
layers = (
{
layerId = UUID0;
paths = (
{
closed = 1;
nodes = (
"97 563 LINE",
"40 563 LINE",
"40 518 LINE",
"97 518 LINE",
"97 0 LINE",
"147 0 LINE",
"147 518 LINE",
"259 518 LINE",
"259 563 LINE",
"147 563 LINE",
"147 596 LINE SMOOTH",
"147 656 OFFCURVE",
"176 682 OFFCURVE",
"256 682 CURVE SMOOTH",
"305 682 OFFCURVE",
"359 673 OFFCURVE",
"388 665 CURVE",
"400 708 LINE",
"363 718 OFFCURVE",
"307 727 OFFCURVE",
"256 727 CURVE SMOOTH",
"142 727 OFFCURVE",
"97 677 OFFCURVE",
"97 596 CURVE SMOOTH"
);
},
{
closed = 1;
nodes = (
"350 708 LINE",
"350 0 LINE",
"400 0 LINE",
"400 708 LINE"
);
}
);
width = 475;
},
{
layerId = "13BA1341-7400-426C-964F-62F99446C2B7";
paths = (
{
closed = 1;
nodes = (
"62 590 LINE",
"5 590 LINE",
"5 472 LINE",
"62 472 LINE",
"62 0 LINE",
"214 0 LINE",
"214 472 LINE",
"265 472 LINE",
"265 590 LINE",
"213 590 LINE",
"213 599 LINE SMOOTH",
"213 633 OFFCURVE",
"231 650 OFFCURVE",
"283 650 CURVE SMOOTH",
"317 650 OFFCURVE",
"371 643 OFFCURVE",
"398 628 CURVE",
"441 737 LINE",
"397 754 OFFCURVE",
"323 766 OFFCURVE",
"268 766 CURVE SMOOTH",
"135 766 OFFCURVE",
"62 709 OFFCURVE",
"62 597 CURVE SMOOTH"
);
},
{
closed = 1;
nodes = (
"293 737 LINE",
"293 0 LINE",
"441 0 LINE",
"441 737 LINE"
);
}
);
width = 486;
}
);
unicode = FB02;
},
{
glyphname = ordfeminine;
lastChange = "2018-02-07 10:31:24 +0000";
layers = (
{
layerId = UUID0;
paths = (
{
closed = 1;
nodes = (
"51 686 LINE",
"76 695 OFFCURVE",
"133 707 OFFCURVE",
"170 707 CURVE SMOOTH",
"232 707 OFFCURVE",
"250 686 OFFCURVE",
"252 648 CURVE",
"252 556 LINE",
"146 539 LINE SMOOTH",
"81 528 OFFCURVE",
"34 500 OFFCURVE",
"34 435 CURVE SMOOTH",
"34 398 LINE SMOOTH",
"34 327 OFFCURVE",
"66 288 OFFCURVE",
"151 288 CURVE SMOOTH",
"188 288 OFFCURVE",
"233 300 OFFCURVE",
"252 324 CURVE",
"252 289 LINE",
"292 289 LINE",
"292 643 LINE SMOOTH",
"292 708 OFFCURVE",
"253 745 OFFCURVE",
"170 745 CURVE SMOOTH",
"134 745 OFFCURVE",
"80 736 OFFCURVE",
"51 726 CURVE"
);
},
{
closed = 1;
nodes = (
"252 364 LINE",
"234 337 OFFCURVE",
"192 323 OFFCURVE",
"158 323 CURVE SMOOTH",
"88 323 OFFCURVE",
"74 349 OFFCURVE",
"74 398 CURVE SMOOTH",
"74 435 LINE SMOOTH",
"74 477 OFFCURVE",
"105 495 OFFCURVE",
"153 503 CURVE SMOOTH",
"252 518 LINE"
);
}
);
width = 340;
},
{
layerId = "13BA1341-7400-426C-964F-62F99446C2B7";
paths = (
{
closed = 1;
nodes = (
"55 644 LINE",
"95 655 OFFCURVE",
"143 658 OFFCURVE",
"160 658 CURVE SMOOTH",
"196 658 OFFCURVE",
"212 646 OFFCURVE",
"212 628 CURVE SMOOTH",
"212 568 LINE",
"150 547 LINE SMOOTH",
"74 521 OFFCURVE",
"35 494 OFFCURVE",
"35 431 CURVE SMOOTH",
"35 399 LINE SMOOTH",
"35 325 OFFCURVE",
"69 289 OFFCURVE",
"135 289 CURVE SMOOTH",
"168 289 OFFCURVE",
"195 302 OFFCURVE",
"212 321 CURVE",
"212 284 LINE",
"307 284 LINE",
"307 631 LINE SMOOTH",
"307 699 OFFCURVE",
"265 744 OFFCURVE",
"165 744 CURVE SMOOTH",
"138 744 OFFCURVE",
"91 741 OFFCURVE",
"55 730 CURVE"
);
},
{
closed = 1;
nodes = (
"212 376 LINE",
"200 370 OFFCURVE",
"184 366 OFFCURVE",
"167 366 CURVE SMOOTH",
"138 366 OFFCURVE",
"130 378 OFFCURVE",
"130 401 CURVE SMOOTH",
"130 421 LINE SMOOTH",
"130 442 OFFCURVE",
"137 457 OFFCURVE",
"168 468 CURVE SMOOTH",
"212 484 LINE"
);
}
);
width = 332;
}
);
unicode = 00AA;
},
{
glyphname = ordmasculine;
lastChange = "2018-02-07 10:31:24 +0000";
layers = (
{
layerId = UUID0;
paths = (
{
closed = 1;
nodes = (
"48 387 LINE SMOOTH",
"48 322 OFFCURVE",
"87 285 OFFCURVE",
"170 285 CURVE SMOOTH",
"253 285 OFFCURVE",
"292 322 OFFCURVE",
"292 387 CURVE SMOOTH",
"292 643 LINE SMOOTH",
"292 708 OFFCURVE",
"253 745 OFFCURVE",
"170 745 CURVE SMOOTH",
"87 745 OFFCURVE",
"48 708 OFFCURVE",
"48 643 CURVE SMOOTH"
);
},
{
closed = 1;
nodes = (
"252 387 LINE SMOOTH",
"252 345 OFFCURVE",
"235 323 OFFCURVE",
"170 323 CURVE SMOOTH",
"105 323 OFFCURVE",
"88 345 OFFCURVE",
"88 387 CURVE SMOOTH",
"88 648 LINE SMOOTH",
"88 686 OFFCURVE",
"107 707 OFFCURVE",
"170 707 CURVE SMOOTH",
"232 707 OFFCURVE",
"250 686 OFFCURVE",
"252 648 CURVE SMOOTH"
);
}
);
width = 340;
},
{
layerId = "13BA1341-7400-426C-964F-62F99446C2B7";
paths = (
{
closed = 1;
nodes = (
"42 401 LINE SMOOTH",
"42 325 OFFCURVE",
"82 284 OFFCURVE",
"174 284 CURVE SMOOTH",
"266 284 OFFCURVE",
"306 325 OFFCURVE",
"306 401 CURVE SMOOTH",
"306 629 LINE SMOOTH",
"306 705 OFFCURVE",
"266 746 OFFCURVE",
"174 746 CURVE SMOOTH",
"82 746 OFFCURVE",
"42 705 OFFCURVE",
"42 629 CURVE SMOOTH"
);
},
{
closed = 1;
nodes = (
"211 399 LINE SMOOTH",
"211 381 OFFCURVE",
"197 372 OFFCURVE",
"174 372 CURVE SMOOTH",
"151 372 OFFCURVE",
"137 381 OFFCURVE",
"137 399 CURVE SMOOTH",
"137 631 LINE SMOOTH",
"137 649 OFFCURVE",
"151 658 OFFCURVE",
"174 658 CURVE SMOOTH",
"197 658 OFFCURVE",
"211 649 OFFCURVE",
"211 631 CURVE SMOOTH"
);
}
);
width = 320;
}
);
unicode = 00BA;
},
{
color = 7;
glyphname = pi;
lastChange = "2018-02-07 10:31:24 +0000";
layers = (
{
layerId = UUID0;
paths = (
{
closed = 1;
nodes = (
"0 563 LINE",
"0 518 LINE",
"70 518 LINE",
"70 0 LINE",
"120 0 LINE",
"120 518 LINE",
"323 518 LINE",
"323 0 LINE",
"373 0 LINE",
"373 518 LINE",
"443 518 LINE",
"443 563 LINE"
);
}
);
width = 443;
},
{
layerId = "13BA1341-7400-426C-964F-62F99446C2B7";
paths = (
{
closed = 1;
nodes = (
"-20 590 LINE",
"-20 463 LINE",
"40 463 LINE",
"40 0 LINE",
"190 0 LINE",
"190 463 LINE",
"264 463 LINE",
"264 0 LINE",
"417 0 LINE",
"417 463 LINE",
"477 463 LINE",
"477 590 LINE"
);
}
);
width = 457;
}
);
unicode = 03C0;
},
{
glyphname = dvA;
lastChange = "2018-02-07 10:31:24 +0000";
layers = (
{
layerId = UUID0;
paths = (
{
closed = 1;
nodes = (
"250 160 LINE",
"250 111 OFFCURVE",
"222 76 OFFCURVE",
"149 76 CURVE SMOOTH",
"107 76 OFFCURVE",
"67 84 OFFCURVE",
"35 93 CURVE",
"35 49 LINE",
"70 40 OFFCURVE",
"107 34 OFFCURVE",
"149 34 CURVE SMOOTH",
"244 34 OFFCURVE",
"295 82 OFFCURVE",
"295 160 CURVE",
"295 240 LINE SMOOTH",
"295 285 OFFCURVE",
"285 329 OFFCURVE",
"241 346 CURVE",
"284 361 OFFCURVE",
"295 407 OFFCURVE",
"295 452 CURVE SMOOTH",
"295 523 LINE SMOOTH",
"295 601 OFFCURVE",
"244 649 OFFCURVE",
"149 649 CURVE SMOOTH",
"103 649 OFFCURVE",
"70 642 OFFCURVE",
"45 634 CURVE",
"45 588 LINE",
"73 598 OFFCURVE",
"106 607 OFFCURVE",
"149 607 CURVE SMOOTH",
"222 607 OFFCURVE",
"250 572 OFFCURVE",
"250 523 CURVE SMOOTH",
"250 452 LINE SMOOTH",
"250 407 OFFCURVE",
"240 368 OFFCURVE",
"159 367 CURVE SMOOTH",
"98 367 LINE",
"98 325 LINE",
"159 325 LINE SMOOTH",
"240 324 OFFCURVE",
"250 285 OFFCURVE",
"250 240 CURVE SMOOTH"
);
},
{
closed = 1;
nodes = (
"425 644 LINE",
"425 0 LINE",
"470 0 LINE",
"470 604 LINE",
"570 604 LINE",
"570 644 LINE"
);
},
{
closed = 1;
nodes = (
"267 213 LINE",
"428 213 LINE",
"428 253 LINE",
"267 253 LINE"
);
}
);
width = 550;
},
{
layerId = "13BA1341-7400-426C-964F-62F99446C2B7";
paths = (
{
closed = 1;
nodes = (
"219 213 LINE",
"218 178 OFFCURVE",
"199 163 OFFCURVE",
"145 163 CURVE SMOOTH",
"120 163 OFFCURVE",
"75 167 OFFCURVE",
"42 176 CURVE",
"42 49 LINE",
"65 41 OFFCURVE",
"110 36 OFFCURVE",
"146 36 CURVE SMOOTH",
"299 36 OFFCURVE",
"355 102 OFFCURVE",
"356 207 CURVE",
"356 254 LINE SMOOTH",
"356 307 OFFCURVE",
"341 349 OFFCURVE",
"313 368 CURVE",
"345 390 OFFCURVE",
"356 432 OFFCURVE",
"356 478 CURVE SMOOTH",
"356 505 LINE SMOOTH",
"356 610 OFFCURVE",
"300 676 OFFCURVE",
"147 676 CURVE SMOOTH",
"111 676 OFFCURVE",
"79 672 OFFCURVE",
"56 664 CURVE",
"56 537 LINE",
"89 546 OFFCURVE",
"121 549 OFFCURVE",
"146 549 CURVE SMOOTH",
"200 549 OFFCURVE",
"219 534 OFFCURVE",
"219 499 CURVE SMOOTH",
"219 478 LINE SMOOTH",
"219 446 OFFCURVE",
"204 432 OFFCURVE",
"166 432 CURVE SMOOTH",
"107 432 LINE",
"107 303 LINE",
"166 303 LINE SMOOTH",
"204 303 OFFCURVE",
"219 287 OFFCURVE",
"219 254 CURVE SMOOTH"
);
},
{
closed = 1;
nodes = (
"426 671 LINE",
"426 0 LINE",
"566 0 LINE",
"566 554 LINE",
"648 554 LINE",
"648 671 LINE"
);
},
{
closed = 1;
nodes = (
"322 213 LINE",
"474 213 LINE",
"474 333 LINE",
"322 333 LINE"
);
}
);
width = 608;
}
);
unicode = 0905;
},
{
glyphname = dvmAA;
lastChange = "2018-02-07 10:31:24 +0000";
layers = (
{
layerId = UUID0;
paths = (
{
closed = 1;
nodes = (
"80 604 LINE",
"80 0 LINE",
"125 0 LINE",
"125 604 LINE",
"225 604 LINE",
"225 644 LINE",
"-20 644 LINE",
"-20 604 LINE"
);
}
);
width = 205;
},
{
layerId = "13BA1341-7400-426C-964F-62F99446C2B7";
paths = (
{
closed = 1;
nodes = (
"42 554 LINE",
"42 0 LINE",
"182 0 LINE",
"182 554 LINE",
"264 554 LINE",
"264 671 LINE",
"-40 671 LINE",
"-40 554 LINE"
);
}
);
width = 224;
}
);
unicode = 093E;
},
{
glyphname = dvAI;
lastChange = "2018-02-07 10:31:24 +0000";
layers = (
{
layerId = UUID0;
paths = (
{
closed = 1;
nodes = (
"306 644 LINE",
"353 644 LINE",
"194 873 LINE",
"142 873 LINE"
);
},
{
closed = 1;
nodes = (
"341 57 LINE",
"318 49 OFFCURVE",
"269 37 OFFCURVE",
"220 37 CURVE SMOOTH",
"148 37 OFFCURVE",
"120 67 OFFCURVE",
"120 112 CURVE SMOOTH",
"120 604 LINE",
"310 604 LINE",
"310 395 LINE SMOOTH",
"310 354 OFFCURVE",
"296 320 OFFCURVE",
"235 320 CURVE SMOOTH",
"229 320 OFFCURVE",
"222 320 OFFCURVE",
"215 321 CURVE",
"215 279 LINE",
"223 278 OFFCURVE",
"231 278 OFFCURVE",
"239 278 CURVE SMOOTH",
"321 278 OFFCURVE",
"355 331 OFFCURVE",
"355 395 CURVE SMOOTH",
"355 604 LINE",
"443 604 LINE",
"443 644 LINE",
"-20 644 LINE",
"-20 604 LINE",
"75 604 LINE",
"75 112 LINE SMOOTH",
"75 37 OFFCURVE",
"125 -5 OFFCURVE",
"220 -5 CURVE SMOOTH",
"271 -5 OFFCURVE",
"319 5 OFFCURVE",
"341 15 CURVE"
);
}
);
width = 423;
},
{
layerId = "13BA1341-7400-426C-964F-62F99446C2B7";
paths = (
{
closed = 1;
nodes = (
"261 671 LINE",
"403 671 LINE",
"251 901 LINE",
"96 901 LINE"
);
},
{
closed = 1;
nodes = (
"380 142 LINE",
"342 131 OFFCURVE",
"307 124 OFFCURVE",
"256 124 CURVE SMOOTH",
"197 124 OFFCURVE",
"181 146 OFFCURVE",
"181 189 CURVE SMOOTH",
"181 554 LINE",
"267 554 LINE",
"267 413 LINE SMOOTH",
"267 383 OFFCURVE",
"262 377 OFFCURVE",
"237 377 CURVE SMOOTH",
"228 377 LINE",
"228 248 LINE",
"235 247 OFFCURVE",
"243 246 OFFCURVE",
"248 246 CURVE SMOOTH",
"371 246 OFFCURVE",
"407 301 OFFCURVE",
"407 404 CURVE SMOOTH",
"407 554 LINE",
"481 554 LINE",
"481 671 LINE",
"-40 671 LINE",
"-40 554 LINE",
"41 554 LINE",
"41 184 LINE SMOOTH",
"41 57 OFFCURVE",
"102 -5 OFFCURVE",
"251 -5 CURVE SMOOTH",
"308 -5 OFFCURVE",
"350 5 OFFCURVE",
"380 15 CURVE"
);
}
);
width = 441;
}
);
unicode = 0910;
},
{
glyphname = dvmAU;
lastChange = "2018-02-07 10:31:24 +0000";
layers = (
{
layerId = UUID0;
paths = (
{
closed = 1;
nodes = (
"80 604 LINE",
"80 0 LINE",
"125 0 LINE",
"125 604 LINE",
"225 604 LINE",
"225 644 LINE",
"-50 644 LINE",
"-50 604 LINE"
);
},
{
closed = 1;
nodes = (
"-194 830 LINE",
"-187 831 OFFCURVE",
"-177 832 OFFCURVE",
"-168 832 CURVE SMOOTH",
"-138 832 OFFCURVE",
"-120 820 OFFCURVE",
"-103 793 CURVE SMOOTH",
"-8 644 LINE",
"40 644 LINE",
"-69 814 LINE SMOOTH",
"-96 856 OFFCURVE",
"-122 873 OFFCURVE",
"-167 873 CURVE SMOOTH",
"-178 873 OFFCURVE",
"-187 872 OFFCURVE",
"-194 871 CURVE"
);
},
{
closed = 1;
nodes = (
"-36 830 LINE",
"-29 831 OFFCURVE",
"-19 832 OFFCURVE",
"-10 832 CURVE SMOOTH",
"20 832 OFFCURVE",
"29 814 OFFCURVE",
"38 783 CURVE SMOOTH",
"80 644 LINE",
"123 644 LINE",
"75 804 LINE SMOOTH",
"61 852 OFFCURVE",
"36 873 OFFCURVE",
"-9 873 CURVE SMOOTH",
"-20 873 OFFCURVE",
"-29 872 OFFCURVE",
"-36 871 CURVE"
);
}
);
width = 205;
},
{
layerId = "13BA1341-7400-426C-964F-62F99446C2B7";
paths = (
{
closed = 1;
nodes = (
"42 554 LINE",
"42 0 LINE",
"182 0 LINE",
"182 554 LINE",
"264 554 LINE",
"264 671 LINE",
"-136 671 LINE",
"-136 554 LINE"
);
},
{
closed = 1;
nodes = (
"-252 784 LINE",
"-242 785 OFFCURVE",
"-234 785 OFFCURVE",
"-226 785 CURVE SMOOTH",
"-195 785 OFFCURVE",
"-174 772 OFFCURVE",
"-150 743 CURVE SMOOTH",
"-91 671 LINE",
"45 671 LINE",
"-53 802 LINE SMOOTH",
"-104 870 OFFCURVE",
"-143 901 OFFCURVE",
"-207 901 CURVE SMOOTH",
"-224 901 OFFCURVE",
"-237 900 OFFCURVE",
"-252 898 CURVE"
);
},
{
closed = 1;
nodes = (
"-21 783 LINE",
"-16 784 OFFCURVE",
"-12 784 OFFCURVE",
"-9 784 CURVE SMOOTH",
"11 784 OFFCURVE",
"20 773 OFFCURVE",
"31 743 CURVE SMOOTH",
"57 671 LINE",
"176 671 LINE",
"135 802 LINE SMOOTH",
"111 878 OFFCURVE",
"65 901 OFFCURVE",
"13 901 CURVE SMOOTH",
"2 901 OFFCURVE",
"-9 900 OFFCURVE",
"-21 898 CURVE"
);
}
);
width = 224;
}
);
unicode = 094C;
},
{
glyphname = dvAbbreviationsign;
lastChange = "2018-02-07 10:31:24 +0000";
layers = (
{
layerId = UUID0;
paths = (
{
closed = 1;
nodes = (
"55 260 OFFCURVE",
"85 201 OFFCURVE",
"179 201 CURVE SMOOTH",
"273 201 OFFCURVE",
"304 260 OFFCURVE",
"304 335 CURVE SMOOTH",
"304 410 OFFCURVE",
"273 470 OFFCURVE",
"179 470 CURVE SMOOTH",
"85 470 OFFCURVE",
"55 410 OFFCURVE",
"55 335 CURVE SMOOTH"
);
},
{
closed = 1;
nodes = (
"95 386 OFFCURVE",
"106 429 OFFCURVE",
"179 429 CURVE SMOOTH",
"252 429 OFFCURVE",
"264 386 OFFCURVE",
"264 334 CURVE SMOOTH",
"264 282 OFFCURVE",
"252 240 OFFCURVE",
"179 240 CURVE SMOOTH",
"106 240 OFFCURVE",
"95 282 OFFCURVE",
"95 334 CURVE SMOOTH"
);
}
);
width = 352;
},
{
layerId = "13BA1341-7400-426C-964F-62F99446C2B7";
paths = (
{
closed = 1;
nodes = (
"42 218 OFFCURVE",
"93 147 OFFCURVE",
"219 147 CURVE SMOOTH",
"345 147 OFFCURVE",
"397 218 OFFCURVE",
"397 324 CURVE SMOOTH",
"397 430 OFFCURVE",
"345 502 OFFCURVE",
"219 502 CURVE SMOOTH",
"93 502 OFFCURVE",
"42 430 OFFCURVE",
"42 324 CURVE"
);
},
{
closed = 1;
nodes = (
"166 369 OFFCURVE",
"179 389 OFFCURVE",
"219 389 CURVE SMOOTH",
"259 389 OFFCURVE",
"273 369 OFFCURVE",
"273 324 CURVE SMOOTH",
"273 279 OFFCURVE",
"259 260 OFFCURVE",
"219 260 CURVE SMOOTH",
"179 260 OFFCURVE",
"166 279 OFFCURVE",
"166 324 CURVE SMOOTH"
);
}
);
width = 440;
}
);
unicode = 0970;
},
{
glyphname = dvmEcandra;
lastChange = "2018-02-07 10:31:24 +0000";
layers = (
{
anchors = (
{
name = _abvm.bindu;
position = "{-80, 644}";
}
);
layerId = UUID0;
paths = (
{
closed = 1;
nodes = (
"2 819 LINE",
"2 764 OFFCURVE",
"-28 749 OFFCURVE",
"-103 749 CURVE SMOOTH",
"-178 749 OFFCURVE",
"-208 764 OFFCURVE",
"-208 819 CURVE",
"-250 819 LINE",
"-250 819 OFFCURVE",
"-250 818 OFFCURVE",
"-250 818 CURVE",
"-250 734 OFFCURVE",
"-198 709 OFFCURVE",
"-103 709 CURVE SMOOTH",
"-9 709 OFFCURVE",
"44 734 OFFCURVE",
"44 818 CURVE",
"44 819 LINE"
);
}
);
width = 0;
},
{
anchors = (
{
name = _abvm.bindu;
position = "{-42, 671}";
}
);
layerId = "13BA1341-7400-426C-964F-62F99446C2B7";
paths = (
{
closed = 1;
nodes = (
"-41 906 LINE",
"-41 870 OFFCURVE",
"-63 855 OFFCURVE",
"-111 855 CURVE SMOOTH",
"-162 855 OFFCURVE",
"-182 870 OFFCURVE",
"-182 906 CURVE",
"-322 906 LINE",
"-322 901 LINE SMOOTH",
"-322 788 OFFCURVE",
"-249 734 OFFCURVE",
"-111 734 CURVE SMOOTH",
"27 734 OFFCURVE",
"98 788 OFFCURVE",
"98 901 CURVE SMOOTH",
"98 906 LINE"
);
}
);
width = 0;
}
);
unicode = 0945;
},
{
glyphname = dvAnusvara;
lastChange = "2018-02-07 10:31:24 +0000";
layers = (
{
anchors = (
{
name = _abvm.bindu;
position = "{-80, 644}";
}
);
layerId = UUID0;
paths = (
{
closed = 1;
nodes = (
"-136 741 OFFCURVE",
"-127 727 OFFCURVE",
"-103 727 CURVE SMOOTH",
"-79 727 OFFCURVE",
"-70 741 OFFCURVE",
"-70 760 CURVE SMOOTH",
"-70 779 OFFCURVE",
"-79 793 OFFCURVE",
"-103 793 CURVE SMOOTH",
"-127 793 OFFCURVE",
"-136 779 OFFCURVE",
"-136 760 CURVE SMOOTH"
);
}
);
width = 0;
},
{
anchors = (
{
name = _abvm.bindu;
position = "{-42, 671}";
}
);
layerId = "13BA1341-7400-426C-964F-62F99446C2B7";
paths = (
{
closed = 1;
nodes = (
"-187 760 OFFCURVE",
"-171 727 OFFCURVE",
"-112 727 CURVE SMOOTH",
"-55 727 OFFCURVE",
"-38 760 OFFCURVE",
"-38 802 CURVE SMOOTH",
"-38 844 OFFCURVE",
"-55 877 OFFCURVE",
"-112 877 CURVE SMOOTH",
"-171 877 OFFCURVE",
"-187 844 OFFCURVE",
"-187 802 CURVE SMOOTH"
);
}
);
width = 0;
}
);
unicode = 0902;
},
{
glyphname = dvAvagraha;
lastChange = "2018-02-07 10:31:24 +0000";
layers = (
{
layerId = UUID0;
paths = (
{
closed = 1;
nodes = (
"380 203 LINE",
"380 263 OFFCURVE",
"361 306 OFFCURVE",
"297 339 CURVE SMOOTH",
"160 411 LINE SMOOTH",
"115 435 OFFCURVE",
"106 466 OFFCURVE",
"106 505 CURVE SMOOTH",
"106 532 LINE SMOOTH",
"106 572 OFFCURVE",
"114 602 OFFCURVE",
"199 602 CURVE SMOOTH",
"357 602 LINE",
"357 644 LINE",
"199 644 LINE SMOOTH",
"94 644 OFFCURVE",
"61 602 OFFCURVE",
"61 532 CURVE SMOOTH",
"61 505 LINE SMOOTH",
"61 445 OFFCURVE",
"80 402 OFFCURVE",
"144 369 CURVE SMOOTH",
"281 297 LINE SMOOTH",
"326 273 OFFCURVE",
"335 242 OFFCURVE",
"335 203 CURVE SMOOTH",
"335 127 LINE SMOOTH",
"335 77 OFFCURVE",
"318 37 OFFCURVE",
"223 37 CURVE SMOOTH",
"223 37 OFFCURVE",
"221 37 OFFCURVE",
"221 37 CURVE",
"126 37 OFFCURVE",
"109 77 OFFCURVE",
"109 127 CURVE SMOOTH",
"109 197 LINE",
"64 197 LINE",
"64 127 LINE SMOOTH",
"64 47 OFFCURVE",
"106 -5 OFFCURVE",
"221 -5 CURVE SMOOTH",
"221 -5 OFFCURVE",
"223 -5 OFFCURVE",
"223 -5 CURVE",
"338 -5 OFFCURVE",
"380 47 OFFCURVE",
"380 127 CURVE"
);
}
);
width = 420;
},
{
layerId = "13BA1341-7400-426C-964F-62F99446C2B7";
paths = (
{
closed = 1;
nodes = (
"396 189 LINE",
"396 257 OFFCURVE",
"387 298 OFFCURVE",
"321 345 CURVE SMOOTH",
"200 431 LINE SMOOTH",
"174 450 OFFCURVE",
"163 462 OFFCURVE",
"163 492 CURVE SMOOTH",
"163 503 LINE SMOOTH",
"163 524 OFFCURVE",
"168 541 OFFCURVE",
"202 541 CURVE SMOOTH",
"371 541 LINE",
"371 671 LINE",
"191 671 LINE SMOOTH",
"68 671 OFFCURVE",
"23 614 OFFCURVE",
"23 511 CURVE SMOOTH",
"23 485 LINE SMOOTH",
"23 427 OFFCURVE",
"49 381 OFFCURVE",
"95 348 CURVE SMOOTH",
"220 259 LINE SMOOTH",
"248 239 OFFCURVE",
"256 226 OFFCURVE",
"256 192 CURVE SMOOTH",
"256 163 LINE SMOOTH",
"256 143 OFFCURVE",
"248 125 OFFCURVE",
"212 125 CURVE",
"206 125 LINE SMOOTH",
"170 125 OFFCURVE",
"162 143 OFFCURVE",
"162 163 CURVE SMOOTH",
"162 223 LINE",
"22 223 LINE",
"22 168 LINE SMOOTH",
"22 55 OFFCURVE",
"78 -5 OFFCURVE",
"201 -5 CURVE SMOOTH",
"219 -5 LINE SMOOTH",
"342 -5 OFFCURVE",
"396 55 OFFCURVE",
"396 168 CURVE"
);
}
);
width = 421;
}
);
unicode = 093D;
},
{
glyphname = dvB;
lastChange = "2018-02-07 10:31:24 +0000";
layers = (
{
layerId = UUID0;
paths = (
{
closed = 1;
nodes = (
"-20 644 LINE",
"-20 604 LINE",
"330 604 LINE",
"330 644 LINE"
);
},
{
closed = 1;
nodes = (
"50 191 LINE SMOOTH",
"50 116 OFFCURVE",
"95 74 OFFCURVE",
"190 74 CURVE SMOOTH",
"290 74 OFFCURVE",
"330 116 OFFCURVE",
"330 191 CURVE SMOOTH",
"330 388 LINE SMOOTH",
"330 463 OFFCURVE",
"290 505 OFFCURVE",
"190 505 CURVE SMOOTH",
"95 505 OFFCURVE",
"50 463 OFFCURVE",
"50 388 CURVE"
);
},
{
closed = 1;
nodes = (
"285 203 LINE",
"106 429 LINE",
"119 449 OFFCURVE",
"144 463 OFFCURVE",
"190 463 CURVE SMOOTH",
"262 463 OFFCURVE",
"285 429 OFFCURVE",
"285 387 CURVE SMOOTH"
);
},
{
closed = 1;
nodes = (
"95 382 LINE",
"277 152 LINE",
"265 129 OFFCURVE",
"240 116 OFFCURVE",
"190 116 CURVE SMOOTH",
"115 116 OFFCURVE",
"95 146 OFFCURVE",
"95 191 CURVE SMOOTH"
);
}
);
width = 209;
},
{
layerId = "13BA1341-7400-426C-964F-62F99446C2B7";
paths = (
{
closed = 1;
nodes = (
"-40 671 LINE",
"-40 554 LINE",
"448 554 LINE",
"448 671 LINE"
);
},
{
closed = 1;
nodes = (
"30 231 LINE SMOOTH",
"30 117 OFFCURVE",
"89 53 OFFCURVE",
"232 53 CURVE SMOOTH",
"365 53 OFFCURVE",
"428 113 OFFCURVE",
"428 231 CURVE SMOOTH",
"428 328 LINE SMOOTH",
"428 446 OFFCURVE",
"365 506 OFFCURVE",
"232 506 CURVE SMOOTH",
"79 506 OFFCURVE",
"30 442 OFFCURVE",
"30 328 CURVE SMOOTH"
);
},
{
closed = 1;
nodes = (
"305 265 LINE",
"177 372 LINE",
"188 385 OFFCURVE",
"206 391 OFFCURVE",
"234 391 CURVE SMOOTH",
"287 391 OFFCURVE",
"305 368 OFFCURVE",
"305 322 CURVE SMOOTH"
);
},
{
closed = 1;
nodes = (
"163 293 LINE",
"290 186 LINE",
"279 174 OFFCURVE",
"261 168 OFFCURVE",
"234 168 CURVE SMOOTH",
"181 168 OFFCURVE",
"163 191 OFFCURVE",
"163 237 CURVE SMOOTH"
);
}
);
width = 271;
}
);
},
{
glyphname = dvBA;
lastChange = "2018-02-07 10:31:24 +0000";
layers = (
{
layerId = UUID0;
paths = (
{
closed = 1;
nodes = (
"285 491 LINE",
"276 495 OFFCURVE",
"245 505 OFFCURVE",
"196 505 CURVE SMOOTH",
"101 505 OFFCURVE",
"50 459 OFFCURVE",
"50 385 CURVE",
"50 195 LINE SMOOTH",
"50 120 OFFCURVE",
"101 74 OFFCURVE",
"196 74 CURVE SMOOTH",
"245 74 OFFCURVE",
"276 84 OFFCURVE",
"285 88 CURVE",
"285 0 LINE",
"327 0 LINE",
"327 604 LINE",
"427 604 LINE",
"427 644 LINE",
"-20 644 LINE",
"-20 604 LINE",
"285 604 LINE"
);
},
{
closed = 1;
nodes = (
"68 414 LINE",
"60 373 LINE",
"299 191 LINE",
"321 221 LINE"
);
},
{
closed = 1;
nodes = (
"285 130 LINE",
"276 126 OFFCURVE",
"245 116 OFFCURVE",
"196 116 CURVE SMOOTH",
"121 116 OFFCURVE",
"95 150 OFFCURVE",
"95 195 CURVE SMOOTH",
"95 384 LINE",
"95 429 OFFCURVE",
"121 463 OFFCURVE",
"196 463 CURVE SMOOTH",
"245 463 OFFCURVE",
"276 453 OFFCURVE",
"285 449 CURVE"
);
}
);
width = 407;
},
{
layerId = "13BA1341-7400-426C-964F-62F99446C2B7";
paths = (
{
closed = 1;
nodes = (
"295 495 LINE",
"277 501 OFFCURVE",
"251 506 OFFCURVE",
"217 506 CURVE",
"94 506 OFFCURVE",
"30 467 OFFCURVE",
"30 338 CURVE SMOOTH",
"30 221 LINE SMOOTH",
"30 92 OFFCURVE",
"101 53 OFFCURVE",
"223 53 CURVE",
"252 53 OFFCURVE",
"278 56 OFFCURVE",
"295 61 CURVE",
"295 0 LINE",
"428 0 LINE",
"428 554 LINE",
"510 554 LINE",
"510 671 LINE",
"-40 671 LINE",
"-40 554 LINE",
"295 554 LINE"
);
},
{
closed = 1;
nodes = (
"172 387 LINE",
"118 342 LINE",
"302 159 LINE",
"356 205 LINE"
);
},
{
closed = 1;
nodes = (
"295 173 LINE",
"275 170 OFFCURVE",
"259 168 OFFCURVE",
"233 168 CURVE",
"180 168 OFFCURVE",
"163 191 OFFCURVE",
"163 227 CURVE SMOOTH",
"163 332 LINE SMOOTH",
"163 368 OFFCURVE",
"178 391 OFFCURVE",
"233 391 CURVE",
"257 391 OFFCURVE",
"275 387 OFFCURVE",
"295 380 CURVE"
);
}
);
width = 470;
}
);
unicode = 092C;
},
{
glyphname = dvBH;
lastChange = "2018-02-07 10:31:24 +0000";
layers = (
{
layerId = UUID0;
paths = (
{
closed = 1;
nodes = (
"259 175 LINE",
"259 130 OFFCURVE",
"247 105 OFFCURVE",
"177 105 CURVE SMOOTH",
"107 105 OFFCURVE",
"95 131 OFFCURVE",
"95 175 CURVE SMOOTH",
"95 276 LINE SMOOTH",
"95 321 OFFCURVE",
"107 346 OFFCURVE",
"177 346 CURVE SMOOTH",
"259 346 LINE"
);
},
{
closed = 1;
nodes = (
"481 386 LINE",
"304 386 LINE",
"304 532 LINE SMOOTH",
"304 607 OFFCURVE",
"266 649 OFFCURVE",
"180 649 CURVE SMOOTH",
"94 649 OFFCURVE",
"56 607 OFFCURVE",
"56 532 CURVE",
"56 508 OFFCURVE",
"61 476 OFFCURVE",
"61 476 CURVE",
"106 476 LINE",
"106 476 OFFCURVE",
"101 507 OFFCURVE",
"101 532 CURVE",
"101 576 OFFCURVE",
"114 607 OFFCURVE",
"180 607 CURVE SMOOTH",
"246 607 OFFCURVE",
"259 577 OFFCURVE",
"259 532 CURVE SMOOTH",
"259 386 LINE",
"177 386 LINE SMOOTH",
"87 386 OFFCURVE",
"50 351 OFFCURVE",
"50 276 CURVE SMOOTH",
"50 175 LINE SMOOTH",
"50 100 OFFCURVE",
"87 63 OFFCURVE",
"177 63 CURVE SMOOTH",
"267 63 OFFCURVE",
"304 100 OFFCURVE",
"304 175 CURVE SMOOTH",
"304 346 LINE",
"481 346 LINE"
);
}
);
width = 396;
},
{
layerId = "13BA1341-7400-426C-964F-62F99446C2B7";
paths = (
{
closed = 1;
nodes = (
"247 212 LINE",
"247 189 OFFCURVE",
"241 173 OFFCURVE",
"208 173 CURVE SMOOTH",
"175 173 OFFCURVE",
"169 189 OFFCURVE",
"169 212 CURVE SMOOTH",
"169 277 LINE SMOOTH",
"169 300 OFFCURVE",
"175 316 OFFCURVE",
"208 316 CURVE SMOOTH",
"247 316 LINE"
);
},
{
closed = 1;
nodes = (
"518 434 LINE",
"387 434 LINE",
"387 513 LINE SMOOTH",
"387 616 OFFCURVE",
"334 676 OFFCURVE",
"211 676 CURVE SMOOTH",
"88 676 OFFCURVE",
"35 616 OFFCURVE",
"35 513 CURVE",
"35 492 OFFCURVE",
"39 476 OFFCURVE",
"39 476 CURVE",
"179 476 LINE",
"179 476 OFFCURVE",
"175 491 OFFCURVE",
"175 508 CURVE",
"175 531 OFFCURVE",
"178 547 OFFCURVE",
"211 547 CURVE SMOOTH",
"244 547 OFFCURVE",
"247 531 OFFCURVE",
"247 508 CURVE SMOOTH",
"247 434 LINE",
"208 434 LINE SMOOTH",
"85 434 OFFCURVE",
"35 375 OFFCURVE",
"35 282 CURVE SMOOTH",
"35 207 LINE SMOOTH",
"35 114 OFFCURVE",
"85 54 OFFCURVE",
"208 54 CURVE SMOOTH",
"331 54 OFFCURVE",
"381 114 OFFCURVE",
"381 207 CURVE SMOOTH",
"381 316 LINE",
"518 316 LINE"
);
}
);
width = 437;
}
);
},
{
glyphname = dvBHA;
lastChange = "2018-02-07 10:31:24 +0000";
layers = (
{
layerId = UUID0;
paths = (
{
closed = 1;
nodes = (
"259 175 LINE",
"259 130 OFFCURVE",
"247 105 OFFCURVE",
"177 105 CURVE SMOOTH",
"107 105 OFFCURVE",
"95 131 OFFCURVE",
"95 175 CURVE SMOOTH",
"95 276 LINE SMOOTH",
"95 321 OFFCURVE",
"107 346 OFFCURVE",
"177 346 CURVE SMOOTH",
"259 346 LINE"
);
},
{
closed = 1;
nodes = (
"259 386 LINE",
"177 386 LINE SMOOTH",
"87 386 OFFCURVE",
"50 351 OFFCURVE",
"50 276 CURVE SMOOTH",
"50 175 LINE SMOOTH",
"50 100 OFFCURVE",
"87 63 OFFCURVE",
"177 63 CURVE SMOOTH",
"267 63 OFFCURVE",
"304 100 OFFCURVE",
"304 175 CURVE SMOOTH",
"304 346 LINE",
"446 346 LINE",
"446 0 LINE",
"491 0 LINE",
"491 604 LINE",
"591 604 LINE",
"591 644 LINE",
"446 644 LINE",
"446 386 LINE",
"304 386 LINE",
"304 532 LINE SMOOTH",
"304 607 OFFCURVE",
"266 649 OFFCURVE",
"180 649 CURVE SMOOTH",
"94 649 OFFCURVE",
"56 607 OFFCURVE",
"56 532 CURVE",
"56 507 OFFCURVE",
"60 476 OFFCURVE",
"60 476 CURVE",
"105 476 LINE",
"105 476 OFFCURVE",
"101 509 OFFCURVE",
"101 532 CURVE",
"101 576 OFFCURVE",
"114 607 OFFCURVE",
"180 607 CURVE SMOOTH",
"246 607 OFFCURVE",
"259 577 OFFCURVE",
"259 532 CURVE SMOOTH"
);
}
);
width = 571;
},
{
layerId = "13BA1341-7400-426C-964F-62F99446C2B7";
paths = (
{
closed = 1;
nodes = (
"248 212 LINE",
"248 189 OFFCURVE",
"242 173 OFFCURVE",
"209 173 CURVE SMOOTH",
"176 173 OFFCURVE",
"170 189 OFFCURVE",
"170 212 CURVE SMOOTH",
"170 277 LINE SMOOTH",
"170 300 OFFCURVE",
"176 316 OFFCURVE",
"209 316 CURVE SMOOTH",
"248 316 LINE"
);
},
{
closed = 1;
nodes = (
"248 434 LINE",
"209 434 LINE SMOOTH",
"86 434 OFFCURVE",
"36 375 OFFCURVE",
"36 282 CURVE SMOOTH",
"36 207 LINE SMOOTH",
"36 114 OFFCURVE",
"86 54 OFFCURVE",
"209 54 CURVE SMOOTH",
"332 54 OFFCURVE",
"382 114 OFFCURVE",
"382 207 CURVE SMOOTH",
"382 316 LINE",
"466 316 LINE",
"466 0 LINE",
"606 0 LINE",
"606 554 LINE",
"688 554 LINE",
"688 671 LINE",
"466 671 LINE",
"466 434 LINE",
"388 434 LINE",
"388 513 LINE SMOOTH",
"388 616 OFFCURVE",
"335 676 OFFCURVE",
"212 676 CURVE SMOOTH",
"89 676 OFFCURVE",
"36 616 OFFCURVE",
"36 513 CURVE",
"36 498 OFFCURVE",
"40 476 OFFCURVE",
"40 476 CURVE",
"180 476 LINE",
"180 476 OFFCURVE",
"176 492 OFFCURVE",
"176 508 CURVE",
"176 531 OFFCURVE",
"179 547 OFFCURVE",
"212 547 CURVE SMOOTH",
"245 547 OFFCURVE",
"248 531 OFFCURVE",
"248 508 CURVE SMOOTH"
);
}
);
width = 648;
}
);
unicode = 092D;
},
{
glyphname = dvBH_LA;
lastChange = "2018-02-07 10:31:24 +0000";
layers = (
{
components = (
{
name = dvBH;
}
);
layerId = UUID0;
paths = (
{
closed = 1;
nodes = (
"439 146 LINE",
"439 56 OFFCURVE",
"484 0 OFFCURVE",
"594 0 CURVE SMOOTH",
"617 0 OFFCURVE",
"635 2 OFFCURVE",
"651 5 CURVE",
"651 45 LINE",
"638 43 OFFCURVE",
"615 40 OFFCURVE",
"594 40 CURVE SMOOTH",
"504 40 OFFCURVE",
"484 86 OFFCURVE",
"484 146 CURVE SMOOTH",
"484 354 LINE SMOOTH",
"484 399 OFFCURVE",
"499 434 OFFCURVE",
"569 434 CURVE SMOOTH",
"636 434 OFFCURVE",
"654 400 OFFCURVE",
"654 357 CURVE SMOOTH",
"654 206 LINE",
"699 206 LINE",
"699 357 LINE SMOOTH",
"699 400 OFFCURVE",
"722 434 OFFCURVE",
"789 434 CURVE SMOOTH",
"817 434 OFFCURVE",
"845 429 OFFCURVE",
"869 418 CURVE",
"869 0 LINE",
"914 0 LINE",
"914 604 LINE",
"1014 604 LINE",
"1014 644 LINE",
"364 644 LINE",
"364 604 LINE",
"869 604 LINE",
"869 460 LINE",
"842 471 OFFCURVE",
"821 476 OFFCURVE",
"789 476 CURVE SMOOTH",
"737 476 OFFCURVE",
"697 460 OFFCURVE",
"676 433 CURVE",
"656 460 OFFCURVE",
"620 476 OFFCURVE",
"569 476 CURVE SMOOTH",
"479 476 OFFCURVE",
"439 429 OFFCURVE",
"439 354 CURVE SMOOTH"
);
}
);
width = 994;
},
{
components = (
{
name = dvBH;
}
);
layerId = "13BA1341-7400-426C-964F-62F99446C2B7";
paths = (
{
closed = 1;
nodes = (
"462 182 LINE",
"462 59 OFFCURVE",
"522 0 OFFCURVE",
"665 0 CURVE SMOOTH",
"694 0 OFFCURVE",
"716 2 OFFCURVE",
"732 4 CURVE",
"732 132 LINE",
"714 130 OFFCURVE",
"695 129 OFFCURVE",
"673 129 CURVE SMOOTH",
"612 129 OFFCURVE",
"602 154 OFFCURVE",
"602 188 CURVE SMOOTH",
"602 326 LINE SMOOTH",
"602 349 OFFCURVE",
"608 365 OFFCURVE",
"641 365 CURVE SMOOTH",
"674 365 OFFCURVE",
"680 349 OFFCURVE",
"680 326 CURVE SMOOTH",
"680 212 LINE",
"820 212 LINE",
"820 326 LINE SMOOTH",
"820 349 OFFCURVE",
"830 365 OFFCURVE",
"863 365 CURVE SMOOTH",
"883 365 OFFCURVE",
"898 360 OFFCURVE",
"898 360 CURVE",
"898 0 LINE",
"1038 0 LINE",
"1038 554 LINE",
"1120 554 LINE",
"1120 671 LINE",
"440 671 LINE",
"440 554 LINE",
"898 554 LINE",
"898 488 LINE",
"898 488 OFFCURVE",
"877 493 OFFCURVE",
"850 493 CURVE SMOOTH",
"792 493 OFFCURVE",
"767 469 OFFCURVE",
"747 439 CURVE",
"735 463 OFFCURVE",
"702 494 OFFCURVE",
"636 494 CURVE SMOOTH",
"523 494 OFFCURVE",
"462 434 OFFCURVE",
"462 331 CURVE SMOOTH"
);
}
);
width = 1080;
}
);
},
{
glyphname = dvBH_NA;
lastChange = "2018-02-07 10:31:24 +0000";
layers = (
{
layerId = UUID0;
paths = (
{
closed = 1;
nodes = (
"259 175 LINE",
"259 130 OFFCURVE",
"247 105 OFFCURVE",
"177 105 CURVE SMOOTH",
"107 105 OFFCURVE",
"95 131 OFFCURVE",
"95 175 CURVE SMOOTH",
"95 276 LINE SMOOTH",
"95 321 OFFCURVE",
"107 346 OFFCURVE",
"177 346 CURVE SMOOTH",
"259 346 LINE"
);
},
{
closed = 1;
nodes = (
"451 386 LINE",
"304 386 LINE",
"304 532 LINE SMOOTH",
"304 607 OFFCURVE",
"266 649 OFFCURVE",
"180 649 CURVE SMOOTH",
"94 649 OFFCURVE",
"56 607 OFFCURVE",
"56 532 CURVE",
"56 505 OFFCURVE",
"60 476 OFFCURVE",
"60 476 CURVE",
"105 476 LINE",
"105 476 OFFCURVE",
"101 506 OFFCURVE",
"101 532 CURVE",
"101 576 OFFCURVE",
"114 607 OFFCURVE",
"180 607 CURVE SMOOTH",
"246 607 OFFCURVE",
"259 577 OFFCURVE",
"259 532 CURVE SMOOTH",
"259 386 LINE",
"177 386 LINE SMOOTH",
"87 386 OFFCURVE",
"50 351 OFFCURVE",
"50 276 CURVE SMOOTH",
"50 175 LINE SMOOTH",
"50 100 OFFCURVE",
"87 63 OFFCURVE",
"177 63 CURVE SMOOTH",
"267 63 OFFCURVE",
"304 100 OFFCURVE",
"304 175 CURVE SMOOTH",
"304 346 LINE",
"451 346 LINE"
);
},
{
closed = 1;
nodes = (
"822 436 LINE",
"822 0 LINE",
"867 0 LINE",
"867 604 LINE",
"967 604 LINE",
"967 644 LINE",
"364 644 LINE",
"364 604 LINE",
"822 604 LINE",
"822 476 LINE",
"557 476 LINE SMOOTH",
"477 476 OFFCURVE",
"434 441 OFFCURVE",
"434 366 CURVE SMOOTH",
"434 175 LINE SMOOTH",
"434 100 OFFCURVE",
"477 63 OFFCURVE",
"557 63 CURVE SMOOTH",
"637 63 OFFCURVE",
"680 100 OFFCURVE",
"680 175 CURVE",
"680 361 LINE",
"680 411 OFFCURVE",
"667 436 OFFCURVE",
"667 436 CURVE"
);
},
{
closed = 1;
nodes = (
"622 436 LINE",
"622 436 OFFCURVE",
"635 408 OFFCURVE",
"635 361 CURVE",
"635 175 LINE SMOOTH",
"635 130 OFFCURVE",
"617 105 OFFCURVE",
"557 105 CURVE SMOOTH",
"497 105 OFFCURVE",
"479 131 OFFCURVE",
"479 175 CURVE SMOOTH",
"479 366 LINE SMOOTH",
"479 411 OFFCURVE",
"497 436 OFFCURVE",
"557 436 CURVE SMOOTH"
);
}
);
width = 947;
},
{
layerId = "13BA1341-7400-426C-964F-62F99446C2B7";
paths = (
{
closed = 1;
nodes = (
"247 212 LINE",
"247 189 OFFCURVE",
"241 173 OFFCURVE",
"208 173 CURVE SMOOTH",
"175 173 OFFCURVE",
"169 189 OFFCURVE",
"169 212 CURVE SMOOTH",
"169 277 LINE SMOOTH",
"169 300 OFFCURVE",
"175 316 OFFCURVE",
"208 316 CURVE SMOOTH",
"247 316 LINE"
);
},
{
closed = 1;
nodes = (
"518 434 LINE",
"387 434 LINE",
"387 513 LINE SMOOTH",
"387 616 OFFCURVE",
"334 676 OFFCURVE",
"211 676 CURVE SMOOTH",
"88 676 OFFCURVE",
"35 616 OFFCURVE",
"35 513 CURVE",
"35 492 OFFCURVE",
"39 476 OFFCURVE",
"39 476 CURVE",
"179 476 LINE",
"179 476 OFFCURVE",
"175 491 OFFCURVE",
"175 508 CURVE",
"175 531 OFFCURVE",
"178 547 OFFCURVE",
"211 547 CURVE SMOOTH",
"244 547 OFFCURVE",
"247 531 OFFCURVE",
"247 508 CURVE SMOOTH",
"247 434 LINE",
"208 434 LINE SMOOTH",
"85 434 OFFCURVE",
"35 375 OFFCURVE",
"35 282 CURVE SMOOTH",
"35 207 LINE SMOOTH",
"35 114 OFFCURVE",
"85 54 OFFCURVE",
"208 54 CURVE SMOOTH",
"331 54 OFFCURVE",
"381 114 OFFCURVE",
"381 207 CURVE SMOOTH",
"381 316 LINE",
"518 316 LINE"
);
},
{
closed = 1;
nodes = (
"853 362 LINE",
"853 0 LINE",
"993 0 LINE",
"993 554 LINE",
"1075 554 LINE",
"1075 671 LINE",
"449 671 LINE",
"449 554 LINE",
"853 554 LINE",
"853 491 LINE",
"626 491 LINE SMOOTH",
"503 491 OFFCURVE",
"457 431 OFFCURVE",
"457 328 CURVE SMOOTH",
"457 215 LINE SMOOTH",
"457 112 OFFCURVE",
"503 52 OFFCURVE",
"626 52 CURVE SMOOTH",
"749 52 OFFCURVE",
"793 112 OFFCURVE",
"793 215 CURVE",
"793 306 LINE",
"793 326 OFFCURVE",
"789 355 OFFCURVE",
"787 362 CURVE"
);
},
{
closed = 1;
nodes = (
"655 362 LINE",
"659 352 OFFCURVE",
"662 327 OFFCURVE",
"662 301 CURVE",
"662 216 LINE SMOOTH",
"662 193 OFFCURVE",
"657 177 OFFCURVE",
"626 177 CURVE SMOOTH",
"595 177 OFFCURVE",
"590 193 OFFCURVE",
"590 216 CURVE SMOOTH",
"590 323 LINE SMOOTH",
"590 346 OFFCURVE",
"595 362 OFFCURVE",
"626 362 CURVE"
);
}
);
width = 1035;
}
);
},
{
glyphname = dvBH_R;
lastChange = "2018-02-07 10:31:24 +0000";
layers = (
{
layerId = UUID0;
paths = (
{
closed = 1;
nodes = (
"487 416 LINE",
"311 416 LINE",
"311 532 LINE SMOOTH",
"311 607 OFFCURVE",
"273 649 OFFCURVE",
"187 649 CURVE SMOOTH",
"101 649 OFFCURVE",
"63 607 OFFCURVE",
"63 532 CURVE",
"63 507 OFFCURVE",
"68 476 OFFCURVE",
"68 476 CURVE",
"113 476 LINE",
"113 476 OFFCURVE",
"108 503 OFFCURVE",
"108 532 CURVE",
"108 576 OFFCURVE",
"121 607 OFFCURVE",
"187 607 CURVE SMOOTH",
"253 607 OFFCURVE",
"266 577 OFFCURVE",
"266 532 CURVE SMOOTH",
"266 416 LINE",
"184 416 LINE SMOOTH",
"94 416 OFFCURVE",
"57 381 OFFCURVE",
"57 306 CURVE SMOOTH",
"57 245 LINE SMOOTH",
"57 170 OFFCURVE",
"94 133 OFFCURVE",
"184 133 CURVE SMOOTH",
"274 133 OFFCURVE",
"311 170 OFFCURVE",
"311 245 CURVE SMOOTH",
"311 376 LINE",
"487 376 LINE"
);
},
{
closed = 1;
nodes = (
"487 265 LINE",
"190 -44 LINE",
"253 -44 LINE",
"364 73 LINE SMOOTH",
"405 115 OFFCURVE",
"462 183 OFFCURVE",
"487 216 CURVE"
);
},
{
closed = 1;
nodes = (
"266 245 LINE",
"266 200 OFFCURVE",
"254 175 OFFCURVE",
"184 175 CURVE SMOOTH",
"114 175 OFFCURVE",
"102 201 OFFCURVE",
"102 245 CURVE SMOOTH",
"102 306 LINE SMOOTH",
"102 351 OFFCURVE",
"114 376 OFFCURVE",
"184 376 CURVE SMOOTH",
"266 376 LINE"
);
}
);
width = 403;
},
{
layerId = "13BA1341-7400-426C-964F-62F99446C2B7";
paths = (
{
closed = 1;
nodes = (
"520 453 LINE",
"388 453 LINE",
"388 513 LINE SMOOTH",
"388 616 OFFCURVE",
"335 676 OFFCURVE",
"212 676 CURVE SMOOTH",
"89 676 OFFCURVE",
"36 616 OFFCURVE",
"36 513 CURVE",
"36 501 OFFCURVE",
"38 491 OFFCURVE",
"38 491 CURVE",
"178 491 LINE",
"178 491 OFFCURVE",
"176 498 OFFCURVE",
"176 508 CURVE",
"176 531 OFFCURVE",
"179 547 OFFCURVE",
"212 547 CURVE SMOOTH",
"245 547 OFFCURVE",
"248 531 OFFCURVE",
"248 508 CURVE SMOOTH",
"248 453 LINE",
"209 453 LINE SMOOTH",
"86 453 OFFCURVE",
"35 393 OFFCURVE",
"35 300 CURVE SMOOTH",
"35 273 LINE SMOOTH",
"35 180 OFFCURVE",
"86 120 OFFCURVE",
"209 120 CURVE SMOOTH",
"330 120 OFFCURVE",
"382 180 OFFCURVE",
"382 273 CURVE SMOOTH",
"382 335 LINE",
"520 335 LINE"
);
},
{
closed = 1;
nodes = (
"520 324 LINE",
"204 -58 LINE",
"366 -58 LINE",
"425 13 LINE SMOOTH",
"474 71 OFFCURVE",
"512 147 OFFCURVE",
"520 174 CURVE"
);
},
{
closed = 1;
nodes = (
"248 278 LINE",
"248 255 OFFCURVE",
"242 239 OFFCURVE",
"209 239 CURVE SMOOTH",
"176 239 OFFCURVE",
"170 255 OFFCURVE",
"170 278 CURVE SMOOTH",
"170 296 LINE SMOOTH",
"170 319 OFFCURVE",
"176 335 OFFCURVE",
"209 335 CURVE SMOOTH",
"248 335 LINE"
);
}
);
width = 462;
}
);
},
{
glyphname = dvBH_RA;
lastChange = "2018-02-07 10:31:24 +0000";
layers = (
{
layerId = UUID0;
paths = (
{
closed = 1;
nodes = (
"456 233 LINE",
"190 -44 LINE",
"253 -44 LINE",
"364 73 LINE SMOOTH",
"451 165 OFFCURVE",
"457 175 OFFCURVE",
"459 178 CURVE",
"459 178 LINE",
"459 178 OFFCURVE",
"456 121 OFFCURVE",
"456 36 CURVE SMOOTH",
"456 0 LINE",
"501 0 LINE",
"501 604 LINE",
"601 604 LINE",
"601 644 LINE",
"456 644 LINE",
"456 416 LINE",
"311 416 LINE",
"311 532 LINE SMOOTH",
"311 607 OFFCURVE",
"273 649 OFFCURVE",
"187 649 CURVE SMOOTH",
"101 649 OFFCURVE",
"63 607 OFFCURVE",
"63 532 CURVE",
"63 502 OFFCURVE",
"67 476 OFFCURVE",
"67 476 CURVE",
"112 476 LINE",
"112 476 OFFCURVE",
"108 496 OFFCURVE",
"108 532 CURVE",
"108 576 OFFCURVE",
"121 607 OFFCURVE",
"187 607 CURVE SMOOTH",
"253 607 OFFCURVE",
"266 577 OFFCURVE",
"266 532 CURVE SMOOTH",
"266 416 LINE",
"184 416 LINE SMOOTH",
"94 416 OFFCURVE",
"57 381 OFFCURVE",
"57 306 CURVE SMOOTH",
"57 245 LINE SMOOTH",
"57 170 OFFCURVE",
"94 133 OFFCURVE",
"184 133 CURVE SMOOTH",
"274 133 OFFCURVE",
"311 170 OFFCURVE",
"311 245 CURVE SMOOTH",
"311 376 LINE",
"456 376 LINE"
);
},
{
closed = 1;
nodes = (
"266 245 LINE",
"266 200 OFFCURVE",
"254 175 OFFCURVE",
"184 175 CURVE SMOOTH",
"114 175 OFFCURVE",
"102 201 OFFCURVE",
"102 245 CURVE SMOOTH",
"102 306 LINE SMOOTH",
"102 351 OFFCURVE",
"114 376 OFFCURVE",
"184 376 CURVE SMOOTH",
"266 376 LINE"
);
}
);
width = 581;
},
{
layerId = "13BA1341-7400-426C-964F-62F99446C2B7";
paths = (
{
closed = 1;
nodes = (
"466 259 LINE",
"204 -58 LINE",
"366 -58 LINE",
"418 4 LINE SMOOTH",
"442 33 OFFCURVE",
"477 95 OFFCURVE",
"485 122 CURVE",
"487 122 LINE",
"479 66 OFFCURVE",
"476 14 OFFCURVE",
"476 -3 CURVE SMOOTH",
"476 -8 LINE",
"606 -8 LINE",
"606 554 LINE",
"688 554 LINE",
"688 671 LINE",
"466 671 LINE",
"466 453 LINE",
"388 453 LINE",
"388 513 LINE SMOOTH",
"388 616 OFFCURVE",
"335 676 OFFCURVE",
"212 676 CURVE SMOOTH",
"89 676 OFFCURVE",
"36 616 OFFCURVE",
"36 513 CURVE",
"36 499 OFFCURVE",
"38 491 OFFCURVE",
"38 491 CURVE",
"178 491 LINE",
"178 491 OFFCURVE",
"176 500 OFFCURVE",
"176 508 CURVE",
"176 531 OFFCURVE",
"179 547 OFFCURVE",
"212 547 CURVE SMOOTH",
"245 547 OFFCURVE",
"248 531 OFFCURVE",
"248 508 CURVE SMOOTH",
"248 453 LINE",
"209 453 LINE SMOOTH",
"86 453 OFFCURVE",
"35 393 OFFCURVE",
"35 300 CURVE SMOOTH",
"35 273 LINE SMOOTH",
"35 180 OFFCURVE",
"86 120 OFFCURVE",
"209 120 CURVE SMOOTH",
"330 120 OFFCURVE",
"382 180 OFFCURVE",
"382 273 CURVE SMOOTH",
"382 335 LINE",
"466 335 LINE"
);
},
{
closed = 1;
nodes = (
"248 278 LINE",
"248 255 OFFCURVE",
"242 239 OFFCURVE",
"209 239 CURVE SMOOTH",
"176 239 OFFCURVE",
"170 255 OFFCURVE",
"170 278 CURVE SMOOTH",
"170 296 LINE SMOOTH",
"170 319 OFFCURVE",
"176 335 OFFCURVE",
"209 335 CURVE SMOOTH",
"248 335 LINE"
);
}
);
width = 648;
}
);
},
{
glyphname = dvBH_R_YA;
lastChange = "2018-02-07 10:31:24 +0000";
layers = (
{
layerId = UUID0;
paths = (
{
closed = 1;
nodes = (
"259 245 LINE",
"259 200 OFFCURVE",
"247 175 OFFCURVE",
"177 175 CURVE SMOOTH",
"107 175 OFFCURVE",
"95 201 OFFCURVE",
"95 245 CURVE SMOOTH",
"95 291 LINE SMOOTH",
"95 336 OFFCURVE",
"107 361 OFFCURVE",
"177 361 CURVE SMOOTH",
"259 361 LINE"
);
},
{
closed = 1;
nodes = (
"304 401 LINE",
"304 532 LINE SMOOTH",
"304 607 OFFCURVE",
"266 649 OFFCURVE",
"180 649 CURVE SMOOTH",
"94 649 OFFCURVE",
"56 607 OFFCURVE",
"56 532 CURVE SMOOTH",
"56 491 LINE",
"101 491 LINE",
"101 532 LINE SMOOTH",
"101 576 OFFCURVE",
"114 607 OFFCURVE",
"180 607 CURVE SMOOTH",
"246 607 OFFCURVE",
"259 577 OFFCURVE",
"259 532 CURVE SMOOTH",
"259 401 LINE",
"177 401 LINE SMOOTH",
"87 401 OFFCURVE",
"50 366 OFFCURVE",
"50 291 CURVE SMOOTH",
"50 245 LINE SMOOTH",
"50 170 OFFCURVE",
"87 133 OFFCURVE",
"177 133 CURVE SMOOTH",
"267 133 OFFCURVE",
"304 170 OFFCURVE",
"304 245 CURVE SMOOTH",
"304 361 LINE",
"404 361 LINE SMOOTH",
"427 361 OFFCURVE",
"447 356 OFFCURVE",
"447 335 CURVE",
"480 358 LINE",
"480 384 OFFCURVE",
"459 401 OFFCURVE",
"410 401 CURVE SMOOTH"
);
},
{
closed = 1;
nodes = (
"364 604 LINE",
"491 604 LINE SMOOTH",
"560 604 OFFCURVE",
"578 574 OFFCURVE",
"578 529 CURVE SMOOTH",
"578 461 LINE SMOOTH",
"578 400 OFFCURVE",
"550 386 OFFCURVE",
"464 386 CURVE SMOOTH",
"444 386 LINE",
"444 253 LINE SMOOTH",
"444 115 OFFCURVE",
"522 85 OFFCURVE",
"618 85 CURVE SMOOTH",
"693 85 OFFCURVE",
"731 104 OFFCURVE",
"750 132 CURVE",
"750 0 LINE",
"795 0 LINE",
"795 604 LINE",
"895 604 LINE",
"895 644 LINE",
"364 644 LINE"
);
},
{
closed = 1;
nodes = (
"518 127 OFFCURVE",
"489 167 OFFCURVE",
"489 253 CURVE SMOOTH",
"489 344 LINE",
"570 344 OFFCURVE",
"623 377 OFFCURVE",
"623 461 CURVE SMOOTH",
"623 529 LINE SMOOTH",
"623 572 OFFCURVE",
"609 594 OFFCURVE",
"591 604 CURVE",
"750 604 LINE",
"750 253 LINE SMOOTH",
"750 167 OFFCURVE",
"720 127 OFFCURVE",
"618 127 CURVE SMOOTH"
);
},
{
closed = 1;
nodes = (
"487 265 LINE",
"190 -44 LINE",
"253 -44 LINE",
"364 73 LINE SMOOTH",
"405 115 OFFCURVE",
"462 183 OFFCURVE",
"487 216 CURVE"
);
}
);
width = 875;
},
{
layerId = "13BA1341-7400-426C-964F-62F99446C2B7";
paths = (
{
closed = 1;
nodes = (
"248 278 LINE",
"248 255 OFFCURVE",
"242 239 OFFCURVE",
"209 239 CURVE SMOOTH",
"176 239 OFFCURVE",
"170 255 OFFCURVE",
"170 278 CURVE SMOOTH",
"170 297 LINE SMOOTH",
"170 320 OFFCURVE",
"176 336 OFFCURVE",
"209 336 CURVE SMOOTH",
"248 336 LINE"
);
},
{
closed = 1;
nodes = (
"388 452 LINE",
"388 513 LINE SMOOTH",
"388 616 OFFCURVE",
"335 676 OFFCURVE",
"212 676 CURVE SMOOTH",
"89 676 OFFCURVE",
"36 616 OFFCURVE",
"36 513 CURVE",
"36 493 OFFCURVE",
"39 476 OFFCURVE",
"39 476 CURVE",
"179 476 LINE",
"179 476 OFFCURVE",
"176 491 OFFCURVE",
"176 508 CURVE",
"176 531 OFFCURVE",
"179 547 OFFCURVE",
"212 547 CURVE SMOOTH",
"245 547 OFFCURVE",
"248 531 OFFCURVE",
"248 508 CURVE SMOOTH",
"248 452 LINE",
"209 452 LINE SMOOTH",
"86 452 OFFCURVE",
"36 393 OFFCURVE",
"36 300 CURVE SMOOTH",
"36 271 LINE SMOOTH",
"36 178 OFFCURVE",
"86 118 OFFCURVE",
"209 118 CURVE SMOOTH",
"332 118 OFFCURVE",
"382 178 OFFCURVE",
"382 271 CURVE SMOOTH",
"382 334 LINE",
"422 334 LINE",
"466 334 OFFCURVE",
"486 325 OFFCURVE",
"486 292 CURVE",
"581 330 LINE",
"581 419 OFFCURVE",
"535 452 OFFCURVE",
"430 452 CURVE"
);
},
{
closed = 1;
nodes = (
"440 554 LINE",
"566 554 LINE",
"566 554 OFFCURVE",
"573 541 OFFCURVE",
"573 507 CURVE SMOOTH",
"573 459 LINE",
"573 409 OFFCURVE",
"552 396 OFFCURVE",
"484 396 CURVE SMOOTH",
"460 396 LINE",
"460 270 LINE SMOOTH",
"460 153 OFFCURVE",
"553 86 OFFCURVE",
"692 86 CURVE",
"725 86 OFFCURVE",
"754 89 OFFCURVE",
"775 95 CURVE",
"775 0 LINE",
"915 0 LINE",
"915 554 LINE",
"997 554 LINE",
"997 671 LINE",
"440 671 LINE"
);
},
{
closed = 1;
nodes = (
"629 216 OFFCURVE",
"597 243 OFFCURVE",
"597 290 CURVE SMOOTH",
"597 308 LINE",
"674 312 OFFCURVE",
"709 353 OFFCURVE",
"709 430 CURVE SMOOTH",
"709 507 LINE SMOOTH",
"709 534 OFFCURVE",
"703 554 OFFCURVE",
"703 554 CURVE",
"775 554 LINE",
"775 224 LINE",
"752 218 OFFCURVE",
"728 216 OFFCURVE",
"700 216 CURVE"
);
},
{
closed = 1;
nodes = (
"551 324 LINE",
"235 -58 LINE",
"397 -58 LINE",
"456 13 LINE SMOOTH",
"505 71 OFFCURVE",
"543 147 OFFCURVE",
"551 174 CURVE"
);
}
);
width = 957;
}
);
},
{
glyphname = dvBH_VA;
lastChange = "2018-02-07 10:31:24 +0000";
layers = (
{
components = (
{
name = dvBH;
}
);
layerId = UUID0;
paths = (
{
closed = 1;
nodes = (
"682 491 LINE",
"673 495 OFFCURVE",
"632 505 OFFCURVE",
"583 505 CURVE SMOOTH",
"488 505 OFFCURVE",
"437 455 OFFCURVE",
"437 381 CURVE SMOOTH",
"437 199 LINE SMOOTH",
"437 120 OFFCURVE",
"488 74 OFFCURVE",
"583 74 CURVE SMOOTH",
"632 74 OFFCURVE",
"673 84 OFFCURVE",
"682 88 CURVE",
"682 0 LINE",
"727 0 LINE",
"727 604 LINE",
"827 604 LINE",
"827 644 LINE",
"367 644 LINE",
"367 604 LINE",
"682 604 LINE"
);
},
{
closed = 1;
nodes = (
"682 130 LINE",
"673 126 OFFCURVE",
"632 116 OFFCURVE",
"583 116 CURVE SMOOTH",
"508 116 OFFCURVE",
"482 149 OFFCURVE",
"482 199 CURVE SMOOTH",
"482 380 LINE SMOOTH",
"482 425 OFFCURVE",
"508 463 OFFCURVE",
"583 463 CURVE SMOOTH",
"632 463 OFFCURVE",
"673 453 OFFCURVE",
"682 449 CURVE"
);
}
);
width = 807;
},
{
components = (
{
name = dvBH;
}
);
layerId = "13BA1341-7400-426C-964F-62F99446C2B7";
paths = (
{
closed = 1;
nodes = (
"694 499 LINE",
"679 502 OFFCURVE",
"655 506 OFFCURVE",
"628 506 CURVE",
"509 506 OFFCURVE",
"464 449 OFFCURVE",
"464 346 CURVE SMOOTH",
"464 211 LINE SMOOTH",
"464 108 OFFCURVE",
"505 52 OFFCURVE",
"628 52 CURVE",
"657 52 OFFCURVE",
"679 56 OFFCURVE",
"694 59 CURVE",
"694 0 LINE",
"834 0 LINE",
"834 554 LINE",
"916 554 LINE",
"916 671 LINE",
"447 671 LINE",
"447 554 LINE",
"694 554 LINE"
);
},
{
closed = 1;
nodes = (
"701 177 LINE",
"690 173 OFFCURVE",
"674 170 OFFCURVE",
"654 170 CURVE",
"619 170 OFFCURVE",
"600 184 OFFCURVE",
"600 214 CURVE",
"600 345 LINE SMOOTH",
"600 375 OFFCURVE",
"618 388 OFFCURVE",
"653 388 CURVE",
"671 388 OFFCURVE",
"686 386 OFFCURVE",
"701 383 CURVE"
);
}
);
width = 876;
}
);
},
{
glyphname = dvBH_YA;
lastChange = "2018-02-07 10:31:24 +0000";
layers = (
{
layerId = UUID0;
paths = (
{
closed = 1;
nodes = (
"259 175 LINE",
"259 130 OFFCURVE",
"247 105 OFFCURVE",
"177 105 CURVE SMOOTH",
"107 105 OFFCURVE",
"95 131 OFFCURVE",
"95 175 CURVE SMOOTH",
"95 291 LINE SMOOTH",
"95 336 OFFCURVE",
"107 361 OFFCURVE",
"177 361 CURVE SMOOTH",
"259 361 LINE"
);
},
{
closed = 1;
nodes = (
"401 361 LINE",
"424 361 OFFCURVE",
"444 356 OFFCURVE",
"444 335 CURVE",
"477 358 LINE",
"477 384 OFFCURVE",
"456 401 OFFCURVE",
"407 401 CURVE",
"304 401 LINE",
"304 532 LINE SMOOTH",
"304 607 OFFCURVE",
"266 649 OFFCURVE",
"180 649 CURVE SMOOTH",
"94 649 OFFCURVE",
"56 607 OFFCURVE",
"56 532 CURVE",
"56 508 OFFCURVE",
"61 476 OFFCURVE",
"61 476 CURVE",
"106 476 LINE",
"106 476 OFFCURVE",
"101 507 OFFCURVE",
"101 532 CURVE",
"101 576 OFFCURVE",
"114 607 OFFCURVE",
"180 607 CURVE SMOOTH",
"246 607 OFFCURVE",
"259 577 OFFCURVE",
"259 532 CURVE SMOOTH",
"259 401 LINE",
"177 401 LINE SMOOTH",
"87 401 OFFCURVE",
"50 366 OFFCURVE",
"50 291 CURVE SMOOTH",
"50 175 LINE SMOOTH",
"50 100 OFFCURVE",
"87 63 OFFCURVE",
"177 63 CURVE SMOOTH",
"267 63 OFFCURVE",
"304 100 OFFCURVE",
"304 175 CURVE SMOOTH",
"304 361 LINE"
);
},
{
closed = 1;
nodes = (
"623 529 LINE",
"623 579 OFFCURVE",
"615 604 OFFCURVE",
"615 604 CURVE",
"750 604 LINE",
"750 139 LINE",
"724 134 OFFCURVE",
"682 127 OFFCURVE",
"632 127 CURVE SMOOTH",
"532 127 OFFCURVE",
"489 167 OFFCURVE",
"489 253 CURVE SMOOTH",
"489 339 LINE",
"570 339 OFFCURVE",
"623 372 OFFCURVE",
"623 456 CURVE SMOOTH"
);
},
{
closed = 1;
nodes = (
"570 604 LINE",
"570 604 OFFCURVE",
"578 576 OFFCURVE",
"578 529 CURVE",
"578 456 LINE SMOOTH",
"578 395 OFFCURVE",
"550 381 OFFCURVE",
"464 381 CURVE SMOOTH",
"444 381 LINE",
"444 253 LINE SMOOTH",
"444 115 OFFCURVE",
"536 85 OFFCURVE",
"632 85 CURVE SMOOTH",
"682 85 OFFCURVE",
"726 92 OFFCURVE",
"750 97 CURVE",
"750 0 LINE",
"795 0 LINE",
"795 604 LINE",
"895 604 LINE",
"895 644 LINE",
"364 644 LINE",
"364 604 LINE"
);
}
);
width = 875;
},
{
layerId = "13BA1341-7400-426C-964F-62F99446C2B7";
paths = (
{
closed = 1;
nodes = (
"248 212 LINE",
"248 189 OFFCURVE",
"242 173 OFFCURVE",
"209 173 CURVE SMOOTH",
"176 173 OFFCURVE",
"170 189 OFFCURVE",
"170 212 CURVE SMOOTH",
"170 277 LINE SMOOTH",
"170 300 OFFCURVE",
"176 316 OFFCURVE",
"209 316 CURVE SMOOTH",
"248 316 LINE"
);
},
{
closed = 1;
nodes = (
"422 316 LINE",
"466 316 OFFCURVE",
"486 307 OFFCURVE",
"486 274 CURVE",
"581 312 LINE",
"581 401 OFFCURVE",
"535 434 OFFCURVE",
"430 434 CURVE",
"388 434 LINE",
"388 513 LINE SMOOTH",
"388 616 OFFCURVE",
"335 676 OFFCURVE",
"212 676 CURVE SMOOTH",
"89 676 OFFCURVE",
"36 616 OFFCURVE",
"36 513 CURVE",
"36 493 OFFCURVE",
"39 476 OFFCURVE",
"39 476 CURVE",
"179 476 LINE",
"179 476 OFFCURVE",
"176 491 OFFCURVE",
"176 508 CURVE",
"176 531 OFFCURVE",
"179 547 OFFCURVE",
"212 547 CURVE SMOOTH",
"245 547 OFFCURVE",
"248 531 OFFCURVE",
"248 508 CURVE SMOOTH",
"248 434 LINE",
"209 434 LINE SMOOTH",
"86 434 OFFCURVE",
"36 375 OFFCURVE",
"36 282 CURVE SMOOTH",
"36 207 LINE SMOOTH",
"36 114 OFFCURVE",
"86 54 OFFCURVE",
"209 54 CURVE SMOOTH",
"332 54 OFFCURVE",
"382 114 OFFCURVE",
"382 207 CURVE SMOOTH",
"382 316 LINE"
);
},
{
closed = 1;
nodes = (
"709 507 LINE",
"709 534 OFFCURVE",
"703 554 OFFCURVE",
"703 554 CURVE",
"775 554 LINE",
"775 224 LINE",
"752 218 OFFCURVE",
"728 216 OFFCURVE",
"700 216 CURVE",
"629 216 OFFCURVE",
"597 243 OFFCURVE",
"597 290 CURVE SMOOTH",
"597 308 LINE",
"674 312 OFFCURVE",
"709 353 OFFCURVE",
"709 430 CURVE SMOOTH"
);
},
{
closed = 1;
nodes = (
"566 554 LINE",
"566 554 OFFCURVE",
"573 541 OFFCURVE",
"573 507 CURVE SMOOTH",
"573 459 LINE",
"573 409 OFFCURVE",
"552 396 OFFCURVE",
"484 396 CURVE SMOOTH",
"460 396 LINE",
"460 270 LINE SMOOTH",
"460 153 OFFCURVE",
"553 86 OFFCURVE",
"692 86 CURVE",
"725 86 OFFCURVE",
"754 89 OFFCURVE",
"775 95 CURVE",
"775 0 LINE",
"915 0 LINE",
"915 554 LINE",
"997 554 LINE",
"997 671 LINE",
"440 671 LINE",
"440 554 LINE"
);
}
);
width = 957;
}
);
},
{
glyphname = dvB_BA;
lastChange = "2018-02-07 10:31:24 +0000";
layers = (
{
components = (
{
name = dvBA;
transform = "{1, 0, 0, 1, 235, 0}";
}
);
layerId = UUID0;
paths = (
{
closed = 1;
nodes = (
"285 252 LINE",
"285 191 LINE",
"285 143 OFFCURVE",
"261 116 OFFCURVE",
"190 116 CURVE SMOOTH",
"115 116 OFFCURVE",
"95 146 OFFCURVE",
"95 191 CURVE SMOOTH",
"95 388 LINE SMOOTH",
"95 433 OFFCURVE",
"115 463 OFFCURVE",
"190 463 CURVE SMOOTH",
"216 463 OFFCURVE",
"237 458 OFFCURVE",
"237 458 CURVE",
"237 500 LINE",
"237 500 OFFCURVE",
"215 505 OFFCURVE",
"190 505 CURVE SMOOTH",
"95 505 OFFCURVE",
"50 463 OFFCURVE",
"50 388 CURVE SMOOTH",
"50 191 LINE SMOOTH",
"50 116 OFFCURVE",
"95 74 OFFCURVE",
"190 74 CURVE SMOOTH",
"290 74 OFFCURVE",
"330 116 OFFCURVE",
"330 191 CURVE SMOOTH",
"330 252 LINE"
);
},
{
closed = 1;
nodes = (
"68 414 LINE",
"60 373 LINE",
"299 191 LINE",
"321 221 LINE"
);
},
{
closed = 1;
nodes = (
"-20 604 LINE",
"330 604 LINE",
"330 644 LINE",
"-20 644 LINE"
);
}
);
width = 642;
},
{
components = (
{
name = dvBA;
transform = "{1, 0, 0, 1, 284, 0}";
}
);
layerId = "13BA1341-7400-426C-964F-62F99446C2B7";
paths = (
{
closed = 1;
nodes = (
"315 255 LINE",
"315 237 LINE SMOOTH",
"315 191 OFFCURVE",
"297 168 OFFCURVE",
"239 168 CURVE SMOOTH",
"181 168 OFFCURVE",
"163 191 OFFCURVE",
"163 237 CURVE SMOOTH",
"163 322 LINE SMOOTH",
"163 368 OFFCURVE",
"181 391 OFFCURVE",
"234 391 CURVE SMOOTH",
"249 391 OFFCURVE",
"260 389 OFFCURVE",
"260 389 CURVE",
"260 504 LINE",
"260 504 OFFCURVE",
"243 506 OFFCURVE",
"222 506 CURVE SMOOTH",
"79 506 OFFCURVE",
"30 442 OFFCURVE",
"30 328 CURVE SMOOTH",
"30 231 LINE SMOOTH",
"30 117 OFFCURVE",
"89 53 OFFCURVE",
"237 53 CURVE SMOOTH",
"365 53 OFFCURVE",
"418 123 OFFCURVE",
"418 231 CURVE SMOOTH",
"418 255 LINE"
);
},
{
closed = 1;
nodes = (
"166 381 LINE",
"112 336 LINE",
"311 169 LINE",
"365 215 LINE"
);
},
{
closed = 1;
nodes = (
"-40 554 LINE",
"339 554 LINE",
"339 671 LINE",
"-40 671 LINE"
);
}
);
width = 754;
}
);
},
{
glyphname = dvB_BHA;
lastChange = "2018-02-07 10:31:24 +0000";
layers = (
{
layerId = UUID0;
paths = (
{
closed = 1;
nodes = (
"-20 604 LINE",
"232 604 LINE",
"232 644 LINE",
"-20 644 LINE"
);
},
{
closed = 1;
nodes = (
"285 252 LINE",
"285 191 LINE",
"285 143 OFFCURVE",
"261 116 OFFCURVE",
"190 116 CURVE SMOOTH",
"115 116 OFFCURVE",
"95 146 OFFCURVE",
"95 191 CURVE SMOOTH",
"95 388 LINE SMOOTH",
"95 433 OFFCURVE",
"115 463 OFFCURVE",
"190 463 CURVE SMOOTH",
"216 463 OFFCURVE",
"237 458 OFFCURVE",
"237 458 CURVE",
"237 500 LINE",
"237 500 OFFCURVE",
"215 505 OFFCURVE",
"190 505 CURVE SMOOTH",
"95 505 OFFCURVE",
"50 463 OFFCURVE",
"50 388 CURVE SMOOTH",
"50 191 LINE SMOOTH",
"50 116 OFFCURVE",
"95 74 OFFCURVE",
"190 74 CURVE SMOOTH",
"290 74 OFFCURVE",
"330 116 OFFCURVE",
"330 191 CURVE SMOOTH",
"330 252 LINE"
);
},
{
closed = 1;
nodes = (
"68 414 LINE",
"60 373 LINE",
"299 191 LINE",
"321 221 LINE"
);
},
{
closed = 1;
nodes = (
"494 175 LINE",
"494 130 OFFCURVE",
"482 105 OFFCURVE",
"412 105 CURVE SMOOTH",
"342 105 OFFCURVE",
"330 131 OFFCURVE",
"330 175 CURVE SMOOTH",
"330 276 LINE SMOOTH",
"330 321 OFFCURVE",
"342 346 OFFCURVE",
"412 346 CURVE SMOOTH",
"494 346 LINE"
);
},
{
closed = 1;
nodes = (
"494 386 LINE",
"412 386 LINE SMOOTH",
"322 386 OFFCURVE",
"285 351 OFFCURVE",
"285 276 CURVE SMOOTH",
"285 175 LINE SMOOTH",
"285 100 OFFCURVE",
"322 63 OFFCURVE",
"412 63 CURVE SMOOTH",
"502 63 OFFCURVE",
"539 100 OFFCURVE",
"539 175 CURVE SMOOTH",
"539 346 LINE",
"681 346 LINE",
"681 0 LINE",
"726 0 LINE",
"726 604 LINE",
"826 604 LINE",
"826 644 LINE",
"681 644 LINE",
"681 386 LINE",
"539 386 LINE",
"539 532 LINE SMOOTH",
"539 607 OFFCURVE",
"501 649 OFFCURVE",
"415 649 CURVE SMOOTH",
"329 649 OFFCURVE",
"291 607 OFFCURVE",
"291 532 CURVE",
"291 507 OFFCURVE",
"295 476 OFFCURVE",
"295 476 CURVE",
"340 476 LINE",
"340 476 OFFCURVE",
"336 509 OFFCURVE",
"336 532 CURVE",
"336 576 OFFCURVE",
"349 607 OFFCURVE",
"415 607 CURVE SMOOTH",
"481 607 OFFCURVE",
"494 577 OFFCURVE",
"494 532 CURVE SMOOTH"
);
}
);
width = 806;
},
{
layerId = "13BA1341-7400-426C-964F-62F99446C2B7";
paths = (
{
closed = 1;
nodes = (
"-40 554 LINE",
"261 554 LINE",
"261 671 LINE",
"-40 671 LINE"
);
},
{
closed = 1;
nodes = (
"305 255 LINE",
"305 237 LINE SMOOTH",
"305 191 OFFCURVE",
"287 168 OFFCURVE",
"234 168 CURVE SMOOTH",
"181 168 OFFCURVE",
"163 191 OFFCURVE",
"163 237 CURVE SMOOTH",
"163 322 LINE SMOOTH",
"163 368 OFFCURVE",
"181 391 OFFCURVE",
"234 391 CURVE SMOOTH",
"249 391 OFFCURVE",
"260 389 OFFCURVE",
"260 389 CURVE",
"260 504 LINE",
"260 504 OFFCURVE",
"243 506 OFFCURVE",
"222 506 CURVE SMOOTH",
"79 506 OFFCURVE",
"30 442 OFFCURVE",
"30 328 CURVE SMOOTH",
"30 231 LINE SMOOTH",
"30 117 OFFCURVE",
"89 53 OFFCURVE",
"232 53 CURVE SMOOTH",
"355 53 OFFCURVE",
"408 123 OFFCURVE",
"408 231 CURVE SMOOTH",
"408 255 LINE"
);
},
{
closed = 1;
nodes = (
"166 381 LINE",
"112 336 LINE",
"311 169 LINE",
"365 215 LINE"
);
},
{
closed = 1;
nodes = (
"518 212 LINE",
"518 189 OFFCURVE",
"512 173 OFFCURVE",
"479 173 CURVE SMOOTH",
"446 173 OFFCURVE",
"440 189 OFFCURVE",
"440 212 CURVE SMOOTH",
"440 277 LINE SMOOTH",
"440 300 OFFCURVE",
"446 316 OFFCURVE",
"479 316 CURVE SMOOTH",
"518 316 LINE"
);
},
{
closed = 1;
nodes = (
"518 434 LINE",
"479 434 LINE SMOOTH",
"356 434 OFFCURVE",
"306 375 OFFCURVE",
"306 282 CURVE SMOOTH",
"306 207 LINE SMOOTH",
"306 114 OFFCURVE",
"356 54 OFFCURVE",
"479 54 CURVE SMOOTH",
"602 54 OFFCURVE",
"652 114 OFFCURVE",
"652 207 CURVE SMOOTH",
"652 316 LINE",
"736 316 LINE",
"736 0 LINE",
"876 0 LINE",
"876 554 LINE",
"958 554 LINE",
"958 671 LINE",
"736 671 LINE",
"736 434 LINE",
"658 434 LINE",
"658 513 LINE SMOOTH",
"658 616 OFFCURVE",
"605 676 OFFCURVE",
"482 676 CURVE SMOOTH",
"359 676 OFFCURVE",
"306 616 OFFCURVE",
"306 513 CURVE",
"306 493 OFFCURVE",
"309 476 OFFCURVE",
"309 476 CURVE",
"449 476 LINE",
"449 476 OFFCURVE",
"446 495 OFFCURVE",
"446 508 CURVE",
"446 531 OFFCURVE",
"449 547 OFFCURVE",
"482 547 CURVE SMOOTH",
"515 547 OFFCURVE",
"518 531 OFFCURVE",
"518 508 CURVE SMOOTH"
);
}
);
width = 918;
}
);
},
{
glyphname = dvB_BH_RA;
lastChange = "2018-02-07 10:31:24 +0000";
layers = (
{
components = (
{
name = dvBH_RA;
transform = "{1, 0, 0, 1, 228, 0}";
}
);
layerId = UUID0;
paths = (
{
closed = 1;
nodes = (
"-20 604 LINE",
"238 604 LINE",
"238 644 LINE",
"-20 644 LINE"
);
},
{
closed = 1;
nodes = (
"285 252 LINE",
"285 191 LINE SMOOTH",
"285 143 OFFCURVE",
"261 116 OFFCURVE",
"190 116 CURVE SMOOTH",
"115 116 OFFCURVE",
"95 146 OFFCURVE",
"95 191 CURVE SMOOTH",
"95 388 LINE SMOOTH",
"95 433 OFFCURVE",
"115 463 OFFCURVE",
"190 463 CURVE SMOOTH",
"216 463 OFFCURVE",
"237 458 OFFCURVE",
"237 458 CURVE",
"237 500 LINE",
"237 500 OFFCURVE",
"215 505 OFFCURVE",
"190 505 CURVE SMOOTH",
"95 505 OFFCURVE",
"50 463 OFFCURVE",
"50 388 CURVE SMOOTH",
"50 191 LINE SMOOTH",
"50 116 OFFCURVE",
"95 74 OFFCURVE",
"190 74 CURVE SMOOTH",
"290 74 OFFCURVE",
"330 116 OFFCURVE",
"330 191 CURVE SMOOTH",
"330 252 LINE"
);
},
{
closed = 1;
nodes = (
"68 414 LINE",
"60 373 LINE",
"299 191 LINE",
"321 221 LINE"
);
}
);
width = 809;
},
{
components = (
{
name = dvBH_RA;
transform = "{1, 0, 0, 1, 269, 0}";
}
);
layerId = "13BA1341-7400-426C-964F-62F99446C2B7";
paths = (
{
closed = 1;
nodes = (
"-39 554 LINE",
"260 554 LINE",
"260 671 LINE",
"-39 671 LINE"
);
},
{
closed = 1;
nodes = (
"305 255 LINE",
"305 237 LINE SMOOTH",
"305 191 OFFCURVE",
"287 168 OFFCURVE",
"234 168 CURVE SMOOTH",
"181 168 OFFCURVE",
"163 191 OFFCURVE",
"163 237 CURVE SMOOTH",
"163 322 LINE SMOOTH",
"163 368 OFFCURVE",
"181 391 OFFCURVE",
"234 391 CURVE SMOOTH",
"249 391 OFFCURVE",
"260 389 OFFCURVE",
"260 389 CURVE",
"260 504 LINE",
"260 504 OFFCURVE",
"243 506 OFFCURVE",
"222 506 CURVE SMOOTH",
"79 506 OFFCURVE",
"30 442 OFFCURVE",
"30 328 CURVE SMOOTH",
"30 231 LINE SMOOTH",
"30 117 OFFCURVE",
"89 53 OFFCURVE",
"232 53 CURVE SMOOTH",
"355 53 OFFCURVE",
"408 123 OFFCURVE",
"408 231 CURVE SMOOTH",
"408 255 LINE"
);
},
{
closed = 1;
nodes = (
"166 381 LINE",
"112 336 LINE",
"311 169 LINE",
"365 215 LINE"
);
}
);
width = 917;
}
);
},
{
glyphname = dvB_DA;
lastChange = "2018-02-07 10:31:24 +0000";
layers = (
{
anchors = (
{
name = abvm.bindu;
position = "{555, 644}";
},
{
name = abvm.e;
position = "{555, 644}";
},
{
name = blwm.u;
position = "{552, -10}";
},
{
name = blwm.virama;
position = "{572, -10}";
}
);
components = (
{
name = dvDA;
transform = "{1, 0, 0, 1, 238, 0}";
}
);
layerId = UUID0;
paths = (
{
closed = 1;
nodes = (
"285 295 LINE",
"285 191 LINE",
"285 143 OFFCURVE",
"261 116 OFFCURVE",
"190 116 CURVE SMOOTH",
"115 116 OFFCURVE",
"95 146 OFFCURVE",
"95 191 CURVE SMOOTH",
"95 388 LINE SMOOTH",
"95 433 OFFCURVE",
"115 463 OFFCURVE",
"190 463 CURVE SMOOTH",
"216 463 OFFCURVE",
"237 458 OFFCURVE",
"237 458 CURVE",
"237 500 LINE",
"237 500 OFFCURVE",
"215 505 OFFCURVE",
"190 505 CURVE SMOOTH",
"95 505 OFFCURVE",
"50 463 OFFCURVE",
"50 388 CURVE SMOOTH",
"50 191 LINE SMOOTH",
"50 116 OFFCURVE",
"95 74 OFFCURVE",
"190 74 CURVE SMOOTH",
"290 74 OFFCURVE",
"330 116 OFFCURVE",
"330 191 CURVE SMOOTH",
"330 295 LINE"
);
},
{
closed = 1;
nodes = (
"68 414 LINE",
"60 373 LINE",
"299 191 LINE",
"321 221 LINE"
);
},
{
closed = 1;
nodes = (
"-20 604 LINE",
"330 604 LINE",
"330 644 LINE",
"-20 644 LINE"
);
}
);
width = 635;
},
{
anchors = (
{
name = abvm.bindu;
position = "{658, 671}";
},
{
name = abvm.e;
position = "{658, 671}";
},
{
name = blwm.u;
position = "{667, 0}";
},
{
name = blwm.virama;
position = "{667, 0}";
}
);
components = (
{
name = dvDA;
transform = "{1, 0, 0, 1, 274, 0}";
}
);
layerId = "13BA1341-7400-426C-964F-62F99446C2B7";
paths = (
{
closed = 1;
nodes = (
"315 255 LINE",
"315 237 LINE SMOOTH",
"315 191 OFFCURVE",
"297 168 OFFCURVE",
"239 168 CURVE SMOOTH",
"181 168 OFFCURVE",
"163 191 OFFCURVE",
"163 237 CURVE SMOOTH",
"163 322 LINE SMOOTH",
"163 368 OFFCURVE",
"181 391 OFFCURVE",
"234 391 CURVE SMOOTH",
"249 391 OFFCURVE",
"260 389 OFFCURVE",
"260 389 CURVE",
"260 504 LINE",
"260 504 OFFCURVE",
"243 506 OFFCURVE",
"222 506 CURVE SMOOTH",
"79 506 OFFCURVE",
"30 442 OFFCURVE",
"30 328 CURVE SMOOTH",
"30 231 LINE SMOOTH",
"30 117 OFFCURVE",
"89 53 OFFCURVE",
"237 53 CURVE SMOOTH",
"365 53 OFFCURVE",
"408 123 OFFCURVE",
"408 231 CURVE SMOOTH",
"408 255 LINE"
);
},
{
closed = 1;
nodes = (
"166 381 LINE",
"112 336 LINE",
"311 169 LINE",
"365 215 LINE"
);
},
{
closed = 1;
nodes = (
"-40 554 LINE",
"239 554 LINE",
"239 671 LINE",
"-40 671 LINE"
);
}
);
width = 705;
}
);
},
{
glyphname = dvDA;
lastChange = "2018-02-07 10:31:24 +0000";
layers = (
{
anchors = (
{
name = abvm.bindu;
position = "{317, 644}";
},
{
name = abvm.e;
position = "{317, 644}";
},
{
name = blwm.u;
position = "{314, -10}";
},
{
name = blwm.virama;
position = "{334, -10}";
}
);
layerId = UUID0;
paths = (
{
closed = 1;
nodes = (
"47 203 LINE",
"47 124 OFFCURVE",
"104 77 OFFCURVE",
"199 77 CURVE",
"239 77 OFFCURVE",
"263 80 OFFCURVE",
"292 87 CURVE",
"292 -10 LINE",
"334 -10 LINE",
"334 228 LINE",
"292 228 LINE",
"292 129 LINE",
"260 122 OFFCURVE",
"239 119 OFFCURVE",
"199 119 CURVE",
"124 119 OFFCURVE",
"92 152 OFFCURVE",
"92 203 CURVE SMOOTH",
"92 387 LINE SMOOTH",
"92 432 OFFCURVE",
"112 462 OFFCURVE",
"187 462 CURVE SMOOTH",
"317 462 LINE",
"317 604 LINE",
"417 604 LINE",
"417 644 LINE",
"-20 644 LINE",
"-20 604 LINE",
"272 604 LINE",
"272 504 LINE",
"187 504 LINE SMOOTH",
"92 504 OFFCURVE",
"47 462 OFFCURVE",
"47 387 CURVE SMOOTH"
);
}
);
width = 397;
},
{
anchors = (
{
name = abvm.bindu;
position = "{383, 671}";
},
{
name = abvm.e;
position = "{383, 671}";
},
{
name = blwm.u;
position = "{392, 0}";
},
{
name = blwm.virama;
position = "{392, 0}";
}
);
layerId = "13BA1341-7400-426C-964F-62F99446C2B7";
paths = (
{
closed = 1;
nodes = (
"30 217 LINE",
"30 114 OFFCURVE",
"78 61 OFFCURVE",
"191 61 CURVE",
"218 61 OFFCURVE",
"240 64 OFFCURVE",
"252 67 CURVE",
"252 0 LINE",
"392 0 LINE",
"392 278 LINE",
"252 278 LINE",
"252 190 LINE",
"242 187 OFFCURVE",
"230 184 OFFCURVE",
"213 184 CURVE",
"178 184 OFFCURVE",
"170 198 OFFCURVE",
"170 222 CURVE SMOOTH",
"170 331 LINE SMOOTH",
"170 355 OFFCURVE",
"176 368 OFFCURVE",
"211 368 CURVE SMOOTH",
"383 368 LINE",
"383 554 LINE",
"470 554 LINE",
"470 671 LINE",
"-40 671 LINE",
"-40 554 LINE",
"243 554 LINE",
"243 495 LINE",
"211 495 LINE SMOOTH",
"88 495 OFFCURVE",
"30 456 OFFCURVE",
"30 336 CURVE SMOOTH"
);
}
);
width = 430;
}
);
unicode = 0926;
},
{
glyphname = dvB_DHA;
lastChange = "2018-02-07 10:31:24 +0000";
layers = (
{
components = (
{
name = dvDHA;
transform = "{1, 0, 0, 1, 215, 0}";
}
);
layerId = UUID0;
paths = (
{
closed = 1;
nodes = (
"-20 604 LINE",
"330 604 LINE",
"330 644 LINE",
"-20 644 LINE"
);
},
{
closed = 1;
nodes = (
"285 252 LINE",
"285 191 LINE",
"285 143 OFFCURVE",
"261 116 OFFCURVE",
"190 116 CURVE SMOOTH",
"115 116 OFFCURVE",
"95 146 OFFCURVE",
"95 191 CURVE SMOOTH",
"95 388 LINE SMOOTH",
"95 433 OFFCURVE",
"115 463 OFFCURVE",
"190 463 CURVE SMOOTH",
"216 463 OFFCURVE",
"237 458 OFFCURVE",
"237 458 CURVE",
"237 500 LINE",
"237 500 OFFCURVE",
"215 505 OFFCURVE",
"190 505 CURVE SMOOTH",
"95 505 OFFCURVE",
"50 463 OFFCURVE",
"50 388 CURVE SMOOTH",
"50 191 LINE SMOOTH",
"50 116 OFFCURVE",
"95 74 OFFCURVE",
"190 74 CURVE SMOOTH",
"290 74 OFFCURVE",
"330 116 OFFCURVE",
"330 191 CURVE SMOOTH",
"330 252 LINE"
);
},
{
closed = 1;
nodes = (
"68 414 LINE",
"60 373 LINE",
"299 191 LINE",
"321 221 LINE"
);
}
);
width = 704;
},
{
components = (
{
name = dvDHA;
transform = "{1, 0, 0, 1, 270, 0}";
}
);
layerId = "13BA1341-7400-426C-964F-62F99446C2B7";
paths = (
{
closed = 1;
nodes = (
"-40 554 LINE",
"448 554 LINE",
"448 671 LINE",
"-40 671 LINE"
);
},
{
closed = 1;
nodes = (
"305 255 LINE",
"305 237 LINE SMOOTH",
"305 191 OFFCURVE",
"287 168 OFFCURVE",
"234 168 CURVE SMOOTH",
"181 168 OFFCURVE",
"163 191 OFFCURVE",
"163 237 CURVE SMOOTH",
"163 322 LINE SMOOTH",
"163 368 OFFCURVE",
"181 391 OFFCURVE",
"234 391 CURVE",
"249 391 OFFCURVE",
"260 389 OFFCURVE",
"260 389 CURVE",
"260 504 LINE",
"260 504 OFFCURVE",
"243 506 OFFCURVE",
"222 506 CURVE",
"79 506 OFFCURVE",
"30 442 OFFCURVE",
"30 328 CURVE SMOOTH",
"30 231 LINE SMOOTH",
"30 117 OFFCURVE",
"89 53 OFFCURVE",
"232 53 CURVE SMOOTH",
"355 53 OFFCURVE",
"408 123 OFFCURVE",
"408 231 CURVE SMOOTH",
"408 255 LINE"
);
},
{
closed = 1;
nodes = (
"166 381 LINE",
"112 336 LINE",
"311 169 LINE",
"365 215 LINE"
);
}
);
width = 775;
}
);
},
{
glyphname = dvDHA;
lastChange = "2018-02-07 10:31:24 +0000";
layers = (
{
layerId = UUID0;
paths = (
{
closed = 1;
nodes = (
"85 604 LINE",
"85 604 OFFCURVE",
"76 579 OFFCURVE",
"76 529 CURVE SMOOTH",
"76 456 LINE",
"76 411 OFFCURVE",
"86 375 OFFCURVE",
"134 359 CURVE",
"86 347 OFFCURVE",
"70 308 OFFCURVE",
"70 264 CURVE SMOOTH",
"70 206 LINE SMOOTH",
"70 104 OFFCURVE",
"147 64 OFFCURVE",
"247 64 CURVE",
"298 64 OFFCURVE",
"333 70 OFFCURVE",
"364 79 CURVE",
"364 0 LINE",
"409 0 LINE",
"409 604 LINE",
"509 604 LINE",
"509 644 LINE",
"364 644 LINE",
"364 121 LINE",
"336 113 OFFCURVE",
"298 106 OFFCURVE",
"247 106 CURVE",
"165 106 OFFCURVE",
"115 131 OFFCURVE",
"115 206 CURVE SMOOTH",
"115 264 LINE SMOOTH",
"115 309 OFFCURVE",
"136 339 OFFCURVE",
"212 339 CURVE",
"245 339 LINE",
"245 381 LINE",
"212 381 LINE SMOOTH",
"137 382 OFFCURVE",
"121 411 OFFCURVE",
"121 456 CURVE SMOOTH",
"121 529 LINE SMOOTH",
"121 576 OFFCURVE",
"130 604 OFFCURVE",
"130 604 CURVE",
"239 604 LINE",
"239 644 LINE",
"-20 644 LINE",
"-20 604 LINE"
);
}
);
width = 489;
},
{
layerId = "13BA1341-7400-426C-964F-62F99446C2B7";
paths = (
{
closed = 1;
nodes = (
"52 554 LINE",
"52 554 OFFCURVE",
"41 537 OFFCURVE",
"41 507 CURVE",
"41 465 LINE SMOOTH",
"41 419 OFFCURVE",
"54 389 OFFCURVE",
"79 370 CURVE",
"50 353 OFFCURVE",
"35 322 OFFCURVE",
"35 268 CURVE SMOOTH",
"35 217 LINE SMOOTH",
"35 120 OFFCURVE",
"98 57 OFFCURVE",
"229 57 CURVE",
"272 57 OFFCURVE",
"303 62 OFFCURVE",
"323 67 CURVE",
"323 0 LINE",
"463 0 LINE",
"463 554 LINE",
"545 554 LINE",
"545 671 LINE",
"323 671 LINE",
"323 192 LINE",
"299 186 OFFCURVE",
"279 182 OFFCURVE",
"249 182 CURVE",
"204 182 OFFCURVE",
"175 194 OFFCURVE",
"175 235 CURVE SMOOTH",
"175 263 LINE SMOOTH",
"175 286 OFFCURVE",
"181 302 OFFCURVE",
"214 302 CURVE SMOOTH",
"264 302 LINE",
"264 431 LINE",
"220 431 LINE SMOOTH",
"187 431 OFFCURVE",
"181 447 OFFCURVE",
"181 470 CURVE SMOOTH",
"181 507 LINE",
"181 541 OFFCURVE",
"197 554 OFFCURVE",
"197 554 CURVE",
"253 554 LINE",
"253 671 LINE",
"-40 671 LINE",
"-40 554 LINE"
);
}
);
width = 505;
}
);
unicode = 0927;
},
{
glyphname = dvB_DH_VA;
lastChange = "2018-02-07 10:31:24 +0000";
layers = (
{
components = (
{
name = dvDH_VA;
transform = "{1, 0, 0, 1, 215, 0}";
}
);
layerId = UUID0;
paths = (
{
closed = 1;
nodes = (
"-20 604 LINE",
"330 604 LINE",
"330 644 LINE",
"-20 644 LINE"
);
},
{
closed = 1;
nodes = (
"285 252 LINE",
"285 191 LINE SMOOTH",
"285 143 OFFCURVE",
"261 116 OFFCURVE",
"190 116 CURVE SMOOTH",
"115 116 OFFCURVE",
"95 146 OFFCURVE",
"95 191 CURVE SMOOTH",
"95 388 LINE SMOOTH",
"95 433 OFFCURVE",
"115 463 OFFCURVE",
"190 463 CURVE SMOOTH",
"216 463 OFFCURVE",
"237 458 OFFCURVE",
"237 458 CURVE",
"237 500 LINE",
"237 500 OFFCURVE",
"215 505 OFFCURVE",
"190 505 CURVE SMOOTH",
"95 505 OFFCURVE",
"50 463 OFFCURVE",
"50 388 CURVE SMOOTH",
"50 191 LINE SMOOTH",
"50 116 OFFCURVE",
"95 74 OFFCURVE",
"190 74 CURVE SMOOTH",
"290 74 OFFCURVE",
"330 116 OFFCURVE",
"330 191 CURVE SMOOTH",
"330 252 LINE"
);
},
{
closed = 1;
nodes = (
"68 414 LINE",
"60 373 LINE",
"299 191 LINE",
"321 221 LINE"
);
}
);
width = 933;
},
{
components = (
{
name = dvDH_VA;
transform = "{1, 0, 0, 1, 270, 0}";
}
);
layerId = "13BA1341-7400-426C-964F-62F99446C2B7";
paths = (
{
closed = 1;
nodes = (
"-40 554 LINE",
"447 554 LINE",
"447 671 LINE",
"-40 671 LINE"
);
},
{
closed = 1;
nodes = (
"304 255 LINE",
"304 237 LINE SMOOTH",
"304 191 OFFCURVE",
"286 168 OFFCURVE",
"233 168 CURVE SMOOTH",
"180 168 OFFCURVE",
"162 191 OFFCURVE",
"162 237 CURVE SMOOTH",
"162 322 LINE SMOOTH",
"162 368 OFFCURVE",
"180 391 OFFCURVE",
"233 391 CURVE SMOOTH",
"248 391 OFFCURVE",
"259 389 OFFCURVE",
"259 389 CURVE",
"259 504 LINE",
"259 504 OFFCURVE",
"242 506 OFFCURVE",
"221 506 CURVE SMOOTH",
"78 506 OFFCURVE",
"29 442 OFFCURVE",
"29 328 CURVE SMOOTH",
"29 231 LINE SMOOTH",
"29 117 OFFCURVE",
"88 53 OFFCURVE",
"231 53 CURVE SMOOTH",
"354 53 OFFCURVE",
"407 123 OFFCURVE",
"407 231 CURVE SMOOTH",
"407 255 LINE"
);
},
{
closed = 1;
nodes = (
"165 381 LINE",
"111 336 LINE",
"310 169 LINE",
"364 215 LINE"
);
}
);
width = 1026;
}
);
},
{
glyphname = dvDH_VA;
lastChange = "2018-02-07 10:31:24 +0000";
layers = (
{
layerId = UUID0;
paths = (
{
closed = 1;
nodes = (
"389 153 LINE",
"350 142 OFFCURVE",
"290 132 OFFCURVE",
"247 132 CURVE SMOOTH",
"165 132 OFFCURVE",
"115 157 OFFCURVE",
"115 232 CURVE SMOOTH",
"115 284 LINE SMOOTH",
"115 329 OFFCURVE",
"136 359 OFFCURVE",
"212 359 CURVE SMOOTH",
"245 359 LINE",
"245 401 LINE",
"212 401 LINE SMOOTH",
"137 402 OFFCURVE",
"121 431 OFFCURVE",
"121 476 CURVE SMOOTH",
"121 529 LINE SMOOTH",
"121 576 OFFCURVE",
"130 604 OFFCURVE",
"130 604 CURVE",
"209 604 LINE",
"209 644 LINE",
"-20 644 LINE",
"-20 604 LINE",
"85 604 LINE",
"85 604 OFFCURVE",
"76 579 OFFCURVE",
"76 529 CURVE SMOOTH",
"76 476 LINE SMOOTH",
"76 431 OFFCURVE",
"86 395 OFFCURVE",
"134 379 CURVE",
"86 367 OFFCURVE",
"70 328 OFFCURVE",
"70 284 CURVE SMOOTH",
"70 232 LINE SMOOTH",
"70 130 OFFCURVE",
"147 90 OFFCURVE",
"247 90 CURVE SMOOTH",
"291 90 OFFCURVE",
"352 101 OFFCURVE",
"392 112 CURVE"
);
},
{
closed = 1;
nodes = (
"593 491 LINE",
"584 495 OFFCURVE",
"543 505 OFFCURVE",
"494 505 CURVE SMOOTH",
"399 505 OFFCURVE",
"348 455 OFFCURVE",
"348 381 CURVE SMOOTH",
"348 199 LINE SMOOTH",
"348 120 OFFCURVE",
"399 74 OFFCURVE",
"494 74 CURVE SMOOTH",
"543 74 OFFCURVE",
"584 84 OFFCURVE",
"593 88 CURVE",
"593 0 LINE",
"638 0 LINE",
"638 604 LINE",
"738 604 LINE",
"738 644 LINE",
"332 644 LINE",
"332 604 LINE",
"593 604 LINE"
);
},
{
closed = 1;
nodes = (
"593 130 LINE",
"584 126 OFFCURVE",
"543 116 OFFCURVE",
"494 116 CURVE SMOOTH",
"419 116 OFFCURVE",
"393 149 OFFCURVE",
"393 199 CURVE SMOOTH",
"393 380 LINE SMOOTH",
"393 425 OFFCURVE",
"419 463 OFFCURVE",
"494 463 CURVE SMOOTH",
"543 463 OFFCURVE",
"584 453 OFFCURVE",
"593 449 CURVE"
);
}
);
width = 718;
},
{
layerId = "13BA1341-7400-426C-964F-62F99446C2B7";
paths = (
{
closed = 1;
nodes = (
"423 217 LINE",
"370 198 OFFCURVE",
"320 182 OFFCURVE",
"255 182 CURVE SMOOTH",
"202 182 OFFCURVE",
"175 194 OFFCURVE",
"175 235 CURVE SMOOTH",
"175 263 LINE SMOOTH",
"175 286 OFFCURVE",
"181 302 OFFCURVE",
"214 302 CURVE SMOOTH",
"264 302 LINE",
"264 431 LINE",
"220 431 LINE SMOOTH",
"187 431 OFFCURVE",
"181 447 OFFCURVE",
"181 470 CURVE SMOOTH",
"181 507 LINE SMOOTH",
"181 541 OFFCURVE",
"191 554 OFFCURVE",
"191 554 CURVE",
"229 554 LINE",
"229 671 LINE",
"-40 671 LINE",
"-40 554 LINE",
"47 554 LINE",
"47 554 OFFCURVE",
"41 538 OFFCURVE",
"41 507 CURVE SMOOTH",
"41 465 LINE SMOOTH",
"41 419 OFFCURVE",
"54 389 OFFCURVE",
"79 370 CURVE",
"50 353 OFFCURVE",
"35 322 OFFCURVE",
"35 268 CURVE SMOOTH",
"35 217 LINE SMOOTH",
"35 125 OFFCURVE",
"96 57 OFFCURVE",
"247 57 CURVE SMOOTH",
"329 57 OFFCURVE",
"381 79 OFFCURVE",
"423 92 CURVE"
);
},
{
closed = 1;
nodes = (
"574 499 LINE",
"559 502 OFFCURVE",
"535 506 OFFCURVE",
"508 506 CURVE",
"389 506 OFFCURVE",
"344 449 OFFCURVE",
"344 346 CURVE SMOOTH",
"344 211 LINE SMOOTH",
"344 108 OFFCURVE",
"385 52 OFFCURVE",
"508 52 CURVE",
"537 52 OFFCURVE",
"559 56 OFFCURVE",
"574 59 CURVE",
"574 0 LINE",
"714 0 LINE",
"714 554 LINE",
"796 554 LINE",
"796 671 LINE",
"331 671 LINE",
"331 554 LINE",
"574 554 LINE"
);
},
{
closed = 1;
nodes = (
"581 177 LINE",
"570 173 OFFCURVE",
"554 170 OFFCURVE",
"534 170 CURVE",
"499 170 OFFCURVE",
"480 184 OFFCURVE",
"480 214 CURVE",
"480 345 LINE SMOOTH",
"480 375 OFFCURVE",
"498 388 OFFCURVE",
"533 388 CURVE",
"551 388 OFFCURVE",
"566 386 OFFCURVE",
"581 383 CURVE"
);
}
);
width = 756;
}
);
},
{
glyphname = dvB_JA;
lastChange = "2018-02-07 10:31:24 +0000";
layers = (
{
components = (
{
name = dvB;
}
);
layerId = UUID0;
paths = (
{
closed = 1;
nodes = (
"565 380 LINE",
"565 430 OFFCURVE",
"557 455 OFFCURVE",
"557 455 CURVE",
"715 455 LINE",
"715 0 LINE",
"760 0 LINE",
"760 604 LINE",
"860 604 LINE",
"860 644 LINE",
"280 644 LINE",
"280 604 LINE",
"715 604 LINE",
"715 495 LINE",
"399 495 LINE",
"399 455 LINE",
"512 455 LINE",
"512 455 OFFCURVE",
"520 427 OFFCURVE",
"520 380 CURVE SMOOTH",
"520 192 LINE SMOOTH",
"520 143 OFFCURVE",
"495 108 OFFCURVE",
"422 108 CURVE SMOOTH",
"385 108 OFFCURVE",
"301 126 OFFCURVE",
"273 134 CURVE",
"273 91 LINE",
"298 84 OFFCURVE",
"377 66 OFFCURVE",
"422 66 CURVE SMOOTH",
"517 66 OFFCURVE",
"565 114 OFFCURVE",
"565 192 CURVE"
);
}
);
width = 840;
},
{
components = (
{
name = dvB;
}
);
layerId = "13BA1341-7400-426C-964F-62F99446C2B7";
paths = (
{
closed = 1;
nodes = (
"677 324 LINE SMOOTH",
"677 354 OFFCURVE",
"668 371 OFFCURVE",
"668 371 CURVE",
"749 371 LINE",
"749 0 LINE",
"889 0 LINE",
"889 554 LINE",
"961 554 LINE",
"961 671 LINE",
"297 671 LINE",
"297 554 LINE",
"749 554 LINE",
"749 491 LINE",
"482 491 LINE",
"482 362 LINE",
"526 362 LINE",
"526 362 OFFCURVE",
"537 349 OFFCURVE",
"537 315 CURVE SMOOTH",
"537 227 LINE SMOOTH",
"537 188 OFFCURVE",
"511 175 OFFCURVE",
"472 175 CURVE",
"441 175 OFFCURVE",
"413 186 OFFCURVE",
"391 192 CURVE",
"328 74 LINE",
"368 60 OFFCURVE",
"417 48 OFFCURVE",
"478 48 CURVE",
"603 48 OFFCURVE",
"677 103 OFFCURVE",
"677 222 CURVE"
);
}
);
width = 931;
}
);
},
